  0
SECTION
  2
HEADER
  9
$EXTMIN
 10
393.02
 20
449.87
  9
$EXTMAX
 10
584.06
 20
545.68
  9
$LIMMIN
 10
393.02
 20
449.87
  9
$LIMMAX
 10
584.06
 20
545.68
  0
ENDSEC
  0
SECTION
  2
TABLES
  0
TABLE
  2
LAYER
 70
    18
  0
LAYER
  2
0
 70
    64
 62
     7
  6
CONTINUOUS
  0
LAYER
  2
_BOARD
 70
    64
 62
    254
  6
CONTINUOUS
  0
LAYER
  2
_DRILL
 70
    64
 62
    251
  6
CONTINUOUS
  0
ENDTAB
  0
ENDSEC
  0
SECTION
  2
BLOCKS
  0
BLOCK
  8
0
  2
_HOLE
 70
    64
 10
0.00
 20
0.00
  0
CIRCLE
  8
0
 10
0.00
 20
0.00
 40
0.500
  0
ENDBLK
  8
0
  0
ENDSEC
  0
SECTION
  2
ENTITIES
  0
POLYLINE
  8
_BOARD
 66
     1
 62
     3
 10
0.00
 20
0.00
 70
     1
 40
0.00
 41
0.00
  0
VERTEX
  8
_BOARD
 10
403.69
 20
456.67
 40
0.00
 41
0.00
  0
VERTEX
  8
_BOARD
 10
552.89
 20
456.67
  0
VERTEX
  8
_BOARD
 10
552.89
 20
456.67
 40
0.00
 41
0.00
  0
VERTEX
  8
_BOARD
 10
552.89
 20
541.79
  0
VERTEX
  8
_BOARD
 10
552.89
 20
541.79
 40
0.00
 41
0.00
  0
VERTEX
  8
_BOARD
 10
403.69
 20
541.79
  0
VERTEX
  8
_BOARD
 10
403.69
 20
541.79
 40
0.00
 41
0.00
  0
VERTEX
  8
_BOARD
 10
403.69
 20
456.67
 40
0.00
 41
0.00
  0
VERTEX
  8
_BOARD
 10
403.69
 20
456.67
  0
SEQEND
  8
_BOARD
  0
INSERT
  8
_DRILL
  2
_HOLE
 10
455.39
 20
493.86
 41
0.81
 42
0.81
  0
INSERT
  8
_DRILL
  2
_HOLE
 10
457.52
 20
533.53
 41
0.61
 42
0.61
  0
INSERT
  8
_DRILL
  2
_HOLE
 10
546.27
 20
533.42
 41
0.61
 42
0.61
  0
INSERT
  8
_DRILL
  2
_HOLE
 10
456.23
 20
509.45
 41
0.61
 42
0.61
  0
INSERT
  8
_DRILL
  2
_HOLE
 10
515.27
 20
522.34
 41
0.61
 42
0.61
  0
INSERT
  8
_DRILL
  2
_HOLE
 10
429.90
 20
533.49
 41
0.61
 42
0.61
  0
INSERT
  8
_DRILL
  2
_HOLE
 10
482.89
 20
534.81
 41
0.61
 42
0.61
  0
INSERT
  8
_DRILL
  2
_HOLE
 10
527.22
 20
487.79
 41
0.61
 42
0.61
  0
INSERT
  8
_DRILL
  2
_HOLE
 10
527.22
 20
500.10
 41
0.61
 42
0.61
  0
INSERT
  8
_DRILL
  2
_HOLE
 10
481.98
 20
518.06
 41
0.61
 42
0.61
  0
INSERT
  8
_DRILL
  2
_HOLE
 10
436.50
 20
518.06
 41
0.61
 42
0.61
  0
INSERT
  8
_DRILL
  2
_HOLE
 10
484.59
 20
515.70
 41
0.61
 42
0.61
  0
INSERT
  8
_DRILL
  2
_HOLE
 10
437.30
 20
515.70
 41
0.61
 42
0.61
  0
INSERT
  8
_DRILL
  2
_HOLE
 10
492.15
 20
530.91
 41
0.61
 42
0.61
  0
INSERT
  8
_DRILL
  2
_HOLE
 10
492.15
 20
538.02
 41
0.61
 42
0.61
  0
INSERT
  8
_DRILL
  2
_HOLE
 10
496.71
 20
503.42
 41
0.61
 42
0.61
  0
INSERT
  8
_DRILL
  2
_HOLE
 10
522.43
 20
531.80
 41
0.61
 42
0.61
  0
INSERT
  8
_DRILL
  2
_HOLE
 10
498.30
 20
503.32
 41
0.61
 42
0.61
  0
INSERT
  8
_DRILL
  2
_HOLE
 10
434.70
 20
519.65
 41
0.61
 42
0.61
  0
INSERT
  8
_DRILL
  2
_HOLE
 10
518.22
 20
500.98
 41
0.61
 42
0.61
  0
INSERT
  8
_DRILL
  2
_HOLE
 10
528.45
 20
535.95
 41
0.61
 42
0.61
  0
INSERT
  8
_DRILL
  2
_HOLE
 10
528.45
 20
531.34
 41
0.61
 42
0.61
  0
INSERT
  8
_DRILL
  2
_HOLE
 10
499.66
 20
476.86
 41
0.61
 42
0.61
  0
INSERT
  8
_DRILL
  2
_HOLE
 10
538.66
 20
492.90
 41
0.61
 42
0.61
  0
INSERT
  8
_DRILL
  2
_HOLE
 10
491.37
 20
478.08
 41
0.61
 42
0.61
  0
INSERT
  8
_DRILL
  2
_HOLE
 10
506.83
 20
493.52
 41
0.61
 42
0.61
  0
INSERT
  8
_DRILL
  2
_HOLE
 10
515.32
 20
504.82
 41
0.61
 42
0.61
  0
INSERT
  8
_DRILL
  2
_HOLE
 10
502.84
 20
500.74
 41
0.61
 42
0.61
  0
INSERT
  8
_DRILL
  2
_HOLE
 10
506.36
 20
500.51
 41
0.61
 42
0.61
  0
INSERT
  8
_DRILL
  2
_HOLE
 10
537.85
 20
463.29
 41
0.61
 42
0.61
  0
INSERT
  8
_DRILL
  2
_HOLE
 10
528.51
 20
466.15
 41
0.61
 42
0.61
  0
INSERT
  8
_DRILL
  2
_HOLE
 10
530.42
 20
469.27
 41
0.61
 42
0.61
  0
INSERT
  8
_DRILL
  2
_HOLE
 10
525.06
 20
487.89
 41
0.61
 42
0.61
  0
INSERT
  8
_DRILL
  2
_HOLE
 10
525.06
 20
472.35
 41
0.61
 42
0.61
  0
INSERT
  8
_DRILL
  2
_HOLE
 10
525.06
 20
467.64
 41
0.61
 42
0.61
  0
INSERT
  8
_DRILL
  2
_HOLE
 10
526.16
 20
485.90
 41
0.61
 42
0.61
  0
INSERT
  8
_DRILL
  2
_HOLE
 10
477.57
 20
512.50
 41
0.61
 42
0.61
  0
INSERT
  8
_DRILL
  2
_HOLE
 10
479.60
 20
514.04
 41
0.61
 42
0.61
  0
INSERT
  8
_DRILL
  2
_HOLE
 10
480.95
 20
511.51
 41
0.61
 42
0.61
  0
INSERT
  8
_DRILL
  2
_HOLE
 10
430.62
 20
502.21
 41
0.30
 42
0.30
  0
INSERT
  8
_DRILL
  2
_HOLE
 10
432.38
 20
500.61
 41
0.30
 42
0.30
  0
INSERT
  8
_DRILL
  2
_HOLE
 10
430.62
 20
500.61
 41
0.30
 42
0.30
  0
INSERT
  8
_DRILL
  2
_HOLE
 10
430.62
 20
498.65
 41
0.30
 42
0.30
  0
INSERT
  8
_DRILL
  2
_HOLE
 10
432.38
 20
498.65
 41
0.30
 42
0.30
  0
INSERT
  8
_DRILL
  2
_HOLE
 10
434.04
 20
498.65
 41
0.30
 42
0.30
  0
INSERT
  8
_DRILL
  2
_HOLE
 10
435.54
 20
498.65
 41
0.30
 42
0.30
  0
INSERT
  8
_DRILL
  2
_HOLE
 10
434.04
 20
500.61
 41
0.30
 42
0.30
  0
INSERT
  8
_DRILL
  2
_HOLE
 10
435.54
 20
500.61
 41
0.30
 42
0.30
  0
INSERT
  8
_DRILL
  2
_HOLE
 10
435.54
 20
502.21
 41
0.30
 42
0.30
  0
INSERT
  8
_DRILL
  2
_HOLE
 10
434.04
 20
502.21
 41
0.30
 42
0.30
  0
INSERT
  8
_DRILL
  2
_HOLE
 10
432.38
 20
502.21
 41
0.30
 42
0.30
  0
INSERT
  8
_DRILL
  2
_HOLE
 10
462.02
 20
499.63
 41
0.30
 42
0.30
  0
INSERT
  8
_DRILL
  2
_HOLE
 10
460.06
 20
499.63
 41
0.30
 42
0.30
  0
INSERT
  8
_DRILL
  2
_HOLE
 10
458.46
 20
499.63
 41
0.30
 42
0.30
  0
INSERT
  8
_DRILL
  2
_HOLE
 10
458.43
 20
500.95
 41
0.30
 42
0.30
  0
INSERT
  8
_DRILL
  2
_HOLE
 10
460.03
 20
500.95
 41
0.30
 42
0.30
  0
INSERT
  8
_DRILL
  2
_HOLE
 10
461.99
 20
500.95
 41
0.30
 42
0.30
  0
INSERT
  8
_DRILL
  2
_HOLE
 10
412.73
 20
499.62
 41
0.61
 42
0.61
  0
INSERT
  8
_DRILL
  2
_HOLE
 10
412.73
 20
509.59
 41
0.61
 42
0.61
  0
INSERT
  8
_DRILL
  2
_HOLE
 10
544.75
 20
492.47
 41
1.30
 42
1.30
  0
INSERT
  8
_DRILL
  2
_HOLE
 10
544.75
 20
497.55
 41
1.30
 42
1.30
  0
INSERT
  8
_DRILL
  2
_HOLE
 10
547.27
 20
485.01
 41
0.76
 42
0.76
  0
INSERT
  8
_DRILL
  2
_HOLE
 10
547.27
 20
482.47
 41
0.76
 42
0.76
  0
INSERT
  8
_DRILL
  2
_HOLE
 10
547.27
 20
479.93
 41
0.76
 42
0.76
  0
INSERT
  8
_DRILL
  2
_HOLE
 10
547.27
 20
477.39
 41
0.76
 42
0.76
  0
INSERT
  8
_DRILL
  2
_HOLE
 10
539.33
 20
477.39
 41
0.76
 42
0.76
  0
INSERT
  8
_DRILL
  2
_HOLE
 10
539.33
 20
479.93
 41
0.76
 42
0.76
  0
INSERT
  8
_DRILL
  2
_HOLE
 10
539.33
 20
482.47
 41
0.76
 42
0.76
  0
INSERT
  8
_DRILL
  2
_HOLE
 10
539.33
 20
485.01
 41
0.76
 42
0.76
  0
INSERT
  8
_DRILL
  2
_HOLE
 10
452.66
 20
497.18
 41
1.00
 42
1.00
  0
INSERT
  8
_DRILL
  2
_HOLE
 10
447.58
 20
497.18
 41
1.00
 42
1.00
  0
INSERT
  8
_DRILL
  2
_HOLE
 10
535.16
 20
494.59
 41
1.00
 42
1.00
  0
INSERT
  8
_DRILL
  2
_HOLE
 10
535.16
 20
497.13
 41
1.00
 42
1.00
  0
INSERT
  8
_DRILL
  2
_HOLE
 10
535.16
 20
499.67
 41
1.00
 42
1.00
  0
INSERT
  8
_DRILL
  2
_HOLE
 10
520.57
 20
527.39
 41
1.00
 42
1.00
  0
INSERT
  8
_DRILL
  2
_HOLE
 10
520.57
 20
529.93
 41
1.00
 42
1.00
  0
INSERT
  8
_DRILL
  2
_HOLE
 10
518.03
 20
527.39
 41
1.00
 42
1.00
  0
INSERT
  8
_DRILL
  2
_HOLE
 10
518.03
 20
529.93
 41
1.00
 42
1.00
  0
INSERT
  8
_DRILL
  2
_HOLE
 10
515.49
 20
527.39
 41
1.00
 42
1.00
  0
INSERT
  8
_DRILL
  2
_HOLE
 10
515.49
 20
529.93
 41
1.00
 42
1.00
  0
INSERT
  8
_DRILL
  2
_HOLE
 10
512.95
 20
527.39
 41
1.00
 42
1.00
  0
INSERT
  8
_DRILL
  2
_HOLE
 10
512.95
 20
529.93
 41
1.00
 42
1.00
  0
INSERT
  8
_DRILL
  2
_HOLE
 10
510.41
 20
527.39
 41
1.00
 42
1.00
  0
INSERT
  8
_DRILL
  2
_HOLE
 10
510.41
 20
529.93
 41
1.00
 42
1.00
  0
INSERT
  8
_DRILL
  2
_HOLE
 10
474.06
 20
500.99
 41
1.00
 42
1.00
  0
INSERT
  8
_DRILL
  2
_HOLE
 10
468.98
 20
500.99
 41
1.00
 42
1.00
  0
INSERT
  8
_DRILL
  2
_HOLE
 10
518.41
 20
490.29
 41
1.00
 42
1.00
  0
INSERT
  8
_DRILL
  2
_HOLE
 10
520.95
 20
490.29
 41
1.00
 42
1.00
  0
INSERT
  8
_DRILL
  2
_HOLE
 10
515.87
 20
490.29
 41
1.00
 42
1.00
  0
INSERT
  8
_DRILL
  2
_HOLE
 10
513.33
 20
490.29
 41
1.00
 42
1.00
  0
INSERT
  8
_DRILL
  2
_HOLE
 10
510.79
 20
490.29
 41
1.00
 42
1.00
  0
INSERT
  8
_DRILL
  2
_HOLE
 10
510.79
 20
497.91
 41
1.00
 42
1.00
  0
INSERT
  8
_DRILL
  2
_HOLE
 10
513.33
 20
497.91
 41
1.00
 42
1.00
  0
INSERT
  8
_DRILL
  2
_HOLE
 10
515.87
 20
497.91
 41
1.00
 42
1.00
  0
INSERT
  8
_DRILL
  2
_HOLE
 10
518.41
 20
497.91
 41
1.00
 42
1.00
  0
INSERT
  8
_DRILL
  2
_HOLE
 10
520.95
 20
497.91
 41
1.00
 42
1.00
  0
INSERT
  8
_DRILL
  2
_HOLE
 10
484.26
 20
530.75
 41
1.00
 42
1.00
  0
INSERT
  8
_DRILL
  2
_HOLE
 10
481.72
 20
530.75
 41
1.00
 42
1.00
  0
INSERT
  8
_DRILL
  2
_HOLE
 10
479.18
 20
530.75
 41
1.00
 42
1.00
  0
INSERT
  8
_DRILL
  2
_HOLE
 10
476.64
 20
530.75
 41
1.00
 42
1.00
  0
INSERT
  8
_DRILL
  2
_HOLE
 10
474.10
 20
530.75
 41
1.00
 42
1.00
  0
INSERT
  8
_DRILL
  2
_HOLE
 10
471.56
 20
530.75
 41
1.00
 42
1.00
  0
INSERT
  8
_DRILL
  2
_HOLE
 10
469.02
 20
530.75
 41
1.00
 42
1.00
  0
INSERT
  8
_DRILL
  2
_HOLE
 10
466.48
 20
530.75
 41
1.00
 42
1.00
  0
INSERT
  8
_DRILL
  2
_HOLE
 10
545.87
 20
507.96
 41
1.00
 42
1.00
  0
INSERT
  8
_DRILL
  2
_HOLE
 10
545.87
 20
510.50
 41
1.00
 42
1.00
  0
INSERT
  8
_DRILL
  2
_HOLE
 10
545.87
 20
513.04
 41
1.00
 42
1.00
  0
INSERT
  8
_DRILL
  2
_HOLE
 10
545.87
 20
515.58
 41
1.00
 42
1.00
  0
INSERT
  8
_DRILL
  2
_HOLE
 10
545.87
 20
518.12
 41
1.00
 42
1.00
  0
INSERT
  8
_DRILL
  2
_HOLE
 10
506.36
 20
481.42
 41
1.00
 42
1.00
  0
INSERT
  8
_DRILL
  2
_HOLE
 10
506.36
 20
478.88
 41
1.00
 42
1.00
  0
INSERT
  8
_DRILL
  2
_HOLE
 10
506.36
 20
476.34
 41
1.00
 42
1.00
  0
INSERT
  8
_DRILL
  2
_HOLE
 10
506.36
 20
473.80
 41
1.00
 42
1.00
  0
INSERT
  8
_DRILL
  2
_HOLE
 10
514.20
 20
481.38
 41
1.00
 42
1.00
  0
INSERT
  8
_DRILL
  2
_HOLE
 10
514.20
 20
478.84
 41
1.00
 42
1.00
  0
INSERT
  8
_DRILL
  2
_HOLE
 10
514.20
 20
476.30
 41
1.00
 42
1.00
  0
INSERT
  8
_DRILL
  2
_HOLE
 10
514.20
 20
473.76
 41
1.00
 42
1.00
  0
INSERT
  8
_DRILL
  2
_HOLE
 10
522.08
 20
481.35
 41
1.00
 42
1.00
  0
INSERT
  8
_DRILL
  2
_HOLE
 10
522.08
 20
478.81
 41
1.00
 42
1.00
  0
INSERT
  8
_DRILL
  2
_HOLE
 10
522.08
 20
476.27
 41
1.00
 42
1.00
  0
INSERT
  8
_DRILL
  2
_HOLE
 10
522.08
 20
473.73
 41
1.00
 42
1.00
  0
INSERT
  8
_DRILL
  2
_HOLE
 10
530.24
 20
481.24
 41
1.00
 42
1.00
  0
INSERT
  8
_DRILL
  2
_HOLE
 10
530.24
 20
478.70
 41
1.00
 42
1.00
  0
INSERT
  8
_DRILL
  2
_HOLE
 10
530.24
 20
476.16
 41
1.00
 42
1.00
  0
INSERT
  8
_DRILL
  2
_HOLE
 10
530.24
 20
473.62
 41
1.00
 42
1.00
  0
INSERT
  8
_DRILL
  2
_HOLE
 10
543.48
 20
527.39
 41
1.00
 42
1.00
  0
INSERT
  8
_DRILL
  2
_HOLE
 10
543.48
 20
529.93
 41
1.00
 42
1.00
  0
INSERT
  8
_DRILL
  2
_HOLE
 10
540.94
 20
527.39
 41
1.00
 42
1.00
  0
INSERT
  8
_DRILL
  2
_HOLE
 10
540.94
 20
529.93
 41
1.00
 42
1.00
  0
INSERT
  8
_DRILL
  2
_HOLE
 10
538.40
 20
527.39
 41
1.00
 42
1.00
  0
INSERT
  8
_DRILL
  2
_HOLE
 10
538.40
 20
529.93
 41
1.00
 42
1.00
  0
INSERT
  8
_DRILL
  2
_HOLE
 10
535.86
 20
527.39
 41
1.00
 42
1.00
  0
INSERT
  8
_DRILL
  2
_HOLE
 10
535.86
 20
529.93
 41
1.00
 42
1.00
  0
INSERT
  8
_DRILL
  2
_HOLE
 10
533.32
 20
527.39
 41
1.00
 42
1.00
  0
INSERT
  8
_DRILL
  2
_HOLE
 10
533.32
 20
529.93
 41
1.00
 42
1.00
  0
INSERT
  8
_DRILL
  2
_HOLE
 10
537.82
 20
508.05
 41
1.00
 42
1.00
  0
INSERT
  8
_DRILL
  2
_HOLE
 10
537.82
 20
510.59
 41
1.00
 42
1.00
  0
INSERT
  8
_DRILL
  2
_HOLE
 10
537.82
 20
513.13
 41
1.00
 42
1.00
  0
INSERT
  8
_DRILL
  2
_HOLE
 10
537.82
 20
515.67
 41
1.00
 42
1.00
  0
INSERT
  8
_DRILL
  2
_HOLE
 10
537.82
 20
518.21
 41
1.00
 42
1.00
  0
INSERT
  8
_DRILL
  2
_HOLE
 10
529.23
 20
508.14
 41
1.00
 42
1.00
  0
INSERT
  8
_DRILL
  2
_HOLE
 10
529.23
 20
510.68
 41
1.00
 42
1.00
  0
INSERT
  8
_DRILL
  2
_HOLE
 10
529.23
 20
513.22
 41
1.00
 42
1.00
  0
INSERT
  8
_DRILL
  2
_HOLE
 10
529.23
 20
515.76
 41
1.00
 42
1.00
  0
INSERT
  8
_DRILL
  2
_HOLE
 10
529.23
 20
518.30
 41
1.00
 42
1.00
  0
INSERT
  8
_DRILL
  2
_HOLE
 10
521.46
 20
508.05
 41
1.00
 42
1.00
  0
INSERT
  8
_DRILL
  2
_HOLE
 10
521.46
 20
510.59
 41
1.00
 42
1.00
  0
INSERT
  8
_DRILL
  2
_HOLE
 10
521.46
 20
513.13
 41
1.00
 42
1.00
  0
INSERT
  8
_DRILL
  2
_HOLE
 10
521.46
 20
515.67
 41
1.00
 42
1.00
  0
INSERT
  8
_DRILL
  2
_HOLE
 10
521.46
 20
518.21
 41
1.00
 42
1.00
  0
INSERT
  8
_DRILL
  2
_HOLE
 10
513.77
 20
508.14
 41
1.00
 42
1.00
  0
INSERT
  8
_DRILL
  2
_HOLE
 10
513.77
 20
510.68
 41
1.00
 42
1.00
  0
INSERT
  8
_DRILL
  2
_HOLE
 10
513.77
 20
513.22
 41
1.00
 42
1.00
  0
INSERT
  8
_DRILL
  2
_HOLE
 10
513.77
 20
515.76
 41
1.00
 42
1.00
  0
INSERT
  8
_DRILL
  2
_HOLE
 10
513.77
 20
518.30
 41
1.00
 42
1.00
  0
INSERT
  8
_DRILL
  2
_HOLE
 10
506.40
 20
508.36
 41
1.00
 42
1.00
  0
INSERT
  8
_DRILL
  2
_HOLE
 10
506.40
 20
510.90
 41
1.00
 42
1.00
  0
INSERT
  8
_DRILL
  2
_HOLE
 10
506.40
 20
513.44
 41
1.00
 42
1.00
  0
INSERT
  8
_DRILL
  2
_HOLE
 10
506.40
 20
515.98
 41
1.00
 42
1.00
  0
INSERT
  8
_DRILL
  2
_HOLE
 10
506.40
 20
518.52
 41
1.00
 42
1.00
  0
INSERT
  8
_DRILL
  2
_HOLE
 10
416.88
 20
469.05
 41
0.89
 42
0.89
  0
INSERT
  8
_DRILL
  2
_HOLE
 10
416.88
 20
471.59
 41
0.89
 42
0.89
  0
INSERT
  8
_DRILL
  2
_HOLE
 10
419.42
 20
469.05
 41
0.89
 42
0.89
  0
INSERT
  8
_DRILL
  2
_HOLE
 10
419.42
 20
471.59
 41
0.89
 42
0.89
  0
INSERT
  8
_DRILL
  2
_HOLE
 10
421.96
 20
469.05
 41
0.89
 42
0.89
  0
INSERT
  8
_DRILL
  2
_HOLE
 10
421.96
 20
471.59
 41
0.89
 42
0.89
  0
INSERT
  8
_DRILL
  2
_HOLE
 10
424.50
 20
469.05
 41
0.89
 42
0.89
  0
INSERT
  8
_DRILL
  2
_HOLE
 10
424.50
 20
471.59
 41
0.89
 42
0.89
  0
INSERT
  8
_DRILL
  2
_HOLE
 10
427.04
 20
469.05
 41
0.89
 42
0.89
  0
INSERT
  8
_DRILL
  2
_HOLE
 10
427.04
 20
471.59
 41
0.89
 42
0.89
  0
INSERT
  8
_DRILL
  2
_HOLE
 10
429.58
 20
469.05
 41
0.89
 42
0.89
  0
INSERT
  8
_DRILL
  2
_HOLE
 10
429.58
 20
471.59
 41
0.89
 42
0.89
  0
INSERT
  8
_DRILL
  2
_HOLE
 10
432.12
 20
469.05
 41
0.89
 42
0.89
  0
INSERT
  8
_DRILL
  2
_HOLE
 10
432.12
 20
471.59
 41
0.89
 42
0.89
  0
INSERT
  8
_DRILL
  2
_HOLE
 10
434.66
 20
469.05
 41
0.89
 42
0.89
  0
INSERT
  8
_DRILL
  2
_HOLE
 10
434.66
 20
471.59
 41
0.89
 42
0.89
  0
INSERT
  8
_DRILL
  2
_HOLE
 10
437.20
 20
469.05
 41
0.89
 42
0.89
  0
INSERT
  8
_DRILL
  2
_HOLE
 10
437.20
 20
471.59
 41
0.89
 42
0.89
  0
INSERT
  8
_DRILL
  2
_HOLE
 10
439.74
 20
469.05
 41
0.89
 42
0.89
  0
INSERT
  8
_DRILL
  2
_HOLE
 10
439.74
 20
471.59
 41
0.89
 42
0.89
  0
INSERT
  8
_DRILL
  2
_HOLE
 10
442.28
 20
469.05
 41
0.89
 42
0.89
  0
INSERT
  8
_DRILL
  2
_HOLE
 10
442.28
 20
471.59
 41
0.89
 42
0.89
  0
INSERT
  8
_DRILL
  2
_HOLE
 10
444.82
 20
469.05
 41
0.89
 42
0.89
  0
INSERT
  8
_DRILL
  2
_HOLE
 10
444.82
 20
471.59
 41
0.89
 42
0.89
  0
INSERT
  8
_DRILL
  2
_HOLE
 10
447.36
 20
469.05
 41
0.89
 42
0.89
  0
INSERT
  8
_DRILL
  2
_HOLE
 10
447.36
 20
471.59
 41
0.89
 42
0.89
  0
INSERT
  8
_DRILL
  2
_HOLE
 10
449.90
 20
469.05
 41
0.89
 42
0.89
  0
INSERT
  8
_DRILL
  2
_HOLE
 10
449.90
 20
471.59
 41
0.89
 42
0.89
  0
INSERT
  8
_DRILL
  2
_HOLE
 10
452.44
 20
469.05
 41
0.89
 42
0.89
  0
INSERT
  8
_DRILL
  2
_HOLE
 10
452.44
 20
471.59
 41
0.89
 42
0.89
  0
INSERT
  8
_DRILL
  2
_HOLE
 10
454.98
 20
469.05
 41
0.89
 42
0.89
  0
INSERT
  8
_DRILL
  2
_HOLE
 10
454.98
 20
471.59
 41
0.89
 42
0.89
  0
INSERT
  8
_DRILL
  2
_HOLE
 10
457.52
 20
469.05
 41
0.89
 42
0.89
  0
INSERT
  8
_DRILL
  2
_HOLE
 10
457.52
 20
471.59
 41
0.89
 42
0.89
  0
INSERT
  8
_DRILL
  2
_HOLE
 10
460.06
 20
469.05
 41
0.89
 42
0.89
  0
INSERT
  8
_DRILL
  2
_HOLE
 10
460.06
 20
471.59
 41
0.89
 42
0.89
  0
INSERT
  8
_DRILL
  2
_HOLE
 10
462.60
 20
469.05
 41
0.89
 42
0.89
  0
INSERT
  8
_DRILL
  2
_HOLE
 10
462.60
 20
471.59
 41
0.89
 42
0.89
  0
INSERT
  8
_DRILL
  2
_HOLE
 10
416.88
 20
527.05
 41
0.89
 42
0.89
  0
INSERT
  8
_DRILL
  2
_HOLE
 10
416.88
 20
529.59
 41
0.89
 42
0.89
  0
INSERT
  8
_DRILL
  2
_HOLE
 10
419.42
 20
527.05
 41
0.89
 42
0.89
  0
INSERT
  8
_DRILL
  2
_HOLE
 10
419.42
 20
529.59
 41
0.89
 42
0.89
  0
INSERT
  8
_DRILL
  2
_HOLE
 10
421.96
 20
527.05
 41
0.89
 42
0.89
  0
INSERT
  8
_DRILL
  2
_HOLE
 10
421.96
 20
529.59
 41
0.89
 42
0.89
  0
INSERT
  8
_DRILL
  2
_HOLE
 10
424.50
 20
527.05
 41
0.89
 42
0.89
  0
INSERT
  8
_DRILL
  2
_HOLE
 10
424.50
 20
529.59
 41
0.89
 42
0.89
  0
INSERT
  8
_DRILL
  2
_HOLE
 10
427.04
 20
527.05
 41
0.89
 42
0.89
  0
INSERT
  8
_DRILL
  2
_HOLE
 10
427.04
 20
529.59
 41
0.89
 42
0.89
  0
INSERT
  8
_DRILL
  2
_HOLE
 10
429.58
 20
527.05
 41
0.89
 42
0.89
  0
INSERT
  8
_DRILL
  2
_HOLE
 10
429.58
 20
529.59
 41
0.89
 42
0.89
  0
INSERT
  8
_DRILL
  2
_HOLE
 10
432.12
 20
527.05
 41
0.89
 42
0.89
  0
INSERT
  8
_DRILL
  2
_HOLE
 10
432.12
 20
529.59
 41
0.89
 42
0.89
  0
INSERT
  8
_DRILL
  2
_HOLE
 10
434.66
 20
527.05
 41
0.89
 42
0.89
  0
INSERT
  8
_DRILL
  2
_HOLE
 10
434.66
 20
529.59
 41
0.89
 42
0.89
  0
INSERT
  8
_DRILL
  2
_HOLE
 10
437.20
 20
527.05
 41
0.89
 42
0.89
  0
INSERT
  8
_DRILL
  2
_HOLE
 10
437.20
 20
529.59
 41
0.89
 42
0.89
  0
INSERT
  8
_DRILL
  2
_HOLE
 10
439.74
 20
527.05
 41
0.89
 42
0.89
  0
INSERT
  8
_DRILL
  2
_HOLE
 10
439.74
 20
529.59
 41
0.89
 42
0.89
  0
INSERT
  8
_DRILL
  2
_HOLE
 10
442.28
 20
527.05
 41
0.89
 42
0.89
  0
INSERT
  8
_DRILL
  2
_HOLE
 10
442.28
 20
529.59
 41
0.89
 42
0.89
  0
INSERT
  8
_DRILL
  2
_HOLE
 10
444.82
 20
527.05
 41
0.89
 42
0.89
  0
INSERT
  8
_DRILL
  2
_HOLE
 10
444.82
 20
529.59
 41
0.89
 42
0.89
  0
INSERT
  8
_DRILL
  2
_HOLE
 10
447.36
 20
527.05
 41
0.89
 42
0.89
  0
INSERT
  8
_DRILL
  2
_HOLE
 10
447.36
 20
529.59
 41
0.89
 42
0.89
  0
INSERT
  8
_DRILL
  2
_HOLE
 10
449.90
 20
527.05
 41
0.89
 42
0.89
  0
INSERT
  8
_DRILL
  2
_HOLE
 10
449.90
 20
529.59
 41
0.89
 42
0.89
  0
INSERT
  8
_DRILL
  2
_HOLE
 10
452.44
 20
527.05
 41
0.89
 42
0.89
  0
INSERT
  8
_DRILL
  2
_HOLE
 10
452.44
 20
529.59
 41
0.89
 42
0.89
  0
INSERT
  8
_DRILL
  2
_HOLE
 10
454.98
 20
527.05
 41
0.89
 42
0.89
  0
INSERT
  8
_DRILL
  2
_HOLE
 10
454.98
 20
529.59
 41
0.89
 42
0.89
  0
INSERT
  8
_DRILL
  2
_HOLE
 10
457.52
 20
527.05
 41
0.89
 42
0.89
  0
INSERT
  8
_DRILL
  2
_HOLE
 10
457.52
 20
529.59
 41
0.89
 42
0.89
  0
INSERT
  8
_DRILL
  2
_HOLE
 10
460.06
 20
527.05
 41
0.89
 42
0.89
  0
INSERT
  8
_DRILL
  2
_HOLE
 10
460.06
 20
529.59
 41
0.89
 42
0.89
  0
INSERT
  8
_DRILL
  2
_HOLE
 10
462.60
 20
527.05
 41
0.89
 42
0.89
  0
INSERT
  8
_DRILL
  2
_HOLE
 10
462.60
 20
529.59
 41
0.89
 42
0.89
  0
INSERT
  8
_DRILL
  2
_HOLE
 10
408.59
 20
494.81
 41
3.00
 42
3.00
  0
INSERT
  8
_DRILL
  2
_HOLE
 10
408.52
 20
515.36
 41
1.00
 42
1.00
  0
INSERT
  8
_DRILL
  2
_HOLE
 10
408.52
 20
517.90
 41
1.00
 42
1.00
  0
INSERT
  8
_DRILL
  2
_HOLE
 10
408.52
 20
520.44
 41
1.00
 42
1.00
  0
INSERT
  8
_DRILL
  2
_HOLE
 10
408.52
 20
522.98
 41
1.00
 42
1.00
  0
INSERT
  8
_DRILL
  2
_HOLE
 10
408.52
 20
525.52
 41
1.00
 42
1.00
  0
INSERT
  8
_DRILL
  2
_HOLE
 10
408.48
 20
504.91
 41
3.00
 42
3.00
  0
INSERT
  8
_DRILL
  2
_HOLE
 10
407.81
 20
460.60
 41
3.20
 42
3.20
  0
INSERT
  8
_DRILL
  2
_HOLE
 10
407.81
 20
537.90
 41
3.20
 42
3.20
  0
INSERT
  8
_DRILL
  2
_HOLE
 10
548.92
 20
460.60
 41
3.20
 42
3.20
  0
INSERT
  8
_DRILL
  2
_HOLE
 10
548.92
 20
537.90
 41
3.20
 42
3.20
  0
ENDSEC
  0
EOF
