G04 EasyPC Gerber Version 21.0.3 Build 4286 *
G04 #@! TF.Part,Single*
G04 #@! TF.FileFunction,Soldermask,Bot *
G04 #@! TF.FilePolarity,Negative *
%FSLAX34Y34*%
%MOIN*%
G04 #@! TA.AperFunction,ComponentPad*
%ADD120R,0.05567X0.05567*%
%ADD122R,0.08677X0.08677*%
%ADD121C,0.05567*%
%ADD116C,0.07000*%
%ADD86C,0.07693*%
%ADD123C,0.08677*%
%ADD89C,0.28559*%
X0Y0D02*
D02*
D86*
X5227Y25785D03*
Y26785D03*
Y27785D03*
Y28785D03*
Y29785D03*
X20605Y18628D03*
X22605D03*
X28046Y31844D03*
X29028Y20127D03*
X29046Y31844D03*
X30046D03*
X31028Y20127D03*
X31046Y31844D03*
X32046D03*
X33046D03*
X34046D03*
X35046D03*
X43746Y9423D03*
Y10423D03*
Y11423D03*
Y12423D03*
X43762Y23031D03*
Y24031D03*
Y25031D03*
Y26031D03*
Y27031D03*
X45341Y30522D03*
Y31522D03*
X45491Y15915D03*
Y18915D03*
X46341Y30522D03*
Y31522D03*
X46491Y15915D03*
Y18915D03*
X46664Y22944D03*
Y23944D03*
Y24944D03*
Y25944D03*
Y26944D03*
X46833Y9407D03*
Y10407D03*
Y11407D03*
Y12407D03*
X47341Y30522D03*
Y31522D03*
X47491Y15915D03*
Y18915D03*
X48341Y30522D03*
Y31522D03*
X48491Y15915D03*
Y18915D03*
X49341Y30522D03*
Y31522D03*
X49491Y15915D03*
Y18915D03*
X49691Y22906D03*
Y23906D03*
Y24906D03*
Y25906D03*
Y26906D03*
X49935Y9395D03*
Y10395D03*
Y11395D03*
Y12395D03*
X52750Y22944D03*
Y23944D03*
Y24944D03*
Y25944D03*
Y26944D03*
X53148Y9352D03*
Y10352D03*
Y11352D03*
Y12352D03*
X54361Y30521D03*
Y31521D03*
X55085Y17608D03*
Y18608D03*
Y19608D03*
X55361Y30521D03*
Y31521D03*
X56132Y22906D03*
Y23906D03*
Y24906D03*
Y25906D03*
Y26906D03*
X56361Y30521D03*
Y31521D03*
X57361Y30521D03*
Y31521D03*
X58361Y30521D03*
Y31521D03*
X59302Y22872D03*
Y23872D03*
Y24872D03*
Y25872D03*
Y26872D03*
D02*
D89*
X4947Y4226D03*
Y34659D03*
X5211Y21672D03*
X5254Y17693D03*
X60502Y4226D03*
Y34659D03*
D02*
D116*
X8517Y6364D03*
Y7364D03*
Y30388D03*
Y31388D03*
X9517Y6364D03*
Y7364D03*
Y30388D03*
Y31388D03*
X10517Y6364D03*
Y7364D03*
Y30388D03*
Y31388D03*
X11517Y6364D03*
Y7364D03*
Y30388D03*
Y31388D03*
X12517Y6364D03*
Y7364D03*
Y30388D03*
Y31388D03*
X13517Y6364D03*
Y7364D03*
Y30388D03*
Y31388D03*
X14517Y6364D03*
Y7364D03*
Y30388D03*
Y31388D03*
X15517Y6364D03*
Y7364D03*
Y30388D03*
Y31388D03*
X16517Y6364D03*
Y7364D03*
Y30388D03*
Y31388D03*
X17517Y6364D03*
Y7364D03*
Y30388D03*
Y31388D03*
X18517Y6364D03*
Y7364D03*
Y30388D03*
Y31388D03*
X19517Y6364D03*
Y7364D03*
Y30388D03*
Y31388D03*
X20517Y6364D03*
Y7364D03*
Y30388D03*
Y31388D03*
X21517Y6364D03*
Y7364D03*
Y30388D03*
Y31388D03*
X22517Y6364D03*
Y7364D03*
Y30388D03*
Y31388D03*
X23517Y6364D03*
Y7364D03*
Y30388D03*
Y31388D03*
X24517Y6364D03*
Y7364D03*
Y30388D03*
Y31388D03*
X25517Y6364D03*
Y7364D03*
Y30388D03*
Y31388D03*
X26517Y6364D03*
Y7364D03*
Y30388D03*
Y31388D03*
D02*
D120*
X56727Y13836D03*
D02*
D121*
Y10836D03*
Y11836D03*
Y12836D03*
X59853Y10836D03*
Y11836D03*
Y12836D03*
Y13836D03*
D02*
D122*
X58861Y18772D03*
D02*
D123*
Y16772D03*
X0Y0D02*
M02*
