G04 EasyPC Gerber Version 21.0.3 Build 4286 *
G04 #@! TF.Part,Single*
G04 #@! TF.FileFunction,Copper,L2,Bot *
G04 #@! TF.FilePolarity,Positive *
%FSLAX34Y34*%
%MOIN*%
G04 #@! TA.AperFunction,ComponentPad*
%ADD111R,0.04567X0.04567*%
%ADD113R,0.07677X0.07677*%
G04 #@! TD.AperFunction*
%ADD13C,0.00500*%
%ADD16C,0.01000*%
%ADD74C,0.01500*%
%ADD19C,0.01575*%
G04 #@! TA.AperFunction,WasherPad*
%ADD21C,0.02362*%
G04 #@! TA.AperFunction,ComponentPad*
%ADD112C,0.04567*%
G04 #@! TA.AperFunction,ViaPad*
%ADD78C,0.04800*%
%ADD115C,0.05600*%
G04 #@! TA.AperFunction,ComponentPad*
%ADD107C,0.06000*%
%ADD11C,0.06693*%
%ADD114C,0.07677*%
G04 #@! TA.AperFunction,WasherPad*
%ADD10C,0.27559*%
X0Y0D02*
D02*
D10*
X4947Y4226D03*
Y34659D03*
X5211Y21672D03*
X5254Y17693D03*
X60502Y4226D03*
Y34659D03*
D02*
D11*
X5227Y25785D03*
Y26785D03*
Y27785D03*
Y28785D03*
Y29785D03*
X20605Y18628D03*
X22605D03*
X28046Y31844D03*
X29028Y20127D03*
X29046Y31844D03*
X30046D03*
X31028Y20127D03*
X31046Y31844D03*
X32046D03*
X33046D03*
X34046D03*
X35046D03*
X43746Y9423D03*
Y10423D03*
Y11423D03*
Y12423D03*
X43762Y23031D03*
Y24031D03*
Y25031D03*
Y26031D03*
Y27031D03*
X45341Y30522D03*
Y31522D03*
X45491Y15915D03*
Y18915D03*
X46341Y30522D03*
Y31522D03*
X46491Y15915D03*
Y18915D03*
X46664Y22944D03*
Y23944D03*
Y24944D03*
Y25944D03*
Y26944D03*
X46833Y9407D03*
Y10407D03*
Y11407D03*
Y12407D03*
X47341Y30522D03*
Y31522D03*
X47491Y15915D03*
Y18915D03*
X48341Y30522D03*
Y31522D03*
X48491Y15915D03*
Y18915D03*
X49341Y30522D03*
Y31522D03*
X49491Y15915D03*
Y18915D03*
X49691Y22906D03*
Y23906D03*
Y24906D03*
Y25906D03*
Y26906D03*
X49935Y9395D03*
Y10395D03*
Y11395D03*
Y12395D03*
X52750Y22944D03*
Y23944D03*
Y24944D03*
Y25944D03*
Y26944D03*
X53148Y9352D03*
Y10352D03*
Y11352D03*
Y12352D03*
X54361Y30521D03*
Y31521D03*
X55085Y17608D03*
Y18608D03*
Y19608D03*
X55361Y30521D03*
Y31521D03*
X56132Y22906D03*
Y23906D03*
Y24906D03*
Y25906D03*
Y26906D03*
X56361Y30521D03*
Y31521D03*
X57361Y30521D03*
Y31521D03*
X58361Y30521D03*
Y31521D03*
X59302Y22872D03*
Y23872D03*
Y24872D03*
Y25872D03*
Y26872D03*
D02*
D13*
X61815Y33928D02*
G75*
G02X58999Y34659I-1313J731D01*
G01*
G75*
G02X59717Y35941I1503*
G01*
X5732*
G75*
G02X6450Y34659I-785J-1281*
G01*
G75*
G02X3575Y34046I-1503*
G01*
Y4840*
G75*
G02X6450Y4226I1372J-613*
G01*
G75*
G02X5706Y2929I-1503*
G01*
X59743*
G75*
G02X58999Y4226I759J1297*
G01*
G75*
G02X61815Y4957I1503*
G01*
Y33928*
X6519Y23514D02*
G75*
G02X7249I365D01*
G01*
G75*
G02X7047Y23187I-365*
G01*
Y19916*
G75*
G02X7249Y19589I-163J-327*
G01*
G75*
G02X6519I-365*
G01*
G75*
G02X6721Y19916I365*
G01*
Y23187*
G75*
G02X6519Y23514I163J327*
G01*
X55524Y31951D02*
G75*
G02X55820Y31521I-163J-430D01*
G01*
G75*
G02X54901I-460*
G01*
G75*
G02X55198Y31951I460*
G01*
Y33096*
X53301Y34992*
X38381*
G75*
G02X38519Y34706I-227J-286*
G01*
G75*
G02X37827Y34543I-365*
G01*
X11601*
X9680Y32622*
Y31780*
G75*
G02X9517Y30963I-163J-393*
G01*
G75*
G02X9354Y31780J425*
G01*
Y32690*
G75*
G02X9402Y32805I163*
G01*
X11418Y34822*
G75*
G02X11534Y34869I115J-115*
G01*
X37827*
G75*
G02X37927Y34992I327J-163*
G01*
X9814*
X7849Y33027*
Y30766*
X8064Y30551*
X8125*
G75*
G02X8942Y30388I393J-163*
G01*
G75*
G02X8125Y30225I-425*
G01*
X7997*
G75*
G02X7881Y30272J163*
G01*
X7571Y30583*
G75*
G02X7523Y30699I115J115*
G01*
Y33094*
G75*
G02X7571Y33210I163*
G01*
X9631Y35270*
G75*
G02X9746Y35318I115J-115*
G01*
X53368*
G75*
G02X53484Y35270J-163*
G01*
X55476Y33279*
G75*
G02X55524Y33163I-115J-115*
G01*
Y31951*
X53901Y30521D02*
G75*
G02X54820I460D01*
G01*
G75*
G02X54351Y30062I-460*
G01*
X51723Y27431*
G75*
G02X51597Y27378I-126J126*
G01*
X49155*
X48594Y26817*
Y20442*
G75*
G02X48781Y20124I-179J-318*
G01*
G75*
G02X48051I-365*
G01*
G75*
G02X48237Y20442I365*
G01*
Y26891*
G75*
G02X48290Y27018I179*
G01*
X48954Y27683*
G75*
G02X49081Y27736I127J-126*
G01*
X51523*
X54009Y30225*
G75*
G02X53901Y30521I352J296*
G01*
X52291Y23944D02*
G75*
G02X53210I460D01*
G01*
G75*
G02X52447Y23598I-460*
G01*
X51705Y22855*
Y20040*
G75*
G02X52324Y19779I254J-262*
G01*
G75*
G02X52122Y19452I-365*
G01*
Y15257*
G75*
G02X52324Y14931I-163J-327*
G01*
G75*
G02X51705Y14669I-365*
G01*
Y14513*
G75*
G02X51907Y14187I-163J-327*
G01*
G75*
G02X51177I-365*
G01*
G75*
G02X51379Y14513I365*
G01*
Y14726*
G75*
G02X50743Y14970I-271J244*
G01*
G75*
G02X50945Y15297I365*
G01*
Y22699*
X50038Y23605*
G75*
G02X49232Y23906I-347J301*
G01*
G75*
G02X50148Y23956I460*
G01*
X51223Y22882*
G75*
G02X51271Y22766I-115J-115*
G01*
Y15297*
G75*
G02X51379Y15215I-163J-327*
G01*
Y22923*
G75*
G02X51427Y23038I163*
G01*
X52292Y23904*
G75*
G02X52291Y23944I458J39*
G01*
Y22944D02*
G75*
G02X53210I460D01*
G01*
G75*
G02X52291I-460*
G01*
X52688Y10352D02*
G75*
G02X53608I460D01*
G01*
G75*
G02X52688I-460*
G01*
Y11352D02*
G75*
G02X53608I460D01*
G01*
G75*
G02X52688I-460*
G01*
Y12352D02*
G75*
G02X53608I460D01*
G01*
G75*
G02X52688I-460*
G01*
X56642Y17261D02*
G75*
G02X56828Y16943I-179J-318D01*
G01*
G75*
G02X56098I-365*
G01*
G75*
G02X56284Y17261I365*
G01*
Y21161*
X52926Y24519*
G75*
G02X52291Y24944I-176J425*
G01*
G75*
G02X53210I460*
G01*
G75*
G02X53177Y24774I-460J0*
G01*
X56589Y21362*
G75*
G02X56642Y21235I-126J-127*
G01*
Y17261*
X60665Y22845D02*
G75*
G02X60713Y22730I-115J-115D01*
G01*
Y9689*
G75*
G02X60665Y9573I-163*
G01*
X56691Y5599*
G75*
G02X56575Y5551I-115J115*
G01*
X54838*
G75*
G02X54953Y5285I-250J-266*
G01*
G75*
G02X54240Y5175I-365*
G01*
X22475*
G75*
G02X22359Y5223J163*
G01*
X21629Y5954*
G75*
G02X21092Y6364I-112J410*
G01*
G75*
G02X21942I425*
G01*
G75*
G02X21888Y6156I-425J0*
G01*
X22542Y5501*
X54294*
G75*
G02X54338Y5551I294J-216*
G01*
X25135*
G75*
G02X25020Y5599J163*
G01*
X24657Y5962*
G75*
G02X24092Y6364I-139J401*
G01*
G75*
G02X24942I425*
G01*
G75*
G02X24900Y6180I-425*
G01*
X25203Y5877*
X52273*
G75*
G02X52180Y5985I226J287*
G01*
X27991*
G75*
G02X27819Y6116J179*
G01*
X27271Y6664*
X26818*
G75*
G02X26517Y5939I-300J-301*
G01*
G75*
G02X26217Y6664J425*
G01*
X25818*
G75*
G02X25517Y5939I-300J-301*
G01*
G75*
G02X25217Y6664J425*
G01*
X25034*
G75*
G02X24907Y6717I0J179*
G01*
X24660Y6964*
G75*
G02X24092Y7364I-143J400*
G01*
G75*
G02X24942I425*
G01*
G75*
G02X24915Y7215I-425J0*
G01*
X25108Y7022*
X25265*
G75*
G02X25354Y7756I252J342*
G01*
Y7894*
G75*
G02X25517Y8057I163*
G01*
X28176*
G75*
G02X28339Y7894J-163*
G01*
Y6766*
X50826*
G75*
G02X50945Y7324I282J232*
G01*
Y8526*
G75*
G02X50959Y9185I163J327*
G01*
X50344*
G75*
G02X49509Y9225I-409J210*
G01*
X47255*
G75*
G02X46410Y9227I-422J182*
G01*
X44167Y9238*
G75*
G02X43318Y9256I-421J185*
G01*
X42606*
G75*
G02X42488Y9305I0J167*
G01*
X42018Y9775*
G75*
G02X41969Y9892I118J118*
G01*
Y10598*
X40473Y12095*
X28255*
G75*
G02X28136Y12144I0J167*
G01*
X23562Y16718*
G75*
G02X23513Y16836I118J118*
G01*
Y16951*
G75*
G02X23274Y17321I167J369*
G01*
G75*
G02X24084I405*
G01*
G75*
G02X23846Y16951I-405*
G01*
Y16905*
X28323Y12428*
X40541*
G75*
G02X40660Y12379I0J-167*
G01*
X42254Y10785*
G75*
G02X42303Y10667I-118J-118*
G01*
Y9961*
X42675Y9590*
X43318*
G75*
G02X44169Y9603I428J-167*
G01*
X46412Y9592*
G75*
G02X47255Y9590I421J-185*
G01*
X49519*
G75*
G02X50378Y9519I417J-194*
G01*
X52720*
G75*
G02X53576I428J-167*
G01*
X54106*
X54900Y10312*
G75*
G02X54940Y10376I158J-55*
G01*
X56374Y11810*
G75*
G02X56373Y11836I352J26*
G01*
G75*
G02X57080I353*
G01*
G75*
G02X56560Y11525I-353J0*
G01*
X55215Y10179*
G75*
G02X55175Y10116I-158J55*
G01*
X54293Y9234*
G75*
G02X54175Y9185I-118J118*
G01*
X53576*
G75*
G02X52720I-428J167*
G01*
X51256*
G75*
G02X51271Y8526I-149J-333*
G01*
Y7324*
G75*
G02X51390Y6766I-163J-327*
G01*
X54991*
G75*
G02X55682Y6603I327J-163*
G01*
G75*
G02X54991Y6440I-365*
G01*
X52737*
G75*
G02X52724Y5877I-239J-276*
G01*
X56508*
X60387Y9756*
Y22663*
X59558Y23491*
G75*
G02X58842Y23872I-257J381*
G01*
G75*
G02X59761I460*
G01*
G75*
G02X59748Y23762I-460J0*
G01*
X60665Y22845*
X56373Y10836D02*
G75*
G02X57080I353D01*
G01*
G75*
G02X56373I-353*
G01*
Y12836D02*
G75*
G02X57080I353D01*
G01*
G75*
G02X56373I-353*
G01*
Y14190D02*
X57080D01*
Y13483*
X56373*
Y14190*
X54625Y17608D02*
G75*
G02X55545I460D01*
G01*
G75*
G02X54625I-460*
G01*
Y18608D02*
G75*
G02X55545I460D01*
G01*
G75*
G02X54625I-460*
G01*
Y19608D02*
G75*
G02X55545I460D01*
G01*
G75*
G02X54625I-460*
G01*
X52291Y25944D02*
G75*
G02X53210I460D01*
G01*
G75*
G02X52291I-460*
G01*
Y26944D02*
G75*
G02X53210I460D01*
G01*
G75*
G02X52291I-460*
G01*
X49232Y22906D02*
G75*
G02X50151I460D01*
G01*
G75*
G02X49232I-460*
G01*
Y24906D02*
G75*
G02X50151I460D01*
G01*
G75*
G02X49232I-460*
G01*
Y25906D02*
G75*
G02X50151I460D01*
G01*
G75*
G02X49232I-460*
G01*
Y26906D02*
G75*
G02X50151I460D01*
G01*
G75*
G02X49232I-460*
G01*
X49031Y15915D02*
G75*
G02X49950I460D01*
G01*
G75*
G02X49031I-460*
G01*
X49476Y10395D02*
G75*
G02X50395I460D01*
G01*
G75*
G02X49476I-460*
G01*
Y11395D02*
G75*
G02X50395I460D01*
G01*
G75*
G02X49476I-460*
G01*
Y12395D02*
G75*
G02X50395I460D01*
G01*
G75*
G02X49476I-460*
G01*
X49031Y18915D02*
G75*
G02X49950I460D01*
G01*
G75*
G02X49031I-460*
G01*
X53901Y31521D02*
G75*
G02X54820I460D01*
G01*
G75*
G02X53901I-460*
G01*
X54901Y30521D02*
G75*
G02X55820I460D01*
G01*
G75*
G02X54901I-460*
G01*
X55673Y22906D02*
G75*
G02X56592I460D01*
G01*
G75*
G02X55673I-460*
G01*
Y23906D02*
G75*
G02X56592I460D01*
G01*
G75*
G02X55673I-460*
G01*
Y24906D02*
G75*
G02X56592I460D01*
G01*
G75*
G02X55673I-460*
G01*
Y25906D02*
G75*
G02X56592I460D01*
G01*
G75*
G02X55673I-460*
G01*
Y26906D02*
G75*
G02X56592I460D01*
G01*
G75*
G02X55673I-460*
G01*
X52078Y33891D02*
G75*
G02X52808I365D01*
G01*
G75*
G02X52606Y33565I-365*
G01*
Y32403*
G75*
G02X52808Y32076I-163J-327*
G01*
G75*
G02X52078I-365*
G01*
G75*
G02X52280Y32403I365*
G01*
Y33565*
G75*
G02X52078Y33891I163J327*
G01*
X51286Y32010D02*
G75*
G02X51339Y31884I-126J-127D01*
G01*
Y30163*
G75*
G02X51286Y30036I-179*
G01*
X47965Y26715*
Y20258*
G75*
G02X47912Y20131I-179*
G01*
X46902Y19121*
G75*
G02X46491Y18455I-411J-206*
G01*
G75*
G02Y19375J460*
G01*
G75*
G02X46629Y19353J-460*
G01*
X47607Y20332*
Y21486*
G75*
G02X46909Y21636I-333J149*
G01*
G75*
G02X47111Y21962I365*
G01*
Y22838*
G75*
G02X46204Y22944I-447J106*
G01*
G75*
G02X47111Y23050I460*
G01*
Y23317*
X46886Y23542*
G75*
G02X46204Y23944I-223J402*
G01*
G75*
G02X47123I460*
G01*
G75*
G02X47098Y23792I-460J0*
G01*
X47389Y23500*
G75*
G02X47437Y23385I-115J-115*
G01*
Y21962*
G75*
G02X47607Y21785I-163J-327*
G01*
Y26789*
G75*
G02X47660Y26916I179*
G01*
X48695Y27951*
G75*
G02X48620Y27933I-75J145*
G01*
X43174*
X40734Y25493*
Y21373*
G75*
G02X40936Y21047I-163J-327*
G01*
G75*
G02X40248Y20877I-365*
G01*
G75*
G02X39582Y21084I-301J207*
G01*
G75*
G02X39768Y21402I365*
G01*
Y25411*
G75*
G02X39821Y25538I179*
G01*
X44017Y29734*
G75*
G02X44144Y29787I127J-126*
G01*
X44357*
X44916Y30346*
G75*
G02X44881Y30522I425J176*
G01*
G75*
G02X45801I460*
G01*
G75*
G02X45171Y30095I-460*
G01*
X44558Y29482*
G75*
G02X44431Y29429I-126J126*
G01*
X44218*
X43028Y28239*
G75*
G02X43107Y28259I79J-142*
G01*
X48553*
X49910Y29616*
Y31931*
G75*
G02X50186Y32605I163J327*
G01*
X49015Y33776*
X12978*
X11181Y31979*
Y31648*
G75*
G02X11942Y31388I336J-260*
G01*
G75*
G02X11181Y31127I-425*
G01*
Y30868*
G75*
G02X11128Y30741I-179J0*
G01*
X10917Y30532*
G75*
G02X10517Y29963I-400J-144*
G01*
G75*
G02Y30813J425*
G01*
G75*
G02X10665Y30786I0J-425*
G01*
X10824Y30942*
Y31093*
G75*
G02X10092Y31388I-306J294*
G01*
G75*
G02X10824Y31682I425*
G01*
Y32053*
G75*
G02X10876Y32179I179*
G01*
X12777Y34081*
G75*
G02X12904Y34133I127J-126*
G01*
X49089*
G75*
G02X49216Y34081J-179*
G01*
X51286Y32010*
X48031Y15915D02*
G75*
G02X48950I460D01*
G01*
G75*
G02X48031I-460*
G01*
Y18915D02*
G75*
G02X48950I460D01*
G01*
G75*
G02X48031I-460*
G01*
X47031D02*
G75*
G02X47950I460D01*
G01*
G75*
G02X47654Y18485I-460*
G01*
Y17954*
G75*
G02X47606Y17839I-163*
G01*
X46106Y16339*
G75*
G02X45991Y16291I-115J115*
G01*
X45754*
G75*
G02X45491Y15455I-264J-376*
G01*
G75*
G02X45419Y15461I0J460*
G01*
X44660Y14702*
G75*
G02X44534Y14650I-127J126*
G01*
X42175*
X42566Y14259*
X44005*
G75*
G02X44121Y14211J-163*
G01*
X46215Y12117*
G75*
G02X46263Y12002I-115J-115*
G01*
Y11570*
X46403*
G75*
G02X47293Y11407I430J-163*
G01*
G75*
G02X46403Y11244I-460*
G01*
X46100*
G75*
G02X45937Y11407J163*
G01*
Y11934*
X43938Y13933*
X42498*
G75*
G02X42383Y13981J163*
G01*
X33627Y22737*
G75*
G02X33579Y22852I115J115*
G01*
Y23943*
G75*
G02X33377Y24269I163J327*
G01*
G75*
G02X34001Y24527I365*
G01*
Y24888*
X33572Y25317*
G75*
G02X33576Y25265I-361J-51*
G01*
G75*
G02X33374Y24939I-365*
G01*
Y22975*
X42568Y13781*
X43903*
G75*
G02X44018Y13733J-163*
G01*
X45108Y12644*
G75*
G02X45155Y12528I-115J-115*
G01*
Y11646*
G75*
G02X45108Y11531I-163*
G01*
X44172Y10596*
G75*
G02X43746Y9963I-426J-173*
G01*
G75*
G02Y10883J460*
G01*
G75*
G02X43950Y10835J-460*
G01*
X44829Y11714*
Y12461*
X44658Y12632*
G75*
G02X44661Y12599I-160J-33*
G01*
Y11998*
G75*
G02X44614Y11882I-163*
G01*
X44203Y11472*
G75*
G02X44206Y11423I-457J-49*
G01*
G75*
G02X43287I-460*
G01*
G75*
G02X44044Y11774I460*
G01*
X44335Y12065*
Y12532*
X43977Y12890*
X42609*
G75*
G02X42493Y12938J163*
G01*
X42031Y13400*
G75*
G02X42079Y13219I-317J-181*
G01*
G75*
G02X41349I-365*
G01*
G75*
G02X41363Y13318I365J0*
G01*
X32798Y21881*
X23655*
G75*
G02X23528Y21934J179*
G01*
X22201Y23261*
X20631*
G75*
G02X20504Y23313I0J179*
G01*
X19126Y24691*
G75*
G02X19084Y24758I126J126*
G01*
X15765Y28077*
G75*
G02X15666Y28127I28J177*
G01*
X13876Y29917*
G75*
G02X13824Y30044I126J127*
G01*
Y30093*
G75*
G02X13092Y30388I-306J294*
G01*
G75*
G02X13824Y30682I425*
G01*
Y30937*
X13737Y31024*
G75*
G02X13092Y31388I-220J364*
G01*
G75*
G02X13942I425*
G01*
G75*
G02X13938Y31329I-425*
G01*
X14129Y31138*
G75*
G02X14181Y31012I-126J-127*
G01*
Y30648*
G75*
G02X14942Y30388I336J-260*
G01*
G75*
G02X14181Y30127I-425*
G01*
Y30118*
X15869Y28430*
G75*
G02X15968Y28380I-28J-177*
G01*
X19379Y24969*
G75*
G02X19421Y24902I-126J-127*
G01*
X20704Y23618*
X22301*
G75*
G02X22470Y23498J-179*
G01*
X23729Y22239*
X32757*
G75*
G02X32974Y22211I91J-154*
G01*
X41615Y13571*
G75*
G02X41895Y13536I99J-351*
G01*
X32584Y22847*
G75*
G02X32536Y22962I115J115*
G01*
Y24314*
G75*
G02X32047Y24657I-124J343*
G01*
G75*
G02X32741Y24815I365*
G01*
G75*
G02X32862Y24657I-42J-158*
G01*
Y23030*
X33076Y22816*
G75*
G02X33048Y22907I135J91*
G01*
Y24939*
G75*
G02X32965Y25536I163J327*
G01*
X26970*
X24956Y23521*
G75*
G02X24829Y23469I-127J126*
G01*
X23329*
G75*
G02X23203Y23521I0J179*
G01*
X21640Y25082*
G75*
G02X21587Y25208I126J126*
G01*
Y26778*
X18884Y29481*
G75*
G02X18831Y29608I126J127*
G01*
Y30102*
G75*
G02X18092Y30388I-314J286*
G01*
G75*
G02X18831Y30674I425*
G01*
Y30841*
X18678Y30994*
G75*
G02X18092Y31388I-161J393*
G01*
G75*
G02X18942I425*
G01*
G75*
G02X18921Y31257I-425J0*
G01*
X19137Y31041*
G75*
G02X19189Y30915I-126J-126*
G01*
Y30915*
Y30915*
Y30658*
G75*
G02X19942Y30388I328J-270*
G01*
G75*
G02X19189Y30117I-425*
G01*
Y29682*
X21892Y26979*
G75*
G02X21945Y26852I-126J-127*
G01*
Y25282*
X23403Y23826*
X23754*
G75*
G02X23848Y24412I257J259*
G01*
Y30121*
G75*
G02X23092Y30388I-331J266*
G01*
G75*
G02X23848Y30654I425*
G01*
Y30997*
G75*
G02X23896Y31112I163*
G01*
X24098Y31314*
G75*
G02X24092Y31388I419J73*
G01*
G75*
G02X24354Y31780I425*
G01*
Y32612*
G75*
G02X24152Y32939I163J327*
G01*
G75*
G02X24882I365*
G01*
G75*
G02X24680Y32612I-365*
G01*
Y31780*
G75*
G02X24517Y30963I-163J-393*
G01*
G75*
G02X24280Y31035I0J425*
G01*
X24174Y30929*
Y30639*
G75*
G02X24942Y30388I343J-251*
G01*
G75*
G02X24174Y30136I-425*
G01*
Y24412*
G75*
G02X24268Y23826I-163J-327*
G01*
X24755*
X26769Y25840*
G75*
G02X26896Y25893I127J-126*
G01*
X30097*
G75*
G02X30065Y25918I83J140*
G01*
X25908Y30075*
G75*
G02X25866Y30145I115J115*
G01*
G75*
G02X25092Y30388I-349J242*
G01*
G75*
G02X25860Y30639I425*
G01*
Y31016*
G75*
G02X25908Y31132I163*
G01*
X26097Y31321*
G75*
G02X26517Y31813I420J66*
G01*
G75*
G02Y30963J-425*
G01*
G75*
G02X26275Y31038J425*
G01*
X26186Y30949*
Y30654*
G75*
G02X26917Y30243I331J-266*
G01*
X26925Y30235*
G75*
G02X26972Y30120I-115J-115*
G01*
Y30113*
X29901Y27184*
X33113*
G75*
G02X33228Y27136J-163*
G01*
X35141Y25223*
G75*
G02X35189Y25108I-115J-115*
G01*
Y23022*
X42373Y15838*
X43136*
X44100Y16802*
G75*
G02X44202Y16904I154J-53*
G01*
X45328Y18030*
Y18485*
G75*
G02X45491Y19375I163J430*
G01*
G75*
G02X45654Y18485J-460*
G01*
Y17962*
G75*
G02X45606Y17847I-163*
G01*
X44393Y16635*
G75*
G02X44381Y16623I-115J115*
G01*
G75*
G02X44369Y16611I-126J103*
G01*
X43319Y15560*
G75*
G02X43203Y15512I-115J115*
G01*
X42305*
G75*
G02X42190Y15560J163*
G01*
X34911Y22839*
G75*
G02X34863Y22954I115J115*
G01*
Y25040*
X34762Y25142*
G75*
G02X34803Y25033I-122J-108*
G01*
Y22857*
X42282Y15377*
X43738*
X44930Y16570*
G75*
G02X45046Y16617I115J-115*
G01*
X45923*
X47328Y18022*
Y18485*
G75*
G02X47031Y18915I163J430*
G01*
Y15915D02*
G75*
G02X47950I460D01*
G01*
G75*
G02X47031I-460*
G01*
X46031D02*
G75*
G02X46950I460D01*
G01*
G75*
G02X46031I-460*
G01*
X46373Y12407D02*
G75*
G02X47293I460D01*
G01*
G75*
G02X46373I-460*
G01*
Y10407D02*
G75*
G02X47293I460D01*
G01*
G75*
G02X46373I-460*
G01*
X43287Y12423D02*
G75*
G02X44206I460D01*
G01*
G75*
G02X43287I-460*
G01*
X28568Y20127D02*
G75*
G02X29488I460D01*
G01*
G75*
G02X28568I-460*
G01*
X30568D02*
G75*
G02X31488I460D01*
G01*
G75*
G02X30568I-460*
G01*
X22145Y18628D02*
G75*
G02X23064I460D01*
G01*
G75*
G02X22145I-460*
G01*
X20145D02*
G75*
G02X21064I460D01*
G01*
G75*
G02X20145I-460*
G01*
X43303Y26031D02*
G75*
G02X44222I460D01*
G01*
G75*
G02X43303I-460*
G01*
Y27031D02*
G75*
G02X44222I460D01*
G01*
G75*
G02X43303I-460*
G01*
X46204Y24944D02*
G75*
G02X47123I460D01*
G01*
G75*
G02X46402Y24566I-460J0*
G01*
X45642Y23806*
Y23494*
X46076Y23060*
G75*
G02X46124Y22945I-115J-115*
G01*
Y22354*
G75*
G02X46076Y22239I-163*
G01*
X44019Y20182*
G75*
G02X44111Y19940I-273J-242*
G01*
G75*
G02X43381I-365*
G01*
G75*
G02X43674Y20297I365*
G01*
X45798Y22422*
Y22877*
X45364Y23311*
G75*
G02X45316Y23427I115J115*
G01*
Y23874*
G75*
G02X45364Y23989I163*
G01*
X46216Y24841*
G75*
G02X46204Y24944I448J103*
G01*
Y25944D02*
G75*
G02X47123I460D01*
G01*
G75*
G02X46204I-460*
G01*
Y26944D02*
G75*
G02X47123I460D01*
G01*
G75*
G02X46204I-460*
G01*
X43329Y25184D02*
G75*
G02X44222Y25031I434J-152D01*
G01*
G75*
G02X43373Y24787I-460*
G01*
X42508Y23922*
Y23340*
G75*
G02X42524Y23270I-147J-70*
G01*
Y20356*
G75*
G02X42726Y20029I-163J-327*
G01*
G75*
G02X41996I-365*
G01*
G75*
G02X42198Y20356I365*
G01*
Y23216*
G75*
G02X42182Y23286I147J70*
G01*
Y23990*
G75*
G02X42230Y24105I163*
G01*
X43271Y25146*
G75*
G02X43329Y25184I115J-115*
G01*
X43830Y17537D02*
G75*
G02X44296Y17187I102J-351D01*
G01*
G75*
G02X43566I-365*
G01*
G75*
G02X43579Y17282I365J0*
G01*
X42885Y17965*
G75*
G02X42831Y18092I125J128*
G01*
Y23321*
G75*
G02X42884Y23447I179J0*
G01*
X43325Y23888*
G75*
G02X43762Y24491I437J143*
G01*
G75*
G02Y23572J-460*
G01*
G75*
G02X43561Y23618I0J460*
G01*
X43189Y23247*
Y18167*
X43830Y17537*
X43303Y23031D02*
G75*
G02X44222I460D01*
G01*
G75*
G02X43303I-460*
G01*
X14092Y31388D02*
G75*
G02X14942I425D01*
G01*
G75*
G02X14092I-425*
G01*
X15092Y30388D02*
G75*
G02X15942I425D01*
G01*
G75*
G02X15092I-425*
G01*
Y31388D02*
G75*
G02X15942I425D01*
G01*
G75*
G02X15092I-425*
G01*
X16092Y30388D02*
G75*
G02X16942I425D01*
G01*
G75*
G02X16092I-425*
G01*
Y31388D02*
G75*
G02X16942I425D01*
G01*
G75*
G02X16092I-425*
G01*
X17092Y30388D02*
G75*
G02X17942I425D01*
G01*
G75*
G02X17092I-425*
G01*
Y31388D02*
G75*
G02X17942I425D01*
G01*
G75*
G02X17092I-425*
G01*
X19092D02*
G75*
G02X19942I425D01*
G01*
G75*
G02X19092I-425*
G01*
X20092Y30388D02*
G75*
G02X20942I425D01*
G01*
G75*
G02X20092I-425*
G01*
Y31388D02*
G75*
G02X20942I425D01*
G01*
G75*
G02X20092I-425*
G01*
X21092Y30388D02*
G75*
G02X21942I425D01*
G01*
G75*
G02X21092I-425*
G01*
Y31388D02*
G75*
G02X21942I425D01*
G01*
G75*
G02X21092I-425*
G01*
X22092Y30388D02*
G75*
G02X22942I425D01*
G01*
G75*
G02X22092I-425*
G01*
Y31388D02*
G75*
G02X22942I425D01*
G01*
G75*
G02X22092I-425*
G01*
X23092D02*
G75*
G02X23942I425D01*
G01*
G75*
G02X23092I-425*
G01*
X46188Y31955D02*
G75*
G02X46801Y31522I153J-433D01*
G01*
G75*
G02X45881I-460*
G01*
G75*
G02X45923Y31714I460*
G01*
X45208Y32429*
X26800*
X25913Y31542*
G75*
G02X25517Y30963I-396J-155*
G01*
G75*
G02Y31813J425*
G01*
G75*
G02X25655Y31790J-425*
G01*
X26599Y32734*
G75*
G02X26726Y32787I127J-126*
G01*
X45282*
G75*
G02X45408Y32734I0J-179*
G01*
X46188Y31955*
X45881Y30522D02*
G75*
G02X46801I460D01*
G01*
G75*
G02X45881I-460*
G01*
X27586Y31844D02*
G75*
G02X28505I460D01*
G01*
G75*
G02X27586I-460*
G01*
X34121Y27212D02*
G75*
G02X34513Y26848I27J-364D01*
G01*
G75*
G02X33783I-365*
G01*
G75*
G02X33835Y27037I365J0*
G01*
X32360Y28512*
X29971*
G75*
G02X29855Y28560J163*
G01*
X28931Y29485*
G75*
G02X28883Y29600I115J115*
G01*
Y31414*
G75*
G02X28586Y31844I163J430*
G01*
G75*
G02X29505I460*
G01*
G75*
G02X29209Y31414I-460*
G01*
Y29668*
X30038Y28838*
X32428*
G75*
G02X32543Y28790J-163*
G01*
X34121Y27212*
X35629Y28585D02*
G75*
G02X35681Y28458I-126J-127D01*
G01*
Y26254*
G75*
G02X35630Y26129I-179*
G01*
X35526Y26022*
G75*
G02X35541Y25919I-350J-103*
G01*
G75*
G02X34811I-365*
G01*
G75*
G02X35270Y26272I365*
G01*
X35324Y26327*
Y28384*
X33346Y30362*
X31109*
G75*
G02X30982Y30415J179*
G01*
X30011Y31386*
G75*
G02X29586Y31844I35J458*
G01*
G75*
G02X30505I460*
G01*
G75*
G02X30377Y31526I-460*
G01*
X31183Y30720*
X33420*
G75*
G02X33546Y30667J-179*
G01*
X35629Y28585*
X30586Y31844D02*
G75*
G02X31505I460D01*
G01*
G75*
G02X30586I-460*
G01*
X31586D02*
G75*
G02X32505I460D01*
G01*
G75*
G02X31586I-460*
G01*
X32586D02*
G75*
G02X33505I460D01*
G01*
G75*
G02X32586I-460*
G01*
X33586D02*
G75*
G02X34505I460D01*
G01*
G75*
G02X33586I-460*
G01*
X37827Y32070D02*
G75*
G02X38519Y31907I327J-163D01*
G01*
G75*
G02X37827Y31744I-365*
G01*
X35494*
G75*
G02X34586Y31844I-449J100*
G01*
G75*
G02X35446Y32070I460*
G01*
X37827*
X44881Y31522D02*
G75*
G02X45801I460D01*
G01*
G75*
G02X44881I-460*
G01*
X46881Y30522D02*
G75*
G02X47801I460D01*
G01*
G75*
G02X47417Y30068I-460*
G01*
Y29247*
G75*
G02X47619Y28920I-163J-327*
G01*
G75*
G02X46889I-365*
G01*
G75*
G02X47091Y29247I365*
G01*
Y30136*
G75*
G02X46881Y30522I250J386*
G01*
Y31522D02*
G75*
G02X47801I460D01*
G01*
G75*
G02X46881I-460*
G01*
X47881Y30522D02*
G75*
G02X48801I460D01*
G01*
G75*
G02X47881I-460*
G01*
Y31522D02*
G75*
G02X48801I460D01*
G01*
G75*
G02X47881I-460*
G01*
X48881Y30522D02*
G75*
G02X49801I460D01*
G01*
G75*
G02X48881I-460*
G01*
Y31522D02*
G75*
G02X49801I460D01*
G01*
G75*
G02X48881I-460*
G01*
X12092Y30388D02*
G75*
G02X12942I425D01*
G01*
G75*
G02X12092I-425*
G01*
Y31388D02*
G75*
G02X12942I425D01*
G01*
G75*
G02X12092I-425*
G01*
X15207Y27637D02*
G75*
G02X15899Y27474I327J-163D01*
G01*
G75*
G02X15207Y27311I-365*
G01*
X14395*
G75*
G02X14280Y27359J163*
G01*
X11654Y29985*
G75*
G02X11092Y30388I-137J402*
G01*
G75*
G02X11942I425*
G01*
G75*
G02X11899Y30201I-425J0*
G01*
X14463Y27637*
X15207*
X8092Y31388D02*
G75*
G02X8942I425D01*
G01*
G75*
G02X8092I-425*
G01*
X9092Y30388D02*
G75*
G02X9942I425D01*
G01*
G75*
G02X9092I-425*
G01*
X15924Y27027D02*
G75*
G02X16607Y26848I318J-179D01*
G01*
G75*
G02X15924Y26669I-365*
G01*
X11645*
X9095Y24114*
Y16100*
X14643Y10553*
G75*
G02X14696Y10426I-126J-127*
G01*
Y7749*
G75*
G02X14517Y6939I-179J-386*
G01*
G75*
G02X14338Y7749J425*
G01*
Y10352*
X8791Y15900*
G75*
G02X8738Y16026I126J127*
G01*
Y24188*
G75*
G02X8790Y24314I179*
G01*
X11445Y26974*
G75*
G02X11571Y27027I126J-126*
G01*
X15924*
X16191Y7636D02*
G75*
G02X16942Y7364I326J-272D01*
G01*
G75*
G02X16190Y7093I-425*
G01*
X16215Y6663*
G75*
G02X16942Y6364I302J-299*
G01*
G75*
G02X16125Y6201I-425*
G01*
X16069*
G75*
G02X15933Y6275I0J163*
G01*
G75*
G02X15092Y6364I-416J89*
G01*
G75*
G02X15894Y6559I425*
G01*
X15862Y7115*
G75*
G02X15092Y7364I-345J249*
G01*
G75*
G02X15853Y7624I425J0*
G01*
G75*
G02X15855Y7628I147J-71*
G01*
X15591Y7891*
G75*
G02X15511Y7935I35J159*
G01*
X14900Y8546*
G75*
G02X14852Y8661I115J115*
G01*
Y11135*
X9558Y16429*
G75*
G02X9441Y16585I45J157*
G01*
Y23516*
G75*
G02X9489Y23632I163*
G01*
X11891Y26034*
G75*
G02X12006Y26082I115J-115*
G01*
X16231*
G75*
G02X16922Y25919I327J-163*
G01*
G75*
G02X16231Y25756I-365*
G01*
X12074*
X9767Y23449*
Y16681*
X15130Y11318*
G75*
G02X15178Y11202I-115J-115*
G01*
Y8729*
X15698Y8209*
G75*
G02X15778Y8165I-35J-159*
G01*
X16143Y7800*
G75*
G02X16191Y7685I-115J-115*
G01*
Y7636*
X40781Y10789D02*
G75*
G02X41473Y10626I327J-163D01*
G01*
G75*
G02X40781Y10463I-365*
G01*
X36157*
X35731Y10036*
G75*
G02X35616Y9988I-115J115*
G01*
X20790*
X20182Y9380*
Y7625*
G75*
G02X20942Y7364I335J-261*
G01*
G75*
G02X20213Y7067I-425*
G01*
X20236Y6682*
G75*
G02X20942Y6364I281J-319*
G01*
G75*
G02X20125Y6201I-425*
G01*
X20089*
G75*
G02X19938Y6303J163*
G01*
G75*
G02X19092Y6364I-421J61*
G01*
G75*
G02X19118Y6509I425J0*
G01*
X18888Y6737*
G75*
G02X18835Y6864I126J127*
G01*
Y7082*
G75*
G02X18092Y7364I-318J282*
G01*
G75*
G02X18517Y7789I425*
G01*
G75*
G02X18529Y7789I-1J-425*
G01*
X18452Y7866*
X17225*
G75*
G02X17099Y7919I0J179*
G01*
X16892Y8125*
G75*
G02X16839Y8252I126J126*
G01*
Y8252*
Y8252*
Y9737*
G75*
G02X16892Y9864I179*
G01*
X18262Y11233*
G75*
G02X18388Y11286I127J-126*
G01*
X37527*
G75*
G02X38210Y11107I318J-179*
G01*
G75*
G02X38023Y10789I-365*
G01*
X40781*
X21092Y7364D02*
G75*
G02X21942I425D01*
G01*
G75*
G02X21092I-425*
G01*
X22092Y6364D02*
G75*
G02X22942I425D01*
G01*
G75*
G02X22092I-425*
G01*
Y7364D02*
G75*
G02X22942I425D01*
G01*
G75*
G02X22092I-425*
G01*
X23092Y6364D02*
G75*
G02X23942I425D01*
G01*
G75*
G02X23092I-425*
G01*
Y7364D02*
G75*
G02X23942I425D01*
G01*
G75*
G02X23092I-425*
G01*
X18092Y6364D02*
G75*
G02X18942I425D01*
G01*
G75*
G02X18092I-425*
G01*
X17092D02*
G75*
G02X17942I425D01*
G01*
G75*
G02X17092I-425*
G01*
Y7364D02*
G75*
G02X17942I425D01*
G01*
G75*
G02X17092I-425*
G01*
X9092Y6364D02*
G75*
G02X9942I425D01*
G01*
G75*
G02X9092I-425*
G01*
Y7364D02*
G75*
G02X9942I425D01*
G01*
G75*
G02X9092I-425*
G01*
X10092Y6364D02*
G75*
G02X10942I425D01*
G01*
G75*
G02X10092I-425*
G01*
Y7364D02*
G75*
G02X10942I425D01*
G01*
G75*
G02X10092I-425*
G01*
X11092Y6364D02*
G75*
G02X11942I425D01*
G01*
G75*
G02X11092I-425*
G01*
Y7364D02*
G75*
G02X11942I425D01*
G01*
G75*
G02X11092I-425*
G01*
X12092Y6364D02*
G75*
G02X12942I425D01*
G01*
G75*
G02X12092I-425*
G01*
Y7364D02*
G75*
G02X12942I425D01*
G01*
G75*
G02X12092I-425*
G01*
X13092Y6364D02*
G75*
G02X13942I425D01*
G01*
G75*
G02X13092I-425*
G01*
Y7364D02*
G75*
G02X13942I425D01*
G01*
G75*
G02X13092I-425*
G01*
X14092Y6364D02*
G75*
G02X14942I425D01*
G01*
G75*
G02X14092I-425*
G01*
X8092D02*
G75*
G02X8942I425D01*
G01*
G75*
G02X8092I-425*
G01*
Y7364D02*
G75*
G02X8942I425D01*
G01*
G75*
G02X8092I-425*
G01*
X55901Y30521D02*
G75*
G02X56820I460D01*
G01*
G75*
G02X55901I-460*
G01*
Y31521D02*
G75*
G02X56820I460D01*
G01*
G75*
G02X55901I-460*
G01*
X56901Y30521D02*
G75*
G02X57820I460D01*
G01*
G75*
G02X56901I-460*
G01*
Y31521D02*
G75*
G02X57820I460D01*
G01*
G75*
G02X56901I-460*
G01*
X57901Y30521D02*
G75*
G02X58820I460D01*
G01*
G75*
G02X57901I-460*
G01*
X58352Y16772D02*
G75*
G02X59369I509D01*
G01*
G75*
G02X58352I-509*
G01*
Y19281D02*
X59369D01*
Y18264*
X58352*
Y19281*
X57901Y31521D02*
G75*
G02X58820I460D01*
G01*
G75*
G02X57901I-460*
G01*
X58842Y22872D02*
G75*
G02X59761I460D01*
G01*
G75*
G02X58842I-460*
G01*
X59499Y10836D02*
G75*
G02X60206I353D01*
G01*
G75*
G02X59499I-353*
G01*
Y11836D02*
G75*
G02X60206I353D01*
G01*
G75*
G02X59499I-353*
G01*
Y12836D02*
G75*
G02X60206I353D01*
G01*
G75*
G02X59499I-353*
G01*
Y13836D02*
G75*
G02X60206I353D01*
G01*
G75*
G02X59499I-353*
G01*
X58842Y24872D02*
G75*
G02X59761I460D01*
G01*
G75*
G02X58842I-460*
G01*
Y25872D02*
G75*
G02X59761I460D01*
G01*
G75*
G02X58842I-460*
G01*
Y26872D02*
G75*
G02X59761I460D01*
G01*
G75*
G02X58842I-460*
G01*
X3708Y21672D02*
G75*
G02X6714I1503D01*
G01*
G75*
G02X3708I-1503*
G01*
X3751Y17693D02*
G75*
G02X6757I1503D01*
G01*
G75*
G02X3751I-1503*
G01*
X4767Y25785D02*
G75*
G02X5686I460D01*
G01*
G75*
G02X4767I-460*
G01*
Y26785D02*
G75*
G02X5686I460D01*
G01*
G75*
G02X4767I-460*
G01*
Y27785D02*
G75*
G02X5686I460D01*
G01*
G75*
G02X4767I-460*
G01*
Y28785D02*
G75*
G02X5686I460D01*
G01*
G75*
G02X4767I-460*
G01*
Y29785D02*
G75*
G02X5686I460D01*
G01*
G75*
G02X4767I-460*
G01*
X61790Y5001D02*
G36*
Y6364D01*
X57455*
X56691Y5599*
G75*
G02X56575Y5551I-115J115*
G01*
X54838*
G75*
G02X54953Y5285I-250J-266*
G01*
G75*
G02X54240Y5175I-365*
G01*
X22475*
G75*
G02X22359Y5223I0J163*
G01*
X21629Y5954*
G75*
G02X21092Y6364I-112J410*
G01*
X20942*
G75*
G02X20125Y6201I-425*
G01*
X20089*
G75*
G02X19938Y6303I0J163*
G01*
G75*
G02X19092Y6364I-421J61*
G01*
X18942*
G75*
G02X18092I-425*
G01*
X17942*
G75*
G02X17092I-425*
G01*
X16942*
G75*
G02X16125Y6201I-425*
G01*
X16069*
G75*
G02X15933Y6275I0J163*
G01*
G75*
G02X15092Y6364I-416J89*
G01*
X14942*
G75*
G02X14092I-425*
G01*
X13942*
G75*
G02X13092I-425*
G01*
X12942*
G75*
G02X12092I-425*
G01*
X11942*
G75*
G02X11092I-425*
G01*
X10942*
G75*
G02X10092I-425*
G01*
X9942*
G75*
G02X9092I-425*
G01*
X8942*
G75*
G02X8092I-425*
G01*
X3600*
Y4893*
G75*
G02X6450Y4226I1347J-667*
G01*
Y4226*
G75*
G02X5747Y2954I-1503*
G01*
X59702*
G75*
G02X58999Y4226I800J1272*
G01*
G75*
G02X61790Y5001I1503*
G01*
G37*
X24092Y6364D02*
G36*
X23942D01*
G75*
G02X23092I-425*
G01*
X22942*
G75*
G02X22092I-425*
G01*
X21942*
G75*
G02X21888Y6156I-425*
G01*
X22542Y5501*
X54294*
G75*
G02X54338Y5551I294J-216*
G01*
X25135*
G75*
G02X25020Y5599I0J163*
G01*
X24657Y5962*
G75*
G02X24092Y6364I-139J401*
G01*
Y6364*
G37*
X27571D02*
G36*
X26942D01*
G75*
G02X26517Y5939I-425*
G01*
G75*
G02X26092Y6364J425*
G01*
X25942*
G75*
G02X25517Y5939I-425*
G01*
G75*
G02X25092Y6364J425*
G01*
X24942*
G75*
G02X24900Y6180I-426J0*
G01*
X25203Y5877*
X52273*
G75*
G02X52180Y5985I225J286*
G01*
X27991*
G75*
G02X27819Y6116J179*
G01*
X27571Y6364*
G37*
X56994D02*
G36*
X55593D01*
G75*
G02X55042I-276J239*
G01*
X52804*
G75*
G02X52863Y6164I-305J-200*
G01*
G75*
G02X52724Y5877I-365J0*
G01*
X56508*
X56994Y6364*
G37*
X15092Y7364D02*
G36*
X14942D01*
G75*
G02X14517Y6939I-425*
G01*
G75*
G02X14092Y7364J425*
G01*
X13942*
G75*
G02X13092I-425*
G01*
X12942*
G75*
G02X12092I-425*
G01*
X11942*
G75*
G02X11092I-425*
G01*
X10942*
G75*
G02X10092I-425*
G01*
X9942*
G75*
G02X9092I-425*
G01*
X8942*
G75*
G02X8092I-425*
G01*
X3600*
Y6364*
X8092*
G75*
G02X8942I425*
G01*
X9092*
G75*
G02X9942I425*
G01*
X10092*
G75*
G02X10942I425*
G01*
X11092*
G75*
G02X11942I425*
G01*
X12092*
G75*
G02X12942I425*
G01*
X13092*
G75*
G02X13942I425*
G01*
X14092*
G75*
G02X14942I425*
G01*
X15092*
G75*
G02X15894Y6559I425*
G01*
X15862Y7115*
G75*
G02X15092Y7364I-345J249*
G01*
G37*
X18092D02*
G36*
X17942D01*
G75*
G02X17092I-425*
G01*
X16942*
G75*
G02X16190Y7093I-425*
G01*
X16215Y6663*
G75*
G02X16942Y6364I302J-299*
G01*
X17092*
G75*
G02X17942I425*
G01*
X18092*
G75*
G02X18942I425*
G01*
X19092*
G75*
G02X19118Y6509I426J0*
G01*
X18888Y6737*
G75*
G02X18835Y6864I126J127*
G01*
Y7082*
G75*
G02X18092Y7364I-318J282*
G01*
G37*
X25092Y6364D02*
G36*
G75*
G02X25217Y6664I425D01*
G01*
X25034*
G75*
G02X24907Y6717I0J179*
G01*
X24660Y6964*
G75*
G02X24092Y7364I-143J400*
G01*
X23942*
G75*
G02X23092I-425*
G01*
X22942*
G75*
G02X22092I-425*
G01*
X21942*
G75*
G02X21092I-425*
G01*
X20942*
G75*
G02X20213Y7067I-425*
G01*
X20236Y6682*
G75*
G02X20942Y6364I281J-319*
G01*
X21092*
G75*
G02X21942I425*
G01*
X22092*
G75*
G02X22942I425*
G01*
X23092*
G75*
G02X23942I425*
G01*
X24092*
G75*
G02X24942I425*
G01*
X25092*
G37*
X57994Y7364D02*
G36*
X51271D01*
Y7324*
G75*
G02X51473Y6998I-163J-327*
G01*
G75*
G02X51390Y6766I-365*
G01*
X54991*
G75*
G02X55682Y6603I327J-163*
G01*
G75*
G02X55593Y6364I-365J0*
G01*
X56994*
X57994Y7364*
G37*
X26092Y6364D02*
G36*
G75*
G02X26217Y6664I425D01*
G01*
X25818*
G75*
G02X25942Y6364I-300J-301*
G01*
X26092*
G37*
X25092Y7364D02*
G36*
X24942D01*
G75*
G02X24915Y7215I-425J0*
G01*
X25108Y7022*
X25265*
G75*
G02X25092Y7364I252J342*
G01*
G37*
X50945D02*
G36*
X28339D01*
Y6766*
X50826*
G75*
G02X50743Y6998I282J232*
G01*
G75*
G02X50945Y7324I365*
G01*
Y7364*
G37*
X27571Y6364D02*
G36*
X27271Y6664D01*
X26818*
G75*
G02X26942Y6364I-300J-301*
G01*
X27571*
G37*
X55042D02*
G36*
G75*
G02X54991Y6440I276J239D01*
G01*
X52737*
G75*
G02X52804Y6364I-239J-276*
G01*
X55042*
G37*
X58455Y7364D02*
G36*
X57455Y6364D01*
X61790*
Y7364*
X58455*
G37*
X14092D02*
G36*
G75*
G02X14338Y7749I425D01*
G01*
Y10352*
X14338Y10352*
X3600*
Y7364*
X8092*
G75*
G02X8942I425*
G01*
X9092*
G75*
G02X9942I425*
G01*
X10092*
G75*
G02X10942I425*
G01*
X11092*
G75*
G02X11942I425*
G01*
X12092*
G75*
G02X12942I425*
G01*
X13092*
G75*
G02X13942I425*
G01*
X14092*
G37*
X15092D02*
G36*
G75*
G02X15853Y7624I425J0D01*
G01*
G75*
G02X15855Y7628I57J-26*
G01*
X15591Y7891*
G75*
G02X15511Y7935I35J159*
G01*
X14900Y8546*
G75*
G02X14852Y8661I115J115*
G01*
Y8661*
Y10352*
X14696*
Y7749*
G75*
G02X14942Y7364I-179J-386*
G01*
X15092*
G37*
X17381Y10352D02*
G36*
X15178D01*
Y8729*
X15698Y8209*
G75*
G02X15778Y8165I-35J-159*
G01*
X16143Y7800*
G75*
G02X16191Y7685I-115J-115*
G01*
Y7685*
Y7636*
G75*
G02X16942Y7364I326J-272*
G01*
X17092*
G75*
G02X17942I425*
G01*
X18092*
G75*
G02X18517Y7789I425*
G01*
G75*
G02X18529Y7789I1J-324*
G01*
X18452Y7866*
X17225*
G75*
G02X17099Y7919I0J179*
G01*
X16892Y8125*
G75*
G02X16839Y8252I127J126*
G01*
Y8252*
Y8252*
Y9737*
G75*
G02X16892Y9864I179*
G01*
X17381Y10352*
G37*
X50945Y7364D02*
G36*
Y8526D01*
G75*
G02X50743Y8852I163J327*
G01*
G75*
G02X50959Y9185I365*
G01*
X50344*
G75*
G02X49509Y9225I-409J210*
G01*
X47255*
G75*
G02X46410Y9227I-422J182*
G01*
X44167Y9238*
G75*
G02X43318Y9256I-421J185*
G01*
X42606*
G75*
G02X42488Y9305I0J167*
G01*
X42018Y9775*
G75*
G02X41969Y9892I118J118*
G01*
Y9892*
Y10352*
X41349*
G75*
G02X40866I-242J274*
G01*
X36047*
X35731Y10036*
G75*
G02X35616Y9988I-115J115*
G01*
X20790*
X20182Y9380*
Y7625*
G75*
G02X20942Y7364I335J-261*
G01*
X21092*
G75*
G02X21942I425*
G01*
X22092*
G75*
G02X22942I425*
G01*
X23092*
G75*
G02X23942I425*
G01*
X24092*
G75*
G02X24942I425*
G01*
X25092*
G75*
G02X25354Y7756I425*
G01*
Y7894*
G75*
G02X25517Y8057I163*
G01*
X28176*
G75*
G02X28339Y7894J-163*
G01*
Y7364*
X50945*
G37*
X54920Y10352D02*
G36*
X53608D01*
G75*
G02X52688I-460*
G01*
X50393*
G75*
G02X49478I-458J43*
G01*
X47289*
G75*
G02X46377I-456J55*
G01*
X44201*
G75*
G02X43746Y9963I-454J71*
G01*
G75*
G02X43292Y10352J460*
G01*
X42303*
Y9961*
X42675Y9590*
X43318*
G75*
G02X44169Y9603I428J-167*
G01*
X46412Y9592*
G75*
G02X47255Y9590I421J-185*
G01*
X49519*
G75*
G02X50378Y9519I417J-194*
G01*
X52720*
G75*
G02X53576I428J-167*
G01*
X54106*
X54900Y10312*
G75*
G02X54920Y10352I157J-54*
G01*
G37*
X60387D02*
G36*
X55388D01*
X55215Y10179*
G75*
G02X55175Y10116I-157J54*
G01*
X54293Y9234*
G75*
G02X54175Y9185I-118J118*
G01*
X53576*
G75*
G02X52720I-428J167*
G01*
X51256*
G75*
G02X51473Y8852I-149J-333*
G01*
G75*
G02X51271Y8526I-365*
G01*
Y7364*
X57994*
X60387Y9756*
Y10352*
G37*
X60713D02*
G36*
Y9689D01*
Y9689*
G75*
G02X60665Y9573I-163*
G01*
X58455Y7364*
X61790*
Y10352*
X60713*
G37*
X14338D02*
G36*
X13854Y10836D01*
X3600*
Y10352*
X14338*
G37*
X17865Y10836D02*
G36*
X15178D01*
Y10352*
X17381*
X17865Y10836*
G37*
X14852D02*
G36*
X14359D01*
X14643Y10553*
G75*
G02X14696Y10426I-126J-127*
G01*
Y10352*
X14852*
Y10836*
G37*
X55400D02*
G36*
X50065D01*
G75*
G02X50395Y10395I-130J-441*
G01*
G75*
G02X50393Y10352I-460J0*
G01*
X52688*
G75*
G02X53608I460*
G01*
X54920*
G75*
G02X54940Y10376I137J-94*
G01*
X55400Y10836*
G37*
X40866Y10352D02*
G36*
G75*
G02X40781Y10463I242J274D01*
G01*
X36157*
X36047Y10352*
X40866*
G37*
X40810Y10836D02*
G36*
X38090D01*
G75*
G02X38023Y10789I-245J271*
G01*
X40781*
G75*
G02X40810Y10836I327J-163*
G01*
G37*
X41969Y10352D02*
G36*
Y10598D01*
X41731Y10836*
X41406*
G75*
G02X41473Y10626I-298J-211*
G01*
G75*
G02X41349Y10352I-365*
G01*
X41969*
G37*
X43292D02*
G36*
G75*
G02X43287Y10423I454J71D01*
G01*
G75*
G02X43545Y10836I460*
G01*
X42203*
X42254Y10785*
G75*
G02X42303Y10667I-118J-118*
G01*
Y10667*
Y10352*
X43292*
G37*
X43952Y10836D02*
G36*
X43947D01*
G75*
G02X43950Y10835I-201J-411*
G01*
X43952Y10836*
G37*
X46377Y10352D02*
G36*
G75*
G02X46373Y10407I456J55D01*
G01*
G75*
G02X46668Y10836I460*
G01*
X44413*
X44172Y10596*
G75*
G02X44206Y10423I-426J-173*
G01*
G75*
G02X44201Y10352I-460J0*
G01*
X46377*
G37*
X49478D02*
G36*
G75*
G02X49476Y10395I458J43D01*
G01*
G75*
G02X49806Y10836I460*
G01*
X46998*
G75*
G02X47293Y10407I-165J-429*
G01*
G75*
G02X47289Y10352I-460J0*
G01*
X49478*
G37*
X60387Y10836D02*
G36*
X60206D01*
G75*
G02X59499I-353*
G01*
X57080*
G75*
G02X56373I-353*
G01*
X55872*
X55388Y10352*
X60387*
Y10836*
G37*
X60713D02*
G36*
Y10352D01*
X61790*
Y10836*
X60713*
G37*
X13854D02*
G36*
X13338Y11352D01*
X3600*
Y10836*
X13854*
G37*
X14852D02*
G36*
Y11135D01*
X14635Y11352*
X13844*
X14359Y10836*
X14852*
G37*
X37574Y11352D02*
G36*
X15096D01*
X15130Y11318*
G75*
G02X15178Y11203I-115J-115*
G01*
Y11202*
Y10836*
X17865*
X18262Y11233*
G75*
G02X18388Y11286I127J-126*
G01*
X37527*
G75*
G02X37574Y11352I318J-179*
G01*
G37*
X55916D02*
G36*
X53608D01*
G75*
G02X52688I-460*
G01*
X50393*
G75*
G02X49478I-458J43*
G01*
X47289*
G75*
G02X46403Y11244I-456J55*
G01*
X46100*
G75*
G02X45946Y11352I0J163*
G01*
X44929*
X44413Y10836*
X46668*
G75*
G02X46998I165J-429*
G01*
X49806*
G75*
G02X50065I130J-441*
G01*
X55400*
X55916Y11352*
G37*
X41731Y10836D02*
G36*
X41215Y11352D01*
X38115*
G75*
G02X38210Y11107I-270J-245*
G01*
G75*
G02X38090Y10836I-365J0*
G01*
X40810*
G75*
G02X41406I298J-211*
G01*
X41731*
G37*
X44468Y11352D02*
G36*
X44201D01*
G75*
G02X43292I-454J71*
G01*
X41687*
X42203Y10836*
X43545*
G75*
G02X43746Y10883I201J-413*
G01*
G75*
G02X43947Y10836I0J-459*
G01*
X43952*
X44468Y11352*
G37*
X60387D02*
G36*
X56388D01*
X55872Y10836*
X56373*
G75*
G02X57080I353*
G01*
X59499*
G75*
G02X60206I353*
G01*
X60387*
Y11352*
G37*
X60713D02*
G36*
Y10836D01*
X61790*
Y11352*
X60713*
G37*
X13338D02*
G36*
X12854Y11836D01*
X3600*
Y11352*
X13338*
G37*
X14635D02*
G36*
X14151Y11836D01*
X13359*
X13844Y11352*
X14635*
G37*
X41215D02*
G36*
X40731Y11836D01*
X14612*
X15096Y11352*
X37574*
G75*
G02X38115I270J-245*
G01*
X41215*
G37*
X56373Y11836D02*
G36*
X50065D01*
G75*
G02X50395Y11395I-130J-441*
G01*
G75*
G02X50393Y11352I-460J0*
G01*
X52688*
G75*
G02X53608I460*
G01*
X55916*
X56374Y11810*
G75*
G02X56373Y11836I357J26*
G01*
Y11836*
G37*
X43292Y11352D02*
G36*
G75*
G02X43287Y11423I454J71D01*
G01*
G75*
G02X43545Y11836I460*
G01*
X41203*
X41687Y11352*
X43292*
G37*
X44106Y11836D02*
G36*
X43947D01*
G75*
G02X44044Y11774I-201J-413*
G01*
X44106Y11836*
G37*
X44829D02*
G36*
X44567D01*
X44203Y11472*
G75*
G02X44206Y11423I-466J-50*
G01*
G75*
G02X44201Y11352I-460J0*
G01*
X44468*
X44829Y11714*
Y11836*
G37*
X46668D02*
G36*
X46263D01*
Y11570*
X46403*
G75*
G02X46668Y11836I430J-163*
G01*
G37*
X45946Y11352D02*
G36*
G75*
G02X45937Y11407I153J55D01*
G01*
Y11836*
X45155*
Y11646*
Y11646*
G75*
G02X45108Y11531I-163*
G01*
X44929Y11352*
X45946*
G37*
X49478D02*
G36*
G75*
G02X49476Y11395I458J43D01*
G01*
G75*
G02X49806Y11836I460*
G01*
X46998*
G75*
G02X47293Y11407I-165J-429*
G01*
Y11407*
Y11407*
G75*
G02X47289Y11352I-460J0*
G01*
X49478*
G37*
X60387Y11836D02*
G36*
X60206D01*
G75*
G02X59499I-353*
G01*
X57080*
G75*
G02X56560Y11525I-353J0*
G01*
X56388Y11352*
X60387*
Y11836*
G37*
X60713D02*
G36*
Y11352D01*
X61790*
Y11836*
X60713*
G37*
X12854D02*
G36*
X12338Y12352D01*
X3600*
Y11836*
X12854*
G37*
X14151D02*
G36*
X13635Y12352D01*
X12844*
X13359Y11836*
X14151*
G37*
X40731D02*
G36*
X40473Y12095D01*
X28255*
G75*
G02X28136Y12144I0J167*
G01*
X27928Y12352*
X14096*
X14612Y11836*
X40731*
G37*
X60387Y12352D02*
G36*
X53608D01*
G75*
G02X52688I-460*
G01*
X50393*
G75*
G02X49478I-458J43*
G01*
X47289*
G75*
G02X46377I-456J55*
G01*
X45980*
X46215Y12117*
G75*
G02X46263Y12002I-115J-115*
G01*
Y12002*
Y11836*
X46668*
G75*
G02X46998I165J-429*
G01*
X49806*
G75*
G02X50065I130J-441*
G01*
X56373*
G75*
G02X57080I353*
G01*
X59499*
G75*
G02X60206I353*
G01*
X60387*
Y12352*
G37*
X44335D02*
G36*
X44201D01*
G75*
G02X43292I-454J71*
G01*
X40687*
X41203Y11836*
X43545*
G75*
G02X43947I201J-413*
G01*
X44106*
X44335Y12065*
Y12352*
G37*
X44829D02*
G36*
X44661D01*
Y11998*
Y11998*
G75*
G02X44614Y11882I-163*
G01*
X44567Y11836*
X44829*
Y12352*
G37*
X45937Y11836D02*
G36*
Y11934D01*
X45519Y12352*
X45155*
Y11836*
X45937*
G37*
X60713Y12352D02*
G36*
Y11836D01*
X61790*
Y12352*
X60713*
G37*
X12338D02*
G36*
X11854Y12836D01*
X3600*
Y12352*
X12338*
G37*
X13635D02*
G36*
X13151Y12836D01*
X12359*
X12844Y12352*
X13635*
G37*
X27928D02*
G36*
X27444Y12836D01*
X13612*
X14096Y12352*
X27928*
G37*
X60387Y12836D02*
G36*
X60206D01*
G75*
G02X59499I-353*
G01*
X57080*
G75*
G02X56373I-353*
G01*
X50065*
G75*
G02X50395Y12395I-130J-441*
G01*
G75*
G02X50393Y12352I-460J0*
G01*
X52688*
G75*
G02X53608I460*
G01*
X60387*
Y12836*
G37*
X43292Y12352D02*
G36*
G75*
G02X43287Y12423I454J71D01*
G01*
G75*
G02X43545Y12836I460*
G01*
X27915*
X28323Y12428*
X40541*
G75*
G02X40660Y12379I0J-167*
G01*
X40687Y12352*
X43292*
G37*
X44031Y12836D02*
G36*
X43947D01*
G75*
G02X44206Y12423I-201J-413*
G01*
G75*
G02X44201Y12352I-460J0*
G01*
X44335*
Y12532*
X44031Y12836*
G37*
X44829Y12352D02*
G36*
Y12461D01*
X44658Y12632*
G75*
G02X44661Y12600I-157J-33*
G01*
Y12599*
Y12352*
X44829*
G37*
X45519D02*
G36*
X45035Y12836D01*
X44915*
X45108Y12644*
G75*
G02X45155Y12528I-115J-115*
G01*
Y12528*
Y12352*
X45519*
G37*
X46377D02*
G36*
G75*
G02X46373Y12407I456J55D01*
G01*
G75*
G02X46668Y12836I460*
G01*
X45496*
X45980Y12352*
X46377*
G37*
X49478D02*
G36*
G75*
G02X49476Y12395I458J43D01*
G01*
G75*
G02X49806Y12836I460*
G01*
X46998*
G75*
G02X47293Y12407I-165J-429*
G01*
G75*
G02X47289Y12352I-460J0*
G01*
X49478*
G37*
X60713Y12836D02*
G36*
Y12352D01*
X61790*
Y12836*
X60713*
G37*
X11854D02*
G36*
X10854Y13836D01*
X3600*
Y12836*
X11854*
G37*
X13151D02*
G36*
X12151Y13836D01*
X11359*
X12359Y12836*
X13151*
G37*
X27444D02*
G36*
X26444Y13836D01*
X12612*
X13612Y12836*
X27444*
G37*
X60387Y13836D02*
G36*
X60206D01*
G75*
G02X59499I-353*
G01*
X57080*
Y13483*
X56373*
Y13836*
X51644*
G75*
G02X51439I-102J350*
G01*
X44496*
X45496Y12836*
X46668*
G75*
G02X46998I165J-429*
G01*
X49806*
G75*
G02X50065I130J-441*
G01*
X56373*
G75*
G02X57080I353*
G01*
X59499*
G75*
G02X60206I353*
G01*
X60387*
Y13836*
G37*
X41595D02*
G36*
X41350D01*
X41615Y13571*
G75*
G02X41895Y13536I99J-351*
G01*
X41595Y13836*
G37*
X44031Y12836D02*
G36*
X43977Y12890D01*
X42609*
G75*
G02X42493Y12938I0J163*
G01*
X42031Y13400*
G75*
G02X42079Y13219I-317J-181*
G01*
Y13219*
G75*
G02X41349I-365*
G01*
G75*
G02X41363Y13318I366J0*
G01*
X40844Y13836*
X26915*
X27915Y12836*
X43545*
G75*
G02X43947I201J-413*
G01*
X44031*
G37*
X45035D02*
G36*
X44035Y13836D01*
X42512*
X42568Y13781*
X43903*
G75*
G02X44018Y13733I0J-163*
G01*
X44915Y12836*
X45035*
G37*
X60713Y13836D02*
G36*
Y12836D01*
X61790*
Y13836*
X60713*
G37*
X10854D02*
G36*
X8791Y15900D01*
G75*
G02X8777Y15915I126J127*
G01*
X3600*
Y13836*
X10854*
G37*
X12151D02*
G36*
X10072Y15915D01*
X9281*
X11359Y13836*
X12151*
G37*
X26444D02*
G36*
X24365Y15915D01*
X10533*
X12612Y13836*
X26444*
G37*
X60387Y15915D02*
G36*
X52122D01*
Y15257*
G75*
G02X52324Y14931I-163J-327*
G01*
G75*
G02X51705Y14669I-365J0*
G01*
Y14513*
G75*
G02X51907Y14187I-163J-327*
G01*
G75*
G02X51644Y13836I-365*
G01*
X56373*
Y14190*
X57080*
Y13836*
X59499*
G75*
G02X60206I353*
G01*
X60387*
Y15915*
G37*
X40844Y13836D02*
G36*
X38765Y15915D01*
X24837*
X26915Y13836*
X40844*
G37*
X41595D02*
G36*
X39516Y15915D01*
X39271*
X41350Y13836*
X41595*
G37*
X43213Y15915D02*
G36*
X42296D01*
X42373Y15838*
X43136*
X43213Y15915*
G37*
X44035Y13836D02*
G36*
X43938Y13933D01*
X42498*
G75*
G02X42383Y13981I0J163*
G01*
X40449Y15915*
X40434*
X42512Y13836*
X44035*
G37*
X44276Y15915D02*
G36*
X43674D01*
X43319Y15560*
G75*
G02X43203Y15512I-115J115*
G01*
X42305*
G75*
G02X42190Y15560I0J163*
G01*
X41835Y15915*
X41745*
X42282Y15377*
X43738*
X44276Y15915*
G37*
X51439Y13836D02*
G36*
G75*
G02X51177Y14187I102J350D01*
G01*
Y14187*
G75*
G02X51379Y14513I365*
G01*
Y14726*
G75*
G02X50743Y14970I-271J244*
G01*
Y14970*
G75*
G02X50945Y15297I365*
G01*
Y15915*
X49950*
G75*
G02X49031I-460*
G01*
X48950*
G75*
G02X48031I-460*
G01*
X47950*
G75*
G02X47031I-460*
G01*
X46950*
G75*
G02X46031I-460*
G01*
X45950*
G75*
G02X45491Y15455I-460*
G01*
G75*
G02X45419Y15461I0J465*
G01*
X44660Y14702*
G75*
G02X44534Y14650I-127J126*
G01*
X42175*
X42566Y14259*
X44005*
G75*
G02X44121Y14211I0J-163*
G01*
X44496Y13836*
X51439*
G37*
X51379Y15915D02*
G36*
X51271D01*
Y15297*
G75*
G02X51379Y15215I-163J-327*
G01*
Y15915*
G37*
X60713D02*
G36*
Y13836D01*
X61790*
Y15915*
X60713*
G37*
X8777D02*
G36*
G75*
G02X8738Y16026I140J111D01*
G01*
Y16772*
X6443*
G75*
G02X4066I-1188J920*
G01*
X3600*
Y15915*
X8777*
G37*
X10072D02*
G36*
X9558Y16429D01*
G75*
G02X9441Y16585I46J157*
G01*
Y16772*
X9095*
Y16100*
X9281Y15915*
X10072*
G37*
X24365D02*
G36*
X23562Y16718D01*
G75*
G02X23526Y16772I118J118*
G01*
X9767*
Y16681*
X10533Y15915*
X24365*
G37*
X60387Y16772D02*
G36*
X59369D01*
G75*
G02X58352I-509*
G01*
X56786*
G75*
G02X56140I-323J170*
G01*
X52122*
Y15915*
X60387*
Y16772*
G37*
X39516Y15915D02*
G36*
X38659Y16772D01*
X38413*
X39271Y15915*
X39516*
G37*
X38765D02*
G36*
X37908Y16772D01*
X23979*
X24837Y15915*
X38765*
G37*
X41835D02*
G36*
X40978Y16772D01*
X40887*
X41745Y15915*
X41835*
G37*
X40434D02*
G36*
X40449D01*
X39592Y16772*
X39576*
X40434Y15915*
G37*
X44070Y16772D02*
G36*
X41439D01*
X42296Y15915*
X43213*
X44070Y16772*
G37*
X46078D02*
G36*
X44531D01*
X44393Y16635*
G75*
G02X44381Y16623I-121J121*
G01*
G75*
G02X44369Y16611I-133J108*
G01*
X43674Y15915*
X44276*
X44930Y16570*
G75*
G02X45046Y16617I115J-115*
G01*
X45923*
X46078Y16772*
G37*
X50945D02*
G36*
X46539D01*
X46106Y16339*
G75*
G02X45991Y16291I-115J115*
G01*
X45754*
G75*
G02X45950Y15915I-264J-376*
G01*
X46031*
G75*
G02X46950I460*
G01*
X47031*
G75*
G02X47950I460*
G01*
X48031*
G75*
G02X48950I460*
G01*
X49031*
G75*
G02X49950I460*
G01*
X50945*
Y16772*
G37*
X51379D02*
G36*
X51271D01*
Y15915*
X51379*
Y16772*
G37*
X60713D02*
G36*
Y15915D01*
X61790*
Y16772*
X60713*
G37*
X3754Y17608D02*
G36*
X3600D01*
Y16772*
X4066*
G75*
G02X3754Y17608I1188J920*
G01*
G37*
X8738D02*
G36*
X6755D01*
G75*
G02X6443Y16772I-1501J85*
G01*
X8738*
Y17608*
G37*
X9441D02*
G36*
X9095D01*
Y16772*
X9441*
Y17608*
G37*
X23526Y16772D02*
G36*
G75*
G02X23513Y16836I154J64D01*
G01*
Y16836*
Y16951*
G75*
G02X23274Y17321I167J369*
G01*
Y17321*
G75*
G02X23394Y17608I405*
G01*
X9767*
Y16772*
X23526*
G37*
X56140D02*
G36*
G75*
G02X56098Y16943I323J170D01*
G01*
G75*
G02X56284Y17261I365J0*
G01*
Y17608*
X55545*
G75*
G02X54625I-460*
G01*
X52122*
Y16772*
X56140*
G37*
X38659D02*
G36*
X37823Y17608D01*
X37577*
X38413Y16772*
X38659*
G37*
X37908D02*
G36*
X37072Y17608D01*
X23965*
G75*
G02X24084Y17321I-285J-287*
G01*
Y17321*
G75*
G02X23846Y16951I-405*
G01*
Y16905*
X23979Y16772*
X37908*
G37*
X40887D02*
G36*
X40978D01*
X40142Y17608*
X40052*
X40887Y16772*
G37*
X39576D02*
G36*
X39592D01*
X38756Y17608*
X38741*
X39576Y16772*
G37*
X44906Y17608D02*
G36*
X43758D01*
X43830Y17537*
G75*
G02X44296Y17187I102J-351*
G01*
G75*
G02X43566I-365*
G01*
Y17187*
G75*
G02X43579Y17282I363*
G01*
X43248Y17608*
X40603*
X41439Y16772*
X44070*
X44100Y16802*
G75*
G02X44202Y16904I154J-53*
G01*
X44906Y17608*
G37*
X46914D02*
G36*
X45367D01*
X44531Y16772*
X46078*
X46914Y17608*
G37*
X50945D02*
G36*
X47375D01*
X46539Y16772*
X50945*
Y17608*
G37*
X51379D02*
G36*
X51271D01*
Y16772*
X51379*
Y17608*
G37*
X60387D02*
G36*
X56642D01*
Y17261*
G75*
G02X56828Y16943I-179J-318*
G01*
G75*
G02X56786Y16772I-365J0*
G01*
X58352*
G75*
G02X59369I509*
G01*
X60387*
Y17608*
G37*
X60713D02*
G36*
Y16772D01*
X61790*
Y17608*
X60713*
G37*
X3754D02*
G36*
G75*
G02X3751Y17693I1501J85D01*
G01*
G75*
G02X4062Y18608I1503J0*
G01*
X3600*
Y17608*
X3754*
G37*
X8738Y18608D02*
G36*
X6446D01*
G75*
G02X6757Y17693I-1192J-915*
G01*
G75*
G02X6755Y17608I-1503J0*
G01*
X8738*
Y18608*
G37*
X9441D02*
G36*
X9095D01*
Y17608*
X9441*
Y18608*
G37*
X37072Y17608D02*
G36*
X36072Y18608D01*
X23064*
G75*
G02X22145I-459J20*
G01*
X21064*
G75*
G02X20145I-459J20*
G01*
X9767*
Y17608*
X23394*
G75*
G02X23965I285J-287*
G01*
X37072*
G37*
X37823D02*
G36*
X36823Y18608D01*
X36577*
X37577Y17608*
X37823*
G37*
X40052D02*
G36*
X40142D01*
X39142Y18608*
X39052*
X40052Y17608*
G37*
X38741D02*
G36*
X38756D01*
X37756Y18608*
X37741*
X38741Y17608*
G37*
X43248D02*
G36*
X42885Y17965D01*
G75*
G02X42831Y18092I125J127*
G01*
Y18092*
Y18608*
X39603*
X40603Y17608*
X43248*
G37*
X45149Y18608D02*
G36*
X43189D01*
Y18167*
X43758Y17608*
X44906*
X45328Y18030*
Y18485*
G75*
G02X45149Y18608I163J430*
G01*
G37*
X56284D02*
G36*
X55545D01*
G75*
G02X54625I-460*
G01*
X52122*
Y17608*
X54625*
G75*
G02X55545I460*
G01*
X56284*
Y18608*
G37*
X47149D02*
G36*
X46833D01*
G75*
G02X46491Y18455I-342J307*
G01*
G75*
G02X46149Y18608J460*
G01*
X45833*
G75*
G02X45654Y18485I-342J307*
G01*
Y17962*
Y17962*
G75*
G02X45606Y17847I-163*
G01*
X45367Y17608*
X46914*
X47328Y18022*
Y18485*
G75*
G02X47149Y18608I163J430*
G01*
G37*
X50945D02*
G36*
X49833D01*
G75*
G02X49149I-342J307*
G01*
X48833*
G75*
G02X48149I-342J307*
G01*
X47833*
G75*
G02X47654Y18485I-342J307*
G01*
Y17954*
Y17954*
G75*
G02X47606Y17839I-163*
G01*
X47375Y17608*
X50945*
Y18608*
G37*
X51379D02*
G36*
X51271D01*
Y17608*
X51379*
Y18608*
G37*
X60387D02*
G36*
X59369D01*
Y18264*
X58352*
Y18608*
X56642*
Y17608*
X60387*
Y18608*
G37*
X60713D02*
G36*
Y17608D01*
X61790*
Y18608*
X60713*
G37*
X8738Y19608D02*
G36*
X7249D01*
G75*
G02X7249Y19589I-365J-19*
G01*
G75*
G02X6519I-365*
G01*
Y19589*
G75*
G02X6520Y19608I365J0*
G01*
X3600*
Y18608*
X4062*
G75*
G02X6446I1192J-915*
G01*
X8738*
Y19608*
G37*
X9441D02*
G36*
X9095D01*
Y18608*
X9441*
Y19608*
G37*
X36072Y18608D02*
G36*
X35072Y19608D01*
X9767*
Y18608*
X20145*
G75*
G02X20145Y18628I459J20*
G01*
G75*
G02X21064I460*
G01*
G75*
G02X21064Y18608I-460J0*
G01*
X22145*
G75*
G02X22145Y18628I459J20*
G01*
G75*
G02X23064I460*
G01*
G75*
G02X23064Y18608I-460J0*
G01*
X36072*
G37*
X36823D02*
G36*
X35823Y19608D01*
X35577*
X36577Y18608*
X36823*
G37*
X39052D02*
G36*
X39142D01*
X38142Y19608*
X38052*
X39052Y18608*
G37*
X37741D02*
G36*
X37756D01*
X36756Y19608*
X36741*
X37741Y18608*
G37*
X42831Y19608D02*
G36*
X38603D01*
X39603Y18608*
X42831*
Y19608*
G37*
X46883D02*
G36*
X43899D01*
G75*
G02X43594I-152J332*
G01*
X43189*
Y18608*
X45149*
G75*
G02X45031Y18915I342J307*
G01*
G75*
G02X45491Y19375I460*
G01*
G75*
G02X45950Y18915J-460*
G01*
G75*
G02X45833Y18608I-460*
G01*
X46149*
G75*
G02X46031Y18915I342J307*
G01*
G75*
G02X46491Y19375I460*
G01*
G75*
G02X46629Y19353J-460*
G01*
X46883Y19608*
G37*
X56284D02*
G36*
X55545D01*
G75*
G02X54625I-460*
G01*
X52282*
G75*
G02X52122Y19452I-323J170*
G01*
Y18608*
X54625*
G75*
G02X55545I460*
G01*
X56284*
Y19608*
G37*
X50945D02*
G36*
X47389D01*
X46902Y19121*
G75*
G02X46950Y18915I-411J-206*
G01*
G75*
G02X46833Y18608I-460*
G01*
X47149*
G75*
G02X47031Y18915I342J307*
G01*
G75*
G02X47950I460*
G01*
G75*
G02X47833Y18608I-460*
G01*
X48149*
G75*
G02X48031Y18915I342J307*
G01*
G75*
G02X48950I460*
G01*
G75*
G02X48833Y18608I-460*
G01*
X49149*
G75*
G02X49031Y18915I342J307*
G01*
G75*
G02X49950I460*
G01*
G75*
G02X49833Y18608I-460*
G01*
X50945*
Y19608*
G37*
X51379D02*
G36*
X51271D01*
Y18608*
X51379*
Y19608*
G37*
X60387D02*
G36*
X56642D01*
Y18608*
X58352*
Y19281*
X59369*
Y18608*
X60387*
Y19608*
G37*
X60713D02*
G36*
Y18608D01*
X61790*
Y19608*
X60713*
G37*
X6520D02*
G36*
G75*
G02X6721Y19916I364J-19D01*
G01*
Y20127*
X3600*
Y19608*
X6520*
G37*
X8738Y20127D02*
G36*
X7047D01*
Y19916*
G75*
G02X7249Y19608I-163J-327*
G01*
X8738*
Y20127*
G37*
X9441D02*
G36*
X9095D01*
Y19608*
X9441*
Y20127*
G37*
X35072Y19608D02*
G36*
X34553Y20127D01*
X31488*
G75*
G02X30568I-460*
G01*
X29488*
G75*
G02X28568I-460*
G01*
X9767*
Y19608*
X35072*
G37*
X35823D02*
G36*
X35304Y20127D01*
X35058*
X35577Y19608*
X35823*
G37*
X36741D02*
G36*
X36756D01*
X36237Y20127*
X36222*
X36741Y19608*
G37*
X38052D02*
G36*
X38142D01*
X37623Y20127*
X37533*
X38052Y19608*
G37*
X42831Y20127D02*
G36*
X42712D01*
G75*
G02X42726Y20029I-352J-98*
G01*
G75*
G02X41996I-365*
G01*
Y20029*
G75*
G02X42009Y20127I365*
G01*
X38084*
X38603Y19608*
X42831*
Y20127*
G37*
X43433D02*
G36*
X43189D01*
Y19608*
X43594*
G75*
G02X43381Y19940I152J332*
G01*
Y19940*
G75*
G02X43433Y20127I365*
G01*
G37*
X47402D02*
G36*
X44060D01*
G75*
G02X44111Y19940I-314J-187*
G01*
G75*
G02X43899Y19608I-365*
G01*
X46883*
X47402Y20127*
G37*
X56284D02*
G36*
X52069D01*
G75*
G02X52324Y19779I-110J-348*
G01*
Y19778*
G75*
G02X52282Y19608I-365*
G01*
X54625*
G75*
G02X55545I460*
G01*
X56284*
Y20127*
G37*
X50945D02*
G36*
X48781D01*
G75*
G02Y20124I-365J-1*
G01*
G75*
G02X48051I-365*
G01*
G75*
G02Y20127I365J1*
G01*
X47908*
X47389Y19608*
X50945*
Y20127*
G37*
X51849D02*
G36*
X51705D01*
Y20040*
G75*
G02X51849Y20127I254J-262*
G01*
G37*
X51379Y19608D02*
G36*
Y20127D01*
X51271*
Y19608*
X51379*
G37*
X60387Y20127D02*
G36*
X56642D01*
Y19608*
X60387*
Y20127*
G37*
X60713D02*
G36*
Y19608D01*
X61790*
Y20127*
X60713*
G37*
X6721Y21551D02*
G36*
X6709D01*
G75*
G02X3713I-1498J121*
G01*
X3600*
Y20127*
X6721*
Y21551*
G37*
X8738D02*
G36*
X7047D01*
Y20127*
X8738*
Y21551*
G37*
X9441D02*
G36*
X9095D01*
Y20127*
X9441*
Y21551*
G37*
X34553Y20127D02*
G36*
X33128Y21551D01*
X9767*
Y20127*
X28568*
G75*
G02X29488I460*
G01*
X30568*
G75*
G02X31488I460*
G01*
X34553*
G37*
X35304D02*
G36*
X33880Y21551D01*
X33634*
X35058Y20127*
X35304*
G37*
X36222D02*
G36*
X36237D01*
X34813Y21551*
X34797*
X36222Y20127*
G37*
X37533D02*
G36*
X37623D01*
X36199Y21551*
X36108*
X37533Y20127*
G37*
X42009D02*
G36*
G75*
G02X42198Y20356I352J-97D01*
G01*
Y21551*
X40734*
Y21373*
G75*
G02X40936Y21047I-163J-327*
G01*
G75*
G02X40248Y20877I-365J0*
G01*
G75*
G02X39582Y21084I-301J207*
G01*
Y21084*
G75*
G02X39768Y21402I365J0*
G01*
Y21551*
X36660*
X38084Y20127*
X42009*
G37*
X42831Y21551D02*
G36*
X42524D01*
Y20356*
G75*
G02X42712Y20127I-163J-327*
G01*
X42831*
Y21551*
G37*
X44928D02*
G36*
X43189D01*
Y20127*
X43433*
G75*
G02X43674Y20297I313J-187*
G01*
X44928Y21551*
G37*
X46919D02*
G36*
X45389D01*
X44019Y20182*
G75*
G02X44060Y20127I-273J-242*
G01*
X47402*
X47607Y20332*
Y21486*
G75*
G02X46919Y21551I-333J149*
G01*
G37*
X56284Y20127D02*
G36*
Y21161D01*
X55894Y21551*
X51705*
Y20127*
X51849*
G75*
G02X52069I110J-348*
G01*
X56284*
G37*
X48051D02*
G36*
G75*
G02X48237Y20442I365J-3D01*
G01*
Y21551*
X47965*
Y20258*
G75*
G02X47912Y20131I-179*
G01*
X47908Y20127*
X48051*
G37*
X50945Y21551D02*
G36*
X48594D01*
Y20442*
G75*
G02X48781Y20127I-179J-318*
G01*
X50945*
Y21551*
G37*
X51379D02*
G36*
X51271D01*
Y20127*
X51379*
Y21551*
G37*
X60387D02*
G36*
X56400D01*
X56589Y21362*
G75*
G02X56642Y21235I-126J-127*
G01*
Y20127*
X60387*
Y21551*
G37*
X60713D02*
G36*
Y20127D01*
X61790*
Y21551*
X60713*
G37*
X3713D02*
G36*
G75*
G02X3708Y21672I1498J121D01*
G01*
G75*
G02X4410Y22944I1503*
G01*
X3600*
Y21551*
X3713*
G37*
X6721Y22944D02*
G36*
X6012D01*
G75*
G02X6714Y21672I-801J-1272*
G01*
G75*
G02X6709Y21551I-1503J0*
G01*
X6721*
Y22944*
G37*
X8738D02*
G36*
X7047D01*
Y21551*
X8738*
Y22944*
G37*
X9441D02*
G36*
X9095D01*
Y21551*
X9441*
Y22944*
G37*
X33128Y21551D02*
G36*
X32798Y21881D01*
X23655*
G75*
G02X23528Y21934J179*
G01*
X22518Y22944*
X9767*
Y21551*
X33128*
G37*
X33048Y22944D02*
G36*
X32948D01*
X33076Y22816*
G75*
G02X33048Y22907I136J91*
G01*
Y22944*
G37*
X33880Y21551D02*
G36*
X32584Y22847D01*
G75*
G02X32537Y22944I115J115*
G01*
X23024*
X23729Y22239*
X32757*
G75*
G02X32974Y22211I90J-154*
G01*
X33634Y21551*
X33880*
G37*
X34797D02*
G36*
X34813D01*
X33627Y22737*
G75*
G02X33579Y22852I115J115*
G01*
Y22852*
Y22944*
X33405*
X34797Y21551*
G37*
X36660D02*
G36*
X39768D01*
Y22944*
X35267*
X36660Y21551*
G37*
X36108D02*
G36*
X36199D01*
X34911Y22839*
G75*
G02X34863Y22944I115J115*
G01*
X34803*
Y22857*
X36108Y21551*
G37*
X42198Y22944D02*
G36*
X40734D01*
Y21551*
X42198*
Y22944*
G37*
X42831D02*
G36*
X42524D01*
Y21551*
X42831*
Y22944*
G37*
X45731D02*
G36*
X44213D01*
G75*
G02X43311I-451J87*
G01*
X43189*
Y21551*
X44928*
X45798Y22422*
Y22877*
X45731Y22944*
G37*
X46919Y21551D02*
G36*
G75*
G02X46909Y21636I355J84D01*
G01*
Y21636*
G75*
G02X47111Y21962I365*
G01*
Y22838*
G75*
G02X46204Y22944I-447J106*
G01*
X46124*
Y22354*
Y22354*
G75*
G02X46076Y22239I-163*
G01*
X45389Y21551*
X46919*
G37*
X47607Y22944D02*
G36*
X47437D01*
Y21962*
G75*
G02X47607Y21785I-163J-327*
G01*
Y22944*
G37*
X55894Y21551D02*
G36*
X54501Y22944D01*
X53210*
G75*
G02X52291I-460*
G01*
X51793*
X51705Y22855*
Y21551*
X55894*
G37*
X48237Y22944D02*
G36*
X47965D01*
Y21551*
X48237*
Y22944*
G37*
X50945Y21551D02*
G36*
Y22699D01*
X50700Y22944*
X50149*
G75*
G02X50151Y22906I-458J-38*
G01*
G75*
G02X49232I-460*
G01*
G75*
G02X49233Y22944I460J0*
G01*
X48594*
Y21551*
X50945*
G37*
X51380Y22944D02*
G36*
X51161D01*
X51223Y22882*
G75*
G02X51271Y22766I-115J-115*
G01*
Y22766*
Y21551*
X51379*
Y22923*
Y22923*
G75*
G02X51380Y22944I163*
G01*
G37*
X60387Y21551D02*
G36*
Y22663D01*
X60105Y22944*
X59756*
G75*
G02X59761Y22872I-454J-72*
G01*
G75*
G02X58842I-460*
G01*
G75*
G02X58848Y22944I460J0*
G01*
X56590*
G75*
G02X56592Y22906I-458J-38*
G01*
G75*
G02X55673I-460*
G01*
G75*
G02X55674Y22944I460J0*
G01*
X55007*
X56400Y21551*
X60387*
G37*
X60713D02*
G36*
X61790D01*
Y22944*
X60566*
X60665Y22845*
G75*
G02X60713Y22730I-115J-115*
G01*
Y22730*
Y21551*
G37*
X8738Y23906D02*
G36*
X3600D01*
Y22944*
X4410*
G75*
G02X6012I801J-1272*
G01*
X6721*
Y23187*
G75*
G02X6519Y23514I163J327*
G01*
G75*
G02X7249I365*
G01*
Y23513*
G75*
G02X7047Y23187I-365*
G01*
Y22944*
X8738*
Y23906*
G37*
X9763D02*
G36*
X9095D01*
Y22944*
X9441*
Y23516*
Y23516*
G75*
G02X9489Y23632I163*
G01*
X9763Y23906*
G37*
X22518Y22944D02*
G36*
X22201Y23261D01*
X20631*
G75*
G02X20504Y23313I0J179*
G01*
X19911Y23906*
X10224*
X9767Y23449*
Y22944*
X22518*
G37*
X23693Y23906D02*
G36*
X23323D01*
X23403Y23826*
X23754*
G75*
G02X23693Y23906I257J259*
G01*
G37*
X24835D02*
G36*
X24329D01*
G75*
G02X24268Y23826I-318J179*
G01*
X24755*
X24835Y23906*
G37*
X32537Y22944D02*
G36*
G75*
G02X32536Y22962I162J19D01*
G01*
Y22962*
Y23906*
X25341*
X24956Y23521*
G75*
G02X24829Y23469I-127J126*
G01*
X23329*
G75*
G02X23203Y23521I0J179*
G01*
X22817Y23906*
X20416*
X20704Y23618*
X22301*
G75*
G02X22470Y23498I0J-179*
G01*
X23024Y22944*
X32537*
G37*
X33048D02*
G36*
Y23906D01*
X32862*
Y23030*
X32948Y22944*
X33048*
G37*
X34863D02*
G36*
G75*
G02X34863Y22954I163J11D01*
G01*
Y22954*
Y23906*
X34803*
Y22944*
X34863*
G37*
X35267D02*
G36*
X39768D01*
Y23906*
X35189*
Y23022*
X35267Y22944*
G37*
X33405D02*
G36*
X33579D01*
Y23906*
X33374*
Y22975*
X33405Y22944*
G37*
X42198D02*
G36*
Y23216D01*
G75*
G02X42182Y23286I147J70*
G01*
Y23286*
Y23906*
X40734*
Y22944*
X42198*
G37*
X43320Y23906D02*
G36*
X42508D01*
Y23340*
G75*
G02X42524Y23271I-147J-70*
G01*
Y23270*
Y22944*
X42831*
Y23321*
G75*
G02X42884Y23447I179J0*
G01*
X43325Y23888*
G75*
G02X43320Y23906I437J143*
G01*
G37*
X45731Y22944D02*
G36*
X45364Y23311D01*
G75*
G02X45316Y23427I115J115*
G01*
Y23427*
Y23874*
Y23874*
G75*
G02X45319Y23906I163J0*
G01*
X44205*
G75*
G02X43762Y23572I-442J125*
G01*
G75*
G02X43561Y23618I0J460*
G01*
X43189Y23247*
Y22944*
X43311*
G75*
G02X43303Y23031I451J87*
G01*
G75*
G02X44222I460*
G01*
G75*
G02X44213Y22944I-460J0*
G01*
X45731*
G37*
X46204D02*
G36*
G75*
G02X47111Y23050I460D01*
G01*
Y23317*
X46886Y23542*
G75*
G02X46206Y23906I-223J402*
G01*
X45742*
X45642Y23806*
Y23494*
X46076Y23060*
G75*
G02X46124Y22945I-115J-115*
G01*
Y22945*
Y22944*
X46204*
G37*
X47607Y23906D02*
G36*
X47122D01*
G75*
G02X47098Y23792I-458J37*
G01*
X47389Y23500*
G75*
G02X47437Y23385I-115J-115*
G01*
Y23385*
Y22944*
X47607*
Y23906*
G37*
X54501Y22944D02*
G36*
X53539Y23906D01*
X53208*
G75*
G02X52447Y23598I-458J37*
G01*
X51793Y22944*
X52291*
G75*
G02X53210I460*
G01*
X54501*
G37*
X48237Y23906D02*
G36*
X47965D01*
Y22944*
X48237*
Y23906*
G37*
X50700Y22944D02*
G36*
X50038Y23605D01*
G75*
G02X49232Y23906I-347J301*
G01*
Y23906*
X48594*
Y22944*
X49233*
G75*
G02X50149I458J-37*
G01*
X50700*
G37*
X52292Y23906D02*
G36*
X50198D01*
X51161Y22944*
X51380*
G75*
G02X51427Y23038I162J-21*
G01*
X52292Y23904*
G75*
G02X52292Y23906I475J44*
G01*
G37*
X60105Y22944D02*
G36*
X59558Y23491D01*
G75*
G02X58842Y23872I-257J381*
G01*
G75*
G02X58843Y23906I460J0*
G01*
X56592*
G75*
G02X55673I-460*
G01*
X54045*
X55007Y22944*
X55674*
G75*
G02X56590I458J-37*
G01*
X58848*
G75*
G02X59756I454J-72*
G01*
X60105*
G37*
X60566D02*
G36*
X61790D01*
Y23906*
X59760*
G75*
G02X59761Y23872I-458J-35*
G01*
G75*
G02X59748Y23762I-461J0*
G01*
X60566Y22944*
G37*
X9381Y24906D02*
G36*
X3600D01*
Y23906*
X8738*
Y24188*
G75*
G02X8790Y24314I179J0*
G01*
X9381Y24906*
G37*
X10763D02*
G36*
X9886D01*
X9095Y24114*
Y23906*
X9763*
X10763Y24906*
G37*
X19911Y23906D02*
G36*
X19126Y24691D01*
G75*
G02X19084Y24758I126J126*
G01*
X18935Y24906*
X11224*
X10224Y23906*
X19911*
G37*
X22817D02*
G36*
X21816Y24906D01*
X19419*
G75*
G02X19421Y24902I-167J-65*
G01*
X20416Y23906*
X22817*
G37*
X23693D02*
G36*
G75*
G02X23646Y24085I318J179D01*
G01*
G75*
G02X23848Y24412I365*
G01*
Y24906*
X22321*
X23323Y23906*
X23693*
G37*
X25835Y24906D02*
G36*
X24174D01*
Y24412*
G75*
G02X24376Y24085I-163J-327*
G01*
G75*
G02X24329Y23906I-365*
G01*
X24835*
X25835Y24906*
G37*
X32536Y23906D02*
G36*
Y24314D01*
G75*
G02X32047Y24657I-124J343*
G01*
G75*
G02X32145Y24906I365J0*
G01*
X26341*
X25341Y23906*
X32536*
G37*
X33048Y24906D02*
G36*
X32678D01*
G75*
G02X32741Y24815I-267J-249*
G01*
G75*
G02X32862Y24657I-42J-157*
G01*
Y24657*
Y23906*
X33048*
Y24906*
G37*
X33983D02*
G36*
X33374D01*
Y23906*
X33579*
Y23943*
G75*
G02X33377Y24269I163J327*
G01*
G75*
G02X34001Y24527I365J0*
G01*
Y24888*
X33983Y24906*
G37*
X34863D02*
G36*
X34803D01*
Y23906*
X34863*
Y24906*
G37*
X39768D02*
G36*
X35189D01*
Y23906*
X39768*
Y24906*
G37*
X43031D02*
G36*
X40734D01*
Y23906*
X42182*
Y23990*
Y23990*
G75*
G02X42230Y24105I163*
G01*
X43031Y24906*
G37*
X46206D02*
G36*
X44205D01*
G75*
G02X43373Y24787I-442J125*
G01*
X42508Y23922*
Y23906*
X43320*
G75*
G02X43303Y24031I442J125*
G01*
G75*
G02X43762Y24491I460*
G01*
G75*
G02X44222Y24031J-460*
G01*
G75*
G02X44205Y23906I-460J0*
G01*
X45319*
G75*
G02X45364Y23989I160J-33*
G01*
X46216Y24841*
G75*
G02X46206Y24906I451J103*
G01*
G37*
X47607D02*
G36*
X47122D01*
G75*
G02X46402Y24566I-458J37*
G01*
X45742Y23906*
X46206*
G75*
G02X46204Y23944I458J38*
G01*
G75*
G02X47123I460*
G01*
Y23944*
G75*
G02X47122Y23906I-459J0*
G01*
X47607*
Y24906*
G37*
X53539Y23906D02*
G36*
X52926Y24519D01*
G75*
G02X52292Y24906I-176J425*
G01*
X50151*
G75*
G02X49232I-460*
G01*
X48594*
Y23906*
X49232*
G75*
G02X50148Y23956I460*
G01*
X50198Y23906*
X52292*
G75*
G02X52291Y23944I474J38*
G01*
G75*
G02X53210I460*
G01*
G75*
G02X53208Y23906I-460J0*
G01*
X53539*
G37*
X48237Y24906D02*
G36*
X47965D01*
Y23906*
X48237*
Y24906*
G37*
X59760Y23906D02*
G36*
X61790D01*
Y24906*
X59760*
G75*
G02X59761Y24872I-458J-35*
G01*
G75*
G02X58842I-460*
G01*
G75*
G02X58843Y24906I460J0*
G01*
X56592*
G75*
G02X55673I-460*
G01*
X53208*
G75*
G02X53177Y24774I-458J37*
G01*
X54045Y23906*
X55673*
G75*
G02X56592I460*
G01*
X58843*
G75*
G02X59760I458J-35*
G01*
G37*
X10416Y25944D02*
G36*
X5658D01*
G75*
G02X5686Y25785I-431J-159*
G01*
G75*
G02X4767I-460*
G01*
G75*
G02X4795Y25944I460J0*
G01*
X3600*
Y24906*
X9381*
X10416Y25944*
G37*
X11801D02*
G36*
X10921D01*
X9886Y24906*
X10763*
X11801Y25944*
G37*
X18935Y24906D02*
G36*
X17898Y25944D01*
X16922*
G75*
G02X16922Y25919I-364J-25*
G01*
G75*
G02X16231Y25756I-365*
G01*
X12074*
X11224Y24906*
X18935*
G37*
X21816D02*
G36*
X21640Y25082D01*
G75*
G02X21587Y25208I126J126*
G01*
Y25208*
Y25944*
X18404*
X19379Y24969*
G75*
G02X19419Y24906I-127J-127*
G01*
X21816*
G37*
X23848Y25944D02*
G36*
X21945D01*
Y25282*
X22321Y24906*
X23848*
Y25944*
G37*
X33048Y24906D02*
G36*
Y24939D01*
G75*
G02X32846Y25265I163J327*
G01*
G75*
G02X32965Y25536I365*
G01*
X26970*
X26341Y24906*
X32145*
G75*
G02X32678I267J-249*
G01*
X33048*
G37*
X30039Y25944D02*
G36*
X24174D01*
Y24906*
X25835*
X26769Y25840*
G75*
G02X26896Y25893I127J-126*
G01*
X30097*
G75*
G02X30065Y25918I82J139*
G01*
X30039Y25944*
G37*
X33983Y24906D02*
G36*
X33572Y25317D01*
G75*
G02X33576Y25266I-359J-51*
G01*
Y25265*
Y25265*
G75*
G02X33374Y24939I-365*
G01*
Y24906*
X33983*
G37*
X34863D02*
G36*
Y25040D01*
X34762Y25142*
G75*
G02X34803Y25033I-121J-108*
G01*
Y25033*
Y24906*
X34863*
G37*
X40227Y25944D02*
G36*
X35540D01*
G75*
G02X35541Y25919I-366J-25*
G01*
G75*
G02X34811I-365*
G01*
Y25919*
G75*
G02X34811Y25944I365J0*
G01*
X34421*
X35141Y25223*
G75*
G02X35189Y25108I-115J-115*
G01*
Y25108*
Y24906*
X39768*
Y25411*
G75*
G02X39821Y25538I179*
G01*
X40227Y25944*
G37*
X47607D02*
G36*
X47123D01*
G75*
G02X46204I-460*
G01*
X44213*
G75*
G02X43311I-451J87*
G01*
X41185*
X40734Y25493*
Y24906*
X43031*
X43271Y25146*
G75*
G02X43329Y25184I115J-115*
G01*
G75*
G02X44222Y25031I434J-152*
G01*
G75*
G02X44205Y24906I-460J0*
G01*
X46206*
G75*
G02X46204Y24944I461J38*
G01*
G75*
G02X47123I460*
G01*
G75*
G02X47122Y24906I-460J0*
G01*
X47607*
Y25944*
G37*
X48237D02*
G36*
X47965D01*
Y24906*
X48237*
Y25944*
G37*
X53208Y24906D02*
G36*
X55673D01*
G75*
G02X56592I460*
G01*
X58843*
G75*
G02X59760I458J-35*
G01*
X61790*
Y25944*
X59756*
G75*
G02X59761Y25872I-454J-72*
G01*
G75*
G02X58842I-460*
G01*
G75*
G02X58848Y25944I460J0*
G01*
X56590*
G75*
G02X56592Y25906I-458J-38*
G01*
G75*
G02X55673I-460*
G01*
G75*
G02X55674Y25944I460J0*
G01*
X53210*
G75*
G02X52291I-460*
G01*
X50149*
G75*
G02X50151Y25906I-458J-38*
G01*
G75*
G02X49232I-460*
G01*
G75*
G02X49233Y25944I460J0*
G01*
X48594*
Y24906*
X49232*
G75*
G02X50151I460*
G01*
X52292*
G75*
G02X52291Y24944I458J38*
G01*
G75*
G02X53210I460*
G01*
Y24944*
G75*
G02X53208Y24906I-459J0*
G01*
G37*
X11414Y26944D02*
G36*
X5658D01*
G75*
G02X5686Y26785I-431J-159*
G01*
G75*
G02X4767I-460*
G01*
G75*
G02X4795Y26944I460J0*
G01*
X3600*
Y25944*
X4795*
G75*
G02X5658I431J-159*
G01*
X10416*
X11414Y26944*
G37*
X17898Y25944D02*
G36*
X16898Y26944D01*
X16595*
G75*
G02X16607Y26848I-352J-96*
G01*
G75*
G02X15924Y26669I-365*
G01*
X11645*
X10921Y25944*
X11801*
X11891Y26034*
G75*
G02X12006Y26082I115J-115*
G01*
X16231*
G75*
G02X16922Y25944I327J-163*
G01*
X17898*
G37*
X48193Y26944D02*
G36*
X47965Y26715D01*
Y25944*
X48237*
Y26891*
G75*
G02X48245Y26944I179*
G01*
X48193*
G37*
X21587Y25944D02*
G36*
Y26778D01*
X21422Y26944*
X17404*
X18404Y25944*
X21587*
G37*
X23848Y26944D02*
G36*
X21920D01*
G75*
G02X21945Y26852I-153J-92*
G01*
Y25944*
X23848*
Y26944*
G37*
X30039Y25944D02*
G36*
X29039Y26944D01*
X24174*
Y25944*
X30039*
G37*
X35324Y26944D02*
G36*
X34500D01*
G75*
G02X34513Y26848I-352J-96*
G01*
G75*
G02X33783I-365*
G01*
G75*
G02X33796Y26944I365J0*
G01*
X33421*
X34421Y25944*
X34811*
G75*
G02X35270Y26272I364J-25*
G01*
X35324Y26327*
Y26944*
G37*
X41227D02*
G36*
X35681D01*
Y26254*
G75*
G02X35630Y26129I-179J0*
G01*
X35526Y26022*
G75*
G02X35540Y25944I-352J-103*
G01*
X40227*
X41227Y26944*
G37*
X47688D02*
G36*
X47123D01*
G75*
G02X46204I-460*
G01*
X44213*
G75*
G02X43311I-451J87*
G01*
X42185*
X41185Y25944*
X43311*
G75*
G02X43303Y26031I451J87*
G01*
G75*
G02X44222I460*
G01*
G75*
G02X44213Y25944I-460J0*
G01*
X46204*
G75*
G02X47123I460*
G01*
X47607*
Y26789*
G75*
G02X47660Y26916I179*
G01*
X47688Y26944*
G37*
X48721D02*
G36*
X48594Y26817D01*
Y25944*
X49233*
G75*
G02X50149I458J-37*
G01*
X52291*
G75*
G02X53210I460*
G01*
X55674*
G75*
G02X56590I458J-37*
G01*
X58848*
G75*
G02X59756I454J-72*
G01*
X61790*
Y26944*
X59756*
G75*
G02X59761Y26872I-454J-72*
G01*
G75*
G02X58842I-460*
G01*
G75*
G02X58848Y26944I460J0*
G01*
X56590*
G75*
G02X56592Y26906I-458J-38*
G01*
G75*
G02X55673I-460*
G01*
G75*
G02X55674Y26944I460J0*
G01*
X53210*
G75*
G02X52291I-460*
G01*
X50149*
G75*
G02X50151Y26906I-458J-38*
G01*
G75*
G02X49232I-460*
G01*
G75*
G02X49233Y26944I460J0*
G01*
X48721*
G37*
X16898D02*
G36*
X16057Y27785D01*
X15725*
G75*
G02X15899Y27474I-191J-311*
G01*
G75*
G02X15207Y27311I-365*
G01*
X14395*
G75*
G02X14280Y27359I0J163*
G01*
X13854Y27785*
X5686*
G75*
G02X4767I-460*
G01*
X3600*
Y26944*
X4795*
G75*
G02X5658I431J-159*
G01*
X11414*
X11445Y26974*
G75*
G02X11571Y27027I126J-126*
G01*
X15924*
G75*
G02X16595Y26944I318J-179*
G01*
X16898*
G37*
X15343Y27785D02*
G36*
X14315D01*
X14463Y27637*
X15207*
G75*
G02X15343Y27785I327J-163*
G01*
G37*
X51572D02*
G36*
X49035D01*
X48193Y26944*
X48245*
G75*
G02X48290Y27018I171J-52*
G01*
X48954Y27683*
G75*
G02X49081Y27736I127J-126*
G01*
X51523*
X51572Y27785*
G37*
X21422Y26944D02*
G36*
X20580Y27785D01*
X16562*
X17404Y26944*
X21422*
G37*
X23848Y27785D02*
G36*
X21086D01*
X21892Y26979*
G75*
G02X21920Y26944I-126J-127*
G01*
X23848*
Y27785*
G37*
X29039Y26944D02*
G36*
X28198Y27785D01*
X24174*
Y26944*
X29039*
G37*
X33421D02*
G36*
X33796D01*
G75*
G02X33835Y27037I352J-96*
G01*
X33087Y27785*
X29300*
X29901Y27184*
X33113*
G75*
G02X33228Y27136I0J-163*
G01*
X33421Y26944*
G37*
X35324Y27785D02*
G36*
X33548D01*
X34121Y27212*
G75*
G02X34500Y26944I27J-364*
G01*
X35324*
Y27785*
G37*
X42068D02*
G36*
X35681D01*
Y26944*
X41227*
X42068Y27785*
G37*
X48529D02*
G36*
X43026D01*
X42185Y26944*
X43311*
G75*
G02X43303Y27031I451J87*
G01*
G75*
G02X44222I460*
G01*
G75*
G02X44213Y26944I-460J0*
G01*
X46204*
G75*
G02X47123I460*
G01*
X47688*
X48529Y27785*
G37*
X52077D02*
G36*
X51723Y27431D01*
G75*
G02X51597Y27378I-126J126*
G01*
X49155*
X48721Y26944*
X49233*
G75*
G02X50149I458J-37*
G01*
X52291*
G75*
G02X53210I460*
G01*
X55674*
G75*
G02X56590I458J-37*
G01*
X58848*
G75*
G02X59756I454J-72*
G01*
X61790*
Y27785*
X52077*
G37*
X13854D02*
G36*
X12854Y28785D01*
X5686*
G75*
G02X4767I-460*
G01*
X3600*
Y27785*
X4767*
G75*
G02X5686I460*
G01*
X13854*
G37*
X49079Y28785D02*
G36*
X47593D01*
G75*
G02X46915I-339J135*
G01*
X43574*
X43028Y28239*
G75*
G02X43107Y28259I79J-142*
G01*
X48553*
X49079Y28785*
G37*
X16057Y27785D02*
G36*
X15765Y28077D01*
G75*
G02X15666Y28127I28J177*
G01*
X15008Y28785*
X13315*
X14315Y27785*
X15343*
G75*
G02X15725I191J-311*
G01*
X16057*
G37*
X20580D02*
G36*
X19580Y28785D01*
X15514*
X15869Y28430*
G75*
G02X15968Y28380I-28J-177*
G01*
X16562Y27785*
X20580*
G37*
X23848Y28785D02*
G36*
X20086D01*
X21086Y27785*
X23848*
Y28785*
G37*
X28198Y27785D02*
G36*
X27198Y28785D01*
X24174*
Y27785*
X28198*
G37*
X33087D02*
G36*
X32360Y28512D01*
X29971*
G75*
G02X29855Y28560I0J163*
G01*
X29630Y28785*
X28300*
X29300Y27785*
X33087*
G37*
X35324D02*
G36*
Y28384D01*
X34923Y28785*
X32548*
X33548Y27785*
X35324*
G37*
X43068Y28785D02*
G36*
X35428D01*
X35629Y28585*
G75*
G02X35681Y28458I-126J-127*
G01*
Y27785*
X42068*
X43068Y28785*
G37*
X48529Y27785D02*
G36*
X48695Y27951D01*
G75*
G02X48620Y27933I-75J144*
G01*
X43174*
X43026Y27785*
X48529*
G37*
X52571Y28785D02*
G36*
X50035D01*
X49035Y27785*
X51572*
X52571Y28785*
G37*
X53076D02*
G36*
X52077Y27785D01*
X61790*
Y28785*
X53076*
G37*
X12854D02*
G36*
X11854Y29785D01*
X5686*
G75*
G02X4767I-460*
G01*
X3600*
Y28785*
X4767*
G75*
G02X5686I460*
G01*
X12854*
G37*
X15008D02*
G36*
X14008Y29785D01*
X12314*
X13315Y28785*
X15008*
G37*
X49910Y29785D02*
G36*
X47417D01*
Y29247*
G75*
G02X47619Y28920I-163J-327*
G01*
G75*
G02X47593Y28785I-365*
G01*
X49079*
X49910Y29616*
Y29785*
G37*
X19580Y28785D02*
G36*
X18884Y29481D01*
G75*
G02X18831Y29608I126J127*
G01*
Y29785*
X14514*
X15514Y28785*
X19580*
G37*
X23848Y29785D02*
G36*
X19189D01*
Y29682*
X20086Y28785*
X23848*
Y29785*
G37*
X27198Y28785D02*
G36*
X26198Y29785D01*
X24174*
Y28785*
X27198*
G37*
X29630D02*
G36*
X28931Y29485D01*
G75*
G02X28883Y29600I115J115*
G01*
Y29600*
Y29785*
X27300*
X28300Y28785*
X29630*
G37*
X34923D02*
G36*
X33923Y29785D01*
X29209*
Y29668*
X30038Y28838*
X32428*
G75*
G02X32543Y28790I0J-163*
G01*
X32548Y28785*
X34923*
G37*
X44120Y29785D02*
G36*
X34428D01*
X35428Y28785*
X43068*
X44017Y29734*
G75*
G02X44120Y29785I127J-126*
G01*
G37*
X46915Y28785D02*
G36*
G75*
G02X46889Y28920I339J135D01*
G01*
Y28920*
G75*
G02X47091Y29247I365*
G01*
Y29785*
X44861*
X44558Y29482*
G75*
G02X44431Y29429I-126J126*
G01*
X44218*
X43574Y28785*
X46915*
G37*
X53569Y29785D02*
G36*
X51035D01*
X50035Y28785*
X52571*
X53569Y29785*
G37*
X54075D02*
G36*
X53076Y28785D01*
X61790*
Y29785*
X54075*
G37*
X11854D02*
G36*
X11654Y29985D01*
G75*
G02X11092Y30388I-137J402*
G01*
G75*
G02X11114Y30521I425J0*
G01*
X10920*
G75*
G02X10942Y30388I-403J-134*
G01*
G75*
G02X10517Y29963I-425*
G01*
G75*
G02X10092Y30388J425*
G01*
G75*
G02X10114Y30521I425J0*
G01*
X9920*
G75*
G02X9942Y30388I-403J-134*
G01*
G75*
G02X9092I-425*
G01*
G75*
G02X9114Y30521I425J0*
G01*
X8920*
G75*
G02X8942Y30388I-403J-134*
G01*
G75*
G02X8125Y30225I-425*
G01*
X7997*
G75*
G02X7881Y30272I0J163*
G01*
X7632Y30521*
X3600*
Y29785*
X4767*
G75*
G02X5686I460*
G01*
X11854*
G37*
X14008D02*
G36*
X13876Y29917D01*
G75*
G02X13824Y30044I126J127*
G01*
Y30093*
G75*
G02X13092Y30388I-306J294*
G01*
G75*
G02X13114Y30521I425J0*
G01*
X12920*
G75*
G02X12942Y30388I-403J-134*
G01*
G75*
G02X12092I-425*
G01*
G75*
G02X12114Y30521I425J0*
G01*
X11920*
G75*
G02X11942Y30388I-403J-134*
G01*
G75*
G02X11899Y30201I-425*
G01*
X12314Y29785*
X14008*
G37*
X49910Y30521D02*
G36*
X49801D01*
G75*
G02X48881I-460J0*
G01*
X48801*
G75*
G02X47881I-460J0*
G01*
X47801*
G75*
G02X47417Y30068I-460J0*
G01*
Y29785*
X49910*
Y30521*
G37*
X18114D02*
G36*
X17920D01*
G75*
G02X17942Y30388I-403J-134*
G01*
G75*
G02X17092I-425*
G01*
G75*
G02X17114Y30521I425J0*
G01*
X16920*
G75*
G02X16942Y30388I-403J-134*
G01*
G75*
G02X16092I-425*
G01*
G75*
G02X16114Y30521I425J0*
G01*
X15920*
G75*
G02X15942Y30388I-403J-134*
G01*
G75*
G02X15092I-425*
G01*
G75*
G02X15114Y30521I425J0*
G01*
X14920*
G75*
G02X14942Y30388I-403J-134*
G01*
G75*
G02X14181Y30127I-425J0*
G01*
Y30118*
X14514Y29785*
X18831*
Y30102*
G75*
G02X18092Y30388I-314J286*
G01*
G75*
G02X18114Y30521I425J0*
G01*
G37*
X23114D02*
G36*
X22920D01*
G75*
G02X22942Y30388I-403J-134*
G01*
G75*
G02X22092I-425*
G01*
G75*
G02X22114Y30521I425J0*
G01*
X21920*
G75*
G02X21942Y30388I-403J-134*
G01*
G75*
G02X21092I-425*
G01*
G75*
G02X21114Y30521I425J0*
G01*
X20920*
G75*
G02X20942Y30388I-403J-134*
G01*
G75*
G02X20092I-425*
G01*
G75*
G02X20114Y30521I425J0*
G01*
X19920*
G75*
G02X19942Y30388I-403J-134*
G01*
G75*
G02X19189Y30117I-425J0*
G01*
Y29785*
X23848*
Y30121*
G75*
G02X23092Y30388I-331J266*
G01*
G75*
G02X23114Y30521I425J0*
G01*
G37*
X26198Y29785D02*
G36*
X25908Y30075D01*
G75*
G02X25866Y30145I115J115*
G01*
G75*
G02X25092Y30388I-349J242*
G01*
G75*
G02X25114Y30521I425J0*
G01*
X24920*
G75*
G02X24942Y30388I-403J-134*
G01*
G75*
G02X24174Y30136I-425J0*
G01*
Y29785*
X26198*
G37*
X27300D02*
G36*
X28883D01*
Y30521*
X26920*
G75*
G02X26942Y30388I-403J-134*
G01*
G75*
G02X26917Y30243I-425J0*
G01*
X26925Y30235*
G75*
G02X26972Y30120I-115J-115*
G01*
Y30120*
Y30113*
X27300Y29785*
G37*
X33923D02*
G36*
X33346Y30362D01*
X31109*
G75*
G02X30982Y30415J179*
G01*
X30876Y30521*
X29209*
Y29785*
X33923*
G37*
X44881Y30521D02*
G36*
X33692D01*
X34428Y29785*
X44120*
G75*
G02X44144Y29787I24J-177*
G01*
X44357*
X44916Y30346*
G75*
G02X44881Y30521I425J176*
G01*
G37*
X46881D02*
G36*
X46801D01*
G75*
G02X45881I-460J0*
G01*
X45801*
G75*
G02X45171Y30095I-460J0*
G01*
X44861Y29785*
X47091*
Y30136*
G75*
G02X46881Y30521I250J386*
G01*
G37*
X53901D02*
G36*
X51339D01*
Y30163*
G75*
G02X51286Y30036I-179*
G01*
X51035Y29785*
X53569*
X54009Y30225*
G75*
G02X53901Y30521I351J296*
G01*
Y30521*
G37*
X54820D02*
G36*
G75*
G02X54351Y30062I-460D01*
G01*
X54075Y29785*
X61790*
Y30521*
X58820*
G75*
G02X57901I-460*
G01*
X57820*
G75*
G02X56901I-460*
G01*
X56820*
G75*
G02X55901I-460*
G01*
X55820*
G75*
G02X54901I-460*
G01*
X54820*
G37*
X7632D02*
G36*
X7571Y30583D01*
G75*
G02X7523Y30699I115J115*
G01*
Y30699*
Y31521*
X3600*
Y30521*
X7632*
G37*
X10114Y31521D02*
G36*
X9920D01*
G75*
G02X9942Y31388I-403J-134*
G01*
G75*
G02X9517Y30963I-425*
G01*
G75*
G02X9092Y31388J425*
G01*
G75*
G02X9114Y31521I425J0*
G01*
X8920*
G75*
G02X8942Y31388I-403J-134*
G01*
G75*
G02X8092I-425*
G01*
G75*
G02X8114Y31521I425J0*
G01*
X7849*
Y30766*
X8064Y30551*
X8125*
G75*
G02X8920Y30521I393J-163*
G01*
X9114*
G75*
G02X9920I403J-134*
G01*
X10114*
G75*
G02X10517Y30813I403J-134*
G01*
G75*
G02X10665Y30786I0J-426*
G01*
X10824Y30942*
Y31093*
G75*
G02X10092Y31388I-306J294*
G01*
G75*
G02X10114Y31521I425J0*
G01*
G37*
X55820D02*
G36*
G75*
G02X54901I-460D01*
G01*
X54820*
G75*
G02X53901I-460*
G01*
X51339*
Y30521*
X53901*
G75*
G02X54820I460*
G01*
X54901*
G75*
G02X55820I460*
G01*
X55901*
G75*
G02X56820I460*
G01*
X56901*
G75*
G02X57820I460*
G01*
X57901*
G75*
G02X58820I460*
G01*
X61790*
Y31521*
X58820*
G75*
G02X57901I-460*
G01*
X57820*
G75*
G02X56901I-460*
G01*
X56820*
G75*
G02X55901I-460*
G01*
X55820*
G37*
X13114Y30521D02*
G36*
G75*
G02X13824Y30682I403J-134D01*
G01*
Y30937*
X13737Y31024*
G75*
G02X13092Y31388I-220J364*
G01*
G75*
G02X13114Y31521I425J0*
G01*
X12920*
G75*
G02X12942Y31388I-403J-134*
G01*
G75*
G02X12092I-425*
G01*
G75*
G02X12114Y31521I425J0*
G01*
X11920*
G75*
G02X11942Y31388I-403J-134*
G01*
G75*
G02X11181Y31127I-425J0*
G01*
Y30868*
Y30868*
G75*
G02X11128Y30741I-179*
G01*
X10917Y30532*
G75*
G02X10920Y30521I-400J-144*
G01*
X11114*
G75*
G02X11920I403J-134*
G01*
X12114*
G75*
G02X12920I403J-134*
G01*
X13114*
G37*
X18114D02*
G36*
G75*
G02X18831Y30674I403J-134D01*
G01*
Y30841*
X18678Y30994*
G75*
G02X18092Y31388I-161J393*
G01*
G75*
G02X18114Y31521I425J0*
G01*
X17920*
G75*
G02X17942Y31388I-403J-134*
G01*
G75*
G02X17092I-425*
G01*
G75*
G02X17114Y31521I425J0*
G01*
X16920*
G75*
G02X16942Y31388I-403J-134*
G01*
G75*
G02X16092I-425*
G01*
G75*
G02X16114Y31521I425J0*
G01*
X15920*
G75*
G02X15942Y31388I-403J-134*
G01*
G75*
G02X15092I-425*
G01*
G75*
G02X15114Y31521I425J0*
G01*
X14920*
G75*
G02X14942Y31388I-403J-134*
G01*
G75*
G02X14092I-425*
G01*
G75*
G02X14114Y31521I425J0*
G01*
X13920*
G75*
G02X13942Y31388I-403J-134*
G01*
G75*
G02X13938Y31329I-425*
G01*
X14129Y31138*
G75*
G02X14181Y31012I-126J-127*
G01*
Y30648*
G75*
G02X14920Y30521I336J-260*
G01*
X15114*
G75*
G02X15920I403J-134*
G01*
X16114*
G75*
G02X16920I403J-134*
G01*
X17114*
G75*
G02X17920I403J-134*
G01*
X18114*
G37*
X24114Y31521D02*
G36*
X23920D01*
G75*
G02X23942Y31388I-403J-134*
G01*
G75*
G02X23092I-425*
G01*
G75*
G02X23114Y31521I425J0*
G01*
X22920*
G75*
G02X22942Y31388I-403J-134*
G01*
G75*
G02X22092I-425*
G01*
G75*
G02X22114Y31521I425J0*
G01*
X21920*
G75*
G02X21942Y31388I-403J-134*
G01*
G75*
G02X21092I-425*
G01*
G75*
G02X21114Y31521I425J0*
G01*
X20920*
G75*
G02X20942Y31388I-403J-134*
G01*
G75*
G02X20092I-425*
G01*
G75*
G02X20114Y31521I425J0*
G01*
X19920*
G75*
G02X19942Y31388I-403J-134*
G01*
G75*
G02X19092I-425*
G01*
G75*
G02X19114Y31521I425J0*
G01*
X18920*
G75*
G02X18942Y31388I-403J-134*
G01*
Y31387*
G75*
G02X18921Y31257I-425*
G01*
X19137Y31041*
G75*
G02X19189Y30915I-127J-126*
G01*
Y30915*
Y30915*
Y30658*
G75*
G02X19920Y30521I328J-270*
G01*
X20114*
G75*
G02X20920I403J-134*
G01*
X21114*
G75*
G02X21920I403J-134*
G01*
X22114*
G75*
G02X22920I403J-134*
G01*
X23114*
G75*
G02X23848Y30654I403J-134*
G01*
Y30997*
Y30997*
G75*
G02X23896Y31112I163*
G01*
X24098Y31314*
G75*
G02X24092Y31387I414J73*
G01*
Y31388*
G75*
G02X24114Y31521I425J0*
G01*
G37*
X26114D02*
G36*
X25920D01*
G75*
G02X25942Y31388I-403J-134*
G01*
G75*
G02X25517Y30963I-425*
G01*
G75*
G02X25092Y31388J425*
G01*
G75*
G02X25114Y31521I425J0*
G01*
X24920*
G75*
G02X24942Y31388I-403J-134*
G01*
G75*
G02X24517Y30963I-425*
G01*
G75*
G02X24280Y31035J425*
G01*
X24174Y30929*
Y30639*
G75*
G02X24920Y30521I343J-251*
G01*
X25114*
G75*
G02X25860Y30639I403J-134*
G01*
Y31016*
Y31016*
G75*
G02X25908Y31132I163*
G01*
X26097Y31321*
G75*
G02X26092Y31388I420J66*
G01*
G75*
G02X26114Y31521I425J0*
G01*
G37*
X28718D02*
G36*
X28373D01*
G75*
G02X27718I-327J323*
G01*
X26920*
G75*
G02X26942Y31388I-403J-134*
G01*
G75*
G02X26517Y30963I-425*
G01*
G75*
G02X26275Y31038I0J425*
G01*
X26186Y30949*
Y30654*
G75*
G02X26920Y30521I331J-266*
G01*
X28883*
Y31414*
G75*
G02X28718Y31521I163J430*
G01*
G37*
X30876Y30521D02*
G36*
X30011Y31386D01*
G75*
G02X29718Y31521I35J458*
G01*
X29373*
G75*
G02X29209Y31414I-327J323*
G01*
Y30521*
X30876*
G37*
X49910Y31521D02*
G36*
X49801D01*
G75*
G02X48881I-460J0*
G01*
X48801*
G75*
G02X47881I-460J0*
G01*
X47801*
G75*
G02X46881I-460J0*
G01*
X46801*
G75*
G02X45881I-460J0*
G01*
X45801*
G75*
G02X44881I-460J0*
G01*
X35373*
G75*
G02X34718I-327J323*
G01*
X34373*
G75*
G02X33718I-327J323*
G01*
X33373*
G75*
G02X32718I-327J323*
G01*
X32373*
G75*
G02X31718I-327J323*
G01*
X31373*
G75*
G02X30718I-327J323*
G01*
X30381*
X31183Y30720*
X33420*
G75*
G02X33546Y30667J-179*
G01*
X33692Y30521*
X44881*
Y30522*
G75*
G02X45801I460*
G01*
Y30521*
X45881*
Y30522*
G75*
G02X46801I460*
G01*
Y30521*
X46881*
Y30522*
Y30522*
G75*
G02X47801I460*
G01*
Y30522*
Y30521*
X47881*
Y30522*
G75*
G02X48801I460*
G01*
Y30521*
X48881*
Y30522*
G75*
G02X49801I460*
G01*
Y30521*
X49910*
Y31521*
G37*
X7523Y32640D02*
G36*
X3600D01*
Y31521*
X7523*
Y32640*
G37*
X9114Y31521D02*
G36*
G75*
G02X9354Y31780I403J-134D01*
G01*
Y32640*
X7849*
Y31521*
X8114*
G75*
G02X8920I403J-134*
G01*
X9114*
G37*
X11337Y32640D02*
G36*
X9698D01*
X9680Y32622*
Y31780*
G75*
G02X9920Y31521I-163J-393*
G01*
X10114*
G75*
G02X10824Y31682I403J-134*
G01*
Y32053*
G75*
G02X10876Y32179I179*
G01*
X11337Y32640*
G37*
X54901Y31521D02*
G36*
G75*
G02X55198Y31951I460J0D01*
G01*
Y32640*
X52606*
Y32403*
G75*
G02X52808Y32076I-163J-327*
G01*
G75*
G02X52078I-365*
G01*
Y32077*
G75*
G02X52280Y32403I365*
G01*
Y32640*
X50656*
X51286Y32010*
G75*
G02X51339Y31884I-126J-127*
G01*
Y31521*
X53901*
G75*
G02X54820I460*
G01*
X54901*
G37*
X24114D02*
G36*
G75*
G02X24354Y31780I403J-134D01*
G01*
Y32612*
G75*
G02X24307Y32640I163J327*
G01*
X11843*
X11181Y31979*
Y31648*
G75*
G02X11920Y31521I336J-260*
G01*
X12114*
G75*
G02X12920I403J-134*
G01*
X13114*
G75*
G02X13920I403J-134*
G01*
X14114*
G75*
G02X14920I403J-134*
G01*
X15114*
G75*
G02X15920I403J-134*
G01*
X16114*
G75*
G02X16920I403J-134*
G01*
X17114*
G75*
G02X17920I403J-134*
G01*
X18114*
G75*
G02X18920I403J-134*
G01*
X19114*
G75*
G02X19920I403J-134*
G01*
X20114*
G75*
G02X20920I403J-134*
G01*
X21114*
G75*
G02X21920I403J-134*
G01*
X22114*
G75*
G02X22920I403J-134*
G01*
X23114*
G75*
G02X23920I403J-134*
G01*
X24114*
G37*
X26505Y32640D02*
G36*
X24727D01*
G75*
G02X24680Y32612I-210J298*
G01*
Y31780*
G75*
G02X24920Y31521I-163J-393*
G01*
X25114*
G75*
G02X25517Y31813I403J-134*
G01*
G75*
G02X25655Y31790I0J-424*
G01*
X26505Y32640*
G37*
X45881Y31521D02*
G36*
Y31522D01*
Y31522*
G75*
G02X45923Y31714I459*
G01*
X45208Y32429*
X26800*
X25913Y31542*
G75*
G02X25920Y31521I-396J-155*
G01*
X26114*
G75*
G02X26517Y31813I403J-134*
G01*
G75*
G02X26920Y31521J-425*
G01*
X27718*
G75*
G02X27586Y31844I327J323*
G01*
G75*
G02X28505I460*
G01*
G75*
G02X28373Y31521I-460*
G01*
X28718*
G75*
G02X28586Y31844I327J323*
G01*
G75*
G02X29505I460*
G01*
G75*
G02X29373Y31521I-460J0*
G01*
X29718*
G75*
G02X29586Y31844I327J323*
G01*
Y31844*
G75*
G02X30505I460*
G01*
G75*
G02X30377Y31526I-460J0*
G01*
X30381Y31521*
X30718*
G75*
G02X30586Y31844I327J323*
G01*
G75*
G02X31505I460*
G01*
G75*
G02X31373Y31521I-460*
G01*
X31718*
G75*
G02X31586Y31844I327J323*
G01*
G75*
G02X32505I460*
G01*
G75*
G02X32373Y31521I-460*
G01*
X32718*
G75*
G02X32586Y31844I327J323*
G01*
G75*
G02X33505I460*
G01*
G75*
G02X33373Y31521I-460*
G01*
X33718*
G75*
G02X33586Y31844I327J323*
G01*
G75*
G02X34505I460*
G01*
G75*
G02X34373Y31521I-460*
G01*
X34718*
G75*
G02X34586Y31844I327J323*
G01*
G75*
G02X35446Y32070I460*
G01*
X37827*
G75*
G02X38519Y31907I327J-163*
G01*
G75*
G02X37827Y31744I-365*
G01*
X35494*
G75*
G02X35373Y31521I-449J100*
G01*
X44881*
Y31522*
G75*
G02X45801I460*
G01*
Y31521*
X45881*
G37*
X49910D02*
G36*
Y31931D01*
G75*
G02X49708Y32258I163J327*
G01*
G75*
G02X50186Y32605I365*
G01*
X50150Y32640*
X45502*
X46188Y31955*
G75*
G02X46801Y31522I153J-433*
G01*
Y31521*
X46881*
Y31522*
G75*
G02X47801I460*
G01*
Y31521*
X47881*
Y31522*
G75*
G02X48801I460*
G01*
Y31521*
X48881*
Y31522*
G75*
G02X49801I460*
G01*
Y31521*
X49910*
G37*
X55820D02*
G36*
X55901D01*
G75*
G02X56820I460*
G01*
X56901*
G75*
G02X57820I460*
G01*
X57901*
G75*
G02X58820I460*
G01*
X61790*
Y32640*
X55524*
Y31951*
G75*
G02X55820Y31521I-163J-430*
G01*
G37*
X59678Y35916D02*
G36*
X5772D01*
G75*
G02X6450Y34659I-825J-1256*
G01*
G75*
G02X3600Y33993I-1503J0*
G01*
Y32640*
X7523*
Y33094*
Y33094*
G75*
G02X7571Y33210I163*
G01*
X9631Y35270*
G75*
G02X9746Y35318I115J-115*
G01*
X53368*
G75*
G02X53484Y35270I0J-163*
G01*
X55476Y33279*
G75*
G02X55524Y33163I-115J-115*
G01*
Y33163*
Y32640*
X61790*
Y33885*
G75*
G02X58999Y34659I-1288J775*
G01*
Y34659*
G75*
G02X59678Y35916I1503*
G01*
G37*
X9354Y32640D02*
G36*
Y32690D01*
Y32690*
G75*
G02X9402Y32805I163*
G01*
X11418Y34822*
G75*
G02X11534Y34869I115J-115*
G01*
X37827*
G75*
G02X37927Y34992I326J-162*
G01*
X9814*
X7849Y33027*
Y32640*
X9354*
G37*
X50150D02*
G36*
X49015Y33776D01*
X12978*
X11843Y32640*
X24307*
G75*
G02X24152Y32939I210J298*
G01*
G75*
G02X24882I365*
G01*
Y32939*
G75*
G02X24727Y32640I-365*
G01*
X26505*
X26599Y32734*
G75*
G02X26726Y32787I127J-126*
G01*
X45282*
G75*
G02X45408Y32734I0J-179*
G01*
X45502Y32640*
X50150*
G37*
X55198D02*
G36*
Y33096D01*
X53301Y34992*
X38381*
G75*
G02X38519Y34706I-227J-286*
G01*
Y34706*
G75*
G02X37827Y34543I-365*
G01*
X11601*
X9698Y32640*
X11337*
X12777Y34081*
G75*
G02X12904Y34133I127J-126*
G01*
X49089*
G75*
G02X49216Y34081J-179*
G01*
X50656Y32640*
X52280*
Y33565*
G75*
G02X52078Y33891I163J327*
G01*
G75*
G02X52808I365*
G01*
Y33891*
G75*
G02X52606Y33565I-365*
G01*
Y32640*
X55198*
G37*
D02*
D16*
X3926Y17693D02*
X3726D01*
X4942Y26785D02*
X4742D01*
X5227Y26501D02*
Y26301D01*
Y27070D02*
Y27270D01*
X5254Y16365D02*
Y16165D01*
Y19021D02*
Y19221D01*
X5511Y26785D02*
X5711D01*
X6582Y17693D02*
X6782D01*
X13859Y19206D02*
X13659D01*
X13859Y19978D02*
X13659D01*
X13859Y20608D02*
X13659D01*
X13928Y19138D02*
Y18938D01*
Y19275D02*
Y19475D01*
Y19910D02*
Y19710D01*
Y20046D02*
Y20246D01*
Y20540D02*
Y20340D01*
Y20676D02*
Y20876D01*
X13996Y19206D02*
X14196D01*
X13996Y19978D02*
X14196D01*
X13996Y20608D02*
X14196D01*
X14552Y19206D02*
X14352D01*
X14552Y19978D02*
X14352D01*
X14552Y20608D02*
X14352D01*
X14620Y19138D02*
Y18938D01*
Y19275D02*
Y19475D01*
Y19910D02*
Y19710D01*
Y20046D02*
Y20246D01*
Y20540D02*
Y20340D01*
Y20676D02*
Y20876D01*
X14689Y19206D02*
X14889D01*
X14689Y19978D02*
X14889D01*
X14689Y20608D02*
X14889D01*
X15206Y19206D02*
X15006D01*
X15206Y19978D02*
X15006D01*
X15206Y20608D02*
X15006D01*
X15274Y19138D02*
Y18938D01*
Y19275D02*
Y19475D01*
Y19910D02*
Y19710D01*
Y20046D02*
Y20246D01*
Y20540D02*
Y20340D01*
Y20676D02*
Y20876D01*
X15342Y19206D02*
X15542D01*
X15342Y19978D02*
X15542D01*
X15342Y20608D02*
X15542D01*
X15796Y19206D02*
X15596D01*
X15796Y19978D02*
X15596D01*
X15796Y20608D02*
X15596D01*
X15865Y19138D02*
Y18938D01*
Y19275D02*
Y19475D01*
Y19910D02*
Y19710D01*
Y20046D02*
Y20246D01*
Y20540D02*
Y20340D01*
Y20676D02*
Y20876D01*
X15933Y19206D02*
X16133D01*
X15933Y19978D02*
X16133D01*
X15933Y20608D02*
X16133D01*
X16267Y30388D02*
X16067D01*
X16517Y30138D02*
Y29938D01*
Y30638D02*
Y30838D01*
X16767Y30388D02*
X16967D01*
X17267Y6364D02*
X17067D01*
X17267Y30388D02*
X17067D01*
X17267Y31388D02*
X17067D01*
X17517Y6114D02*
Y5914D01*
Y6614D02*
Y6814D01*
Y30138D02*
Y29938D01*
Y30638D02*
Y30838D01*
Y31138D02*
Y30938D01*
Y31638D02*
Y31838D01*
X17767Y6364D02*
X17967D01*
X17767Y30388D02*
X17967D01*
X17767Y31388D02*
X17967D01*
X22267Y7364D02*
X22067D01*
X22320Y18628D02*
X22120D01*
X22517Y7114D02*
Y6914D01*
Y7614D02*
Y7814D01*
X22605Y18343D02*
Y18143D01*
Y18912D02*
Y19112D01*
X22767Y7364D02*
X22967D01*
X22889Y18628D02*
X23089D01*
X23267Y30388D02*
X23067D01*
X23517Y30138D02*
Y29938D01*
Y30638D02*
Y30838D01*
X24808Y20112D02*
X24608D01*
X24820Y19592D02*
X24620D01*
X24876Y20044D02*
Y19844D01*
Y20180D02*
Y20380D01*
X24888Y19524D02*
Y19324D01*
Y19660D02*
Y19860D01*
X24944Y20112D02*
X25144D01*
X24956Y19592D02*
X25156D01*
X25438Y20112D02*
X25238D01*
X25450Y19592D02*
X25250D01*
X25506Y20044D02*
Y19844D01*
Y20180D02*
Y20380D01*
X25518Y19524D02*
Y19324D01*
Y19660D02*
Y19860D01*
X25574Y20112D02*
X25774D01*
X25586Y19592D02*
X25786D01*
X26210Y20112D02*
X26010D01*
X26222Y19592D02*
X26022D01*
X26278Y20044D02*
Y19844D01*
Y20180D02*
Y20380D01*
X26290Y19524D02*
Y19324D01*
Y19660D02*
Y19860D01*
X26346Y20112D02*
X26546D01*
X26358Y19592D02*
X26558D01*
X30743Y20127D02*
X30543D01*
X30761Y31844D02*
X30561D01*
X31028Y19842D02*
Y19642D01*
Y20411D02*
Y20611D01*
X31046Y31560D02*
Y31360D01*
Y32129D02*
Y32329D01*
X31313Y20127D02*
X31513D01*
X31330Y31844D02*
X31530D01*
X43462Y12423D02*
X43262D01*
X43478Y27031D02*
X43278D01*
X43746Y12138D02*
Y11938D01*
X43762Y26747D02*
Y26547D01*
Y27316D02*
Y27516D01*
X44031Y12423D02*
X44231D01*
X44047Y27031D02*
X44247D01*
X46379Y26944D02*
X46179D01*
X46548Y12407D02*
X46348D01*
X46664Y26659D02*
Y26459D01*
Y27228D02*
Y27428D01*
X46833Y12123D02*
Y11923D01*
Y12692D02*
Y12892D01*
X46948Y26944D02*
X47148D01*
X47056Y31522D02*
X46856D01*
X47118Y12407D02*
X47318D01*
X47341Y31237D02*
Y31037D01*
Y31806D02*
Y32006D01*
X47626Y31522D02*
X47826D01*
X49206Y15915D02*
X49006D01*
X49407Y26906D02*
X49207D01*
X49491Y15630D02*
Y15430D01*
Y16200D02*
Y16400D01*
X49651Y12395D02*
X49451D01*
X49691Y26622D02*
Y26422D01*
X49775Y15915D02*
X49975D01*
X49935Y12111D02*
Y11911D01*
Y12680D02*
Y12880D01*
X49976Y26906D02*
X50176D01*
X50220Y12395D02*
X50420D01*
X52466Y26944D02*
X52266D01*
X52750Y26659D02*
Y26459D01*
Y27228D02*
Y27428D01*
X52863Y12352D02*
X52663D01*
X53035Y26944D02*
X53235D01*
X53148Y12067D02*
Y11867D01*
Y12637D02*
Y12837D01*
X53433Y12352D02*
X53633D01*
X54800Y18608D02*
X54600D01*
X55085Y18323D02*
Y18123D01*
Y18893D02*
Y19093D01*
X55370Y18608D02*
X55570D01*
X55848Y26906D02*
X55648D01*
X56076Y31521D02*
X55876D01*
X56132Y26622D02*
Y26422D01*
Y27191D02*
Y27391D01*
X56361Y31237D02*
Y31037D01*
Y31806D02*
Y32006D01*
X56417Y26906D02*
X56617D01*
X56548Y12836D02*
X56348D01*
X56645Y31521D02*
X56845D01*
X56727Y12658D02*
Y12458D01*
Y13015D02*
Y13215D01*
X56905Y12836D02*
X57105D01*
X59017Y26872D02*
X58817D01*
X59302Y26587D02*
Y26387D01*
Y27156D02*
Y27356D01*
X59586Y26872D02*
X59786D01*
D02*
D19*
X43746Y9423D02*
X42606D01*
X42136Y9892*
Y10667*
X40542Y12262*
X28254*
X23679Y16836*
Y17321*
X46833Y9395D02*
Y9407D01*
Y9423*
X43746*
X46833Y9407D02*
Y9395D01*
X49935*
Y9352*
X53148*
X56727Y11836D02*
X56636D01*
X55057Y10258*
Y10234*
X54176Y9352*
X53148*
D02*
D21*
X13928Y19206D03*
Y19978D03*
Y20608D03*
X14620Y19206D03*
Y19978D03*
Y20608D03*
X15274Y19206D03*
Y19978D03*
Y20608D03*
X15865Y19206D03*
Y19978D03*
Y20608D03*
X24876Y20112D03*
X24888Y19592D03*
X25506Y20112D03*
X25518Y19592D03*
X26278Y20112D03*
X26290Y19592D03*
D02*
D74*
X6884Y23514D02*
Y19589D01*
X9517Y31388D02*
Y32690D01*
X11534Y34706*
X38154*
X10517Y30388D02*
X10522D01*
X11002Y30868*
Y32053*
X12904Y33954*
X49089*
X51160Y31884*
Y30163*
X47786Y26789*
Y20258*
X46491Y18962*
Y18915*
X11517Y30388D02*
Y30352D01*
X14395Y27474*
X15534*
X13517Y31388D02*
X13626D01*
X14002Y31012*
Y30044*
X15793Y28254*
X15841*
X19252Y24842*
Y24818*
X20630Y23440*
X22301*
Y23414*
X23655Y22060*
X32848*
Y22084*
X41714Y13219*
X14517Y7364D02*
Y10426D01*
X8917Y16026*
X8911*
Y24188*
X11571Y26848*
X16242*
X16517Y6364D02*
X16069D01*
X15999Y7553*
X16028Y7581*
Y7685*
X15663Y8050*
X15626*
X15015Y8661*
Y11202*
X9632Y16585*
X9604*
Y23516*
X12006Y25919*
X16557*
X19517Y6364D02*
X19514D01*
X19014Y6864*
Y7557*
X18526Y8045*
X17225*
X17018Y8252*
Y9737*
X18388Y11107*
X37845*
X20517Y6364D02*
X20089D01*
Y6403*
X20019Y7592*
Y9448*
X20723Y10151*
X35616*
X36090Y10626*
X41108*
X24517Y31388D02*
X24402D01*
X24011Y30997*
Y24085*
X24517Y32939D02*
Y31388D01*
X25517Y7364D02*
Y7894D01*
X28176*
Y6603*
X55317*
X33022Y25265D02*
X33211D01*
X34148Y26848D02*
Y26954D01*
X32428Y28675*
X29971*
X29046Y29600*
Y31844*
X35046D02*
Y31907D01*
X38154*
X35176Y25919D02*
Y25927D01*
X35502Y26254*
Y28458*
X33420Y30541*
X31109*
X30046Y31604*
Y31844*
X39947Y21084D02*
Y25411D01*
X44144Y29608*
X44431*
X45341Y30517*
Y30522*
X40571Y21047D02*
Y25561D01*
X43107Y28096*
X48620*
X50073Y29549*
Y32258*
X42361Y20029D02*
Y23270D01*
X42345Y23286*
Y23990*
X43386Y25031*
X43762*
X43746Y10423D02*
X43769D01*
X44992Y11646*
Y12528*
X43903Y13618*
X42500*
X33211Y22907*
Y25265*
X43746Y11423D02*
X43924D01*
X44498Y11998*
Y12599*
X44045Y13053*
X42609*
X32699Y22962*
Y24657*
X32412*
X43746Y19940D02*
Y20139D01*
X45961Y22354*
Y22945*
X45479Y23427*
Y23874*
X46549Y24944*
X46664*
X43931Y17187D02*
X43916D01*
X43010Y18092*
Y23321*
X43721Y24031*
X43762*
X45491Y15915D02*
Y15785D01*
X44534Y14828*
X42116*
X34179Y22765*
Y24962*
X33428Y25714*
X26896*
X24829Y23647*
X24130*
X24128Y23645*
X23329*
X21766Y25208*
Y26852*
X19010Y29608*
Y30915*
X18538Y31388*
X18517*
X45491Y18915D02*
Y17962D01*
X44278Y16750*
X44254*
Y16726*
X43203Y15675*
X42305*
X35026Y22954*
Y25108*
X33113Y27021*
X29833*
X26809Y30045*
Y30120*
X26542Y30388*
X26517*
X46341Y31522D02*
Y31549D01*
X45282Y32608*
X26726*
X25517Y31399*
Y31388*
X46833Y11407D02*
X46100D01*
Y12002*
X44005Y14096*
X42498*
X33742Y22852*
Y24269*
X47254Y28920D02*
Y30522D01*
X47341*
X47274Y21636D02*
Y23385D01*
X46715Y23944*
X46664*
X47491Y18915D02*
Y17954D01*
X45991Y16454*
X45046*
X43805Y15214*
X42215*
X34640Y22789*
Y25033*
X33640Y26033*
X30180*
X26023Y30191*
Y31016*
X26394Y31388*
X26517*
X48416Y20124D02*
Y26891D01*
X49081Y27557*
X51597*
Y27561*
X54388Y30352*
X54361*
Y30521*
X49691Y23906D02*
Y23864D01*
X50010*
X51108Y22766*
Y14970*
Y6998D02*
Y8852D01*
X51542Y14187D02*
Y22923D01*
X52563Y23944*
X52750*
X51959Y14931D02*
Y19779D01*
X52443Y32076D02*
Y33891D01*
X52498Y6164D02*
X27991D01*
Y6197*
X27345Y6843*
X25034*
X24517Y7360*
Y7364*
X54588Y5285D02*
Y5338D01*
X22475*
X21517Y6296*
Y6364*
X55361Y31521D02*
Y33163D01*
X53368Y35155*
X9746*
X7686Y33094*
Y30699*
X7997Y30388*
X8517*
X56463Y16943D02*
Y21235D01*
X52754Y24944*
X52750*
X59302Y23872D02*
X59408D01*
X60550Y22730*
Y9689*
X56575Y5714*
X25135*
X24517Y6332*
Y6364*
D02*
D78*
X6884Y19589D03*
Y23514D03*
X15534Y27474D03*
X16242Y26848D03*
X16557Y25919D03*
X24011Y24085D03*
X24517Y32939D03*
X32412Y24657D03*
X33211Y25265D03*
X33742Y24269D03*
X34148Y26848D03*
X35176Y25919D03*
X37845Y11107D03*
X38154Y31907D03*
Y34706D03*
X39947Y21084D03*
X40571Y21047D03*
X41108Y10626D03*
X41714Y13219D03*
X42361Y20029D03*
X43746Y19940D03*
X43931Y17187D03*
X47254Y28920D03*
X47274Y21636D03*
X48416Y20124D03*
X50073Y32258D03*
X51108Y6998D03*
Y8852D03*
Y14970D03*
X51542Y14187D03*
X51959Y14931D03*
Y19779D03*
X52443Y32076D03*
Y33891D03*
X52498Y6164D03*
X54588Y5285D03*
X55317Y6603D03*
X56463Y16943D03*
D02*
D107*
X8517Y6364D03*
Y7364D03*
Y30388D03*
Y31388D03*
X9517Y6364D03*
Y7364D03*
Y30388D03*
Y31388D03*
X10517Y6364D03*
Y7364D03*
Y30388D03*
Y31388D03*
X11517Y6364D03*
Y7364D03*
Y30388D03*
Y31388D03*
X12517Y6364D03*
Y7364D03*
Y30388D03*
Y31388D03*
X13517Y6364D03*
Y7364D03*
Y30388D03*
Y31388D03*
X14517Y6364D03*
Y7364D03*
Y30388D03*
Y31388D03*
X15517Y6364D03*
Y7364D03*
Y30388D03*
Y31388D03*
X16517Y6364D03*
Y7364D03*
Y30388D03*
Y31388D03*
X17517Y6364D03*
Y7364D03*
Y30388D03*
Y31388D03*
X18517Y6364D03*
Y7364D03*
Y30388D03*
Y31388D03*
X19517Y6364D03*
Y7364D03*
Y30388D03*
Y31388D03*
X20517Y6364D03*
Y7364D03*
Y30388D03*
Y31388D03*
X21517Y6364D03*
Y7364D03*
Y30388D03*
Y31388D03*
X22517Y6364D03*
Y7364D03*
Y30388D03*
Y31388D03*
X23517Y6364D03*
Y7364D03*
Y30388D03*
Y31388D03*
X24517Y6364D03*
Y7364D03*
Y30388D03*
Y31388D03*
X25517Y6364D03*
Y7364D03*
Y30388D03*
Y31388D03*
X26517Y6364D03*
Y7364D03*
Y30388D03*
Y31388D03*
D02*
D111*
X56727Y13836D03*
D02*
D112*
Y10836D03*
Y11836D03*
Y12836D03*
X59853Y10836D03*
Y11836D03*
Y12836D03*
Y13836D03*
D02*
D113*
X58861Y18772D03*
D02*
D114*
Y16772D03*
D02*
D115*
X23679Y17321D03*
X0Y0D02*
M02*
