G04 EasyPC Gerber Version 21.0.3 Build 4286 *
G04 #@! TF.Part,Single*
G04 #@! TF.FileFunction,Legend,Top *
G04 #@! TF.FilePolarity,Positive *
%FSLAX34Y34*%
%MOIN*%
G04 #@! TA.AperFunction,WasherPad*
%ADD127C,0.02200*%
G04 #@! TD.AperFunction*
%ADD128C,0.00100*%
%ADD13C,0.00500*%
%ADD18C,0.00787*%
%ADD16C,0.01000*%
%ADD77C,0.01496*%
X0Y0D02*
D02*
D13*
X3325Y2679D02*
X62065D01*
Y36191*
X3325*
Y2679*
X3841Y23729D02*
Y24104D01*
X4060*
X4122Y24073*
X4153Y24011*
X4122Y23948*
X4060Y23917*
X3841*
X4341Y24104D02*
X4372Y23729D01*
X4497Y23917*
X4622Y23729*
X4653Y24104*
X4903Y23729D02*
X5028D01*
X4966D02*
Y24104D01*
X4903Y24042*
X3841Y23254D02*
X4091D01*
X3966Y23129D02*
Y23379D01*
X5006Y13447D02*
X5381D01*
Y13759*
Y13947D02*
X5006D01*
Y14259*
X5194Y14197D02*
Y13947D01*
X5381D02*
Y14259D01*
Y14447D02*
X5006D01*
Y14634*
X5037Y14697*
X5069Y14728*
X5131Y14759*
X5256*
X5319Y14728*
X5350Y14697*
X5381Y14634*
Y14447*
Y15009D02*
Y15134D01*
Y15072D02*
X5006D01*
X5069Y15009*
X5413Y11813D02*
X5038D01*
Y12031*
X5069Y12094*
X5131Y12125*
X5194Y12094*
X5225Y12031*
Y11813*
Y12031D02*
X5413Y12125D01*
X5381Y12313D02*
X5413Y12375D01*
Y12469*
X5381Y12531*
X5319Y12563*
X5288*
X5225Y12531*
X5194Y12469*
Y12313*
X5038*
Y12563*
X5820Y12739D02*
Y11673D01*
X6413*
Y12739*
X5820*
X8250Y21206D02*
X8281Y21175D01*
X8312Y21112*
Y21018*
X8281Y20956*
X8250Y20925*
X8187Y20893*
X8062*
X8000Y20925*
X7968Y20956*
X7937Y21018*
Y21112*
X7968Y21175*
X8000Y21206*
X8312Y21643D02*
Y21393D01*
X8093Y21612*
X8031Y21643*
X7968Y21612*
X7937Y21550*
Y21456*
X7968Y21393*
X8347Y22853D02*
X7972D01*
Y23072*
X8003Y23134*
X8065Y23166*
X8128Y23134*
X8159Y23072*
Y22853*
Y23072D02*
X8347Y23166D01*
Y23603D02*
Y23353D01*
X8128Y23572*
X8065Y23603*
X8003Y23572*
X7972Y23509*
Y23416*
X8003Y23353*
X8658Y23741D02*
Y22675D01*
X9252*
Y23741*
X8658*
X9146Y20860D02*
Y21926D01*
X8552*
Y20860*
X9146*
X9737Y21042D02*
X9768Y21010D01*
X9799Y20948*
Y20854*
X9768Y20792*
X9737Y20760*
X9674Y20729*
X9549*
X9487Y20760*
X9456Y20792*
X9424Y20854*
Y20948*
X9456Y21010*
X9487Y21042*
X9768Y21229D02*
X9799Y21292D01*
Y21385*
X9768Y21448*
X9706Y21479*
X9674*
X9612Y21448*
X9581Y21385*
Y21229*
X9424*
Y21479*
X10456Y15848D02*
X10081D01*
Y16067*
X10112Y16129*
X10175Y16161*
X10237Y16129*
X10268Y16067*
Y15848*
Y16067D02*
X10456Y16161D01*
X10425Y16379D02*
X10456Y16442D01*
Y16504*
X10425Y16567*
X10362Y16598*
X10300Y16567*
X10268Y16504*
Y16442*
Y16504D02*
X10237Y16567D01*
X10175Y16598*
X10112Y16567*
X10081Y16504*
Y16442*
X10112Y16379*
X10753Y16763D02*
Y15697D01*
X11346*
Y16763*
X10753*
X12207Y15909D02*
X11832D01*
Y16128*
X11863Y16190*
X11926Y16222*
X11988Y16190*
X12019Y16128*
Y15909*
Y16128D02*
X12207Y16222D01*
Y16565D02*
X11832D01*
X12082Y16409*
Y16659*
X12387Y16838D02*
Y15772D01*
X12980*
Y16838*
X12387*
X18257Y22418D02*
Y21351D01*
X18850*
Y22418*
X18257*
X19061Y21923D02*
X19030Y21955D01*
X18999Y22017*
Y22111*
X19030Y22173*
X19061Y22205*
X19124Y22236*
X19249*
X19311Y22205*
X19342Y22173*
X19374Y22111*
Y22017*
X19342Y21955*
X19311Y21923*
X18999Y21673D02*
Y21548D01*
Y21611D02*
X19374D01*
X19311Y21673*
X19937Y18334D02*
G75*
G03Y18922I1668J294D01*
G01*
X19605*
Y18334*
X19937*
X21752Y16528D02*
X21783Y16559D01*
X21846Y16590*
X21939*
X22002Y16559*
X22033Y16528*
X22064Y16465*
Y16340*
X22033Y16278*
X22002Y16246*
X21939Y16215*
X21846*
X21783Y16246*
X21752Y16278*
X21252Y16528D02*
X21283Y16559D01*
X21346Y16590*
X21439*
X21502Y16559*
X21533Y16528*
X21564Y16465*
Y16340*
X21533Y16278*
X21502Y16246*
X21439Y16215*
X21346*
X21283Y16246*
X21252Y16278*
X21002Y16590D02*
X20877D01*
X20939D02*
Y16215D01*
X21002Y16278*
X21984Y21902D02*
X22015Y21871D01*
X22046Y21808*
Y21714*
X22015Y21652*
X21984Y21621*
X21921Y21589*
X21796*
X21734Y21621*
X21703Y21652*
X21671Y21714*
Y21808*
X21703Y21871*
X21734Y21902*
X21953Y22089D02*
X21890Y22121D01*
X21859Y22183*
Y22246*
X21890Y22308*
X21953Y22339*
X22015Y22308*
X22046Y22246*
Y22183*
X22015Y22121*
X21953Y22089*
X21859*
X21765Y22121*
X21703Y22183*
X21671Y22246*
X26893Y18280D02*
X24295D01*
Y21745*
X26893*
Y20062*
X26844*
Y19963*
X26893*
Y18280*
X27090Y17498D02*
Y17779D01*
X27059Y17841*
X26996Y17873*
X26871*
X26809Y17841*
X26777Y17779*
Y17498*
X26527Y17873D02*
X26402D01*
X26465D02*
Y17498D01*
X26527Y17560*
X28360Y19833D02*
G75*
G03Y20421I1668J294D01*
G01*
X28028*
Y19833*
X28360*
X30046Y29747D02*
Y29372D01*
X29827*
X29764Y29403*
X29733Y29465*
X29764Y29528*
X29827Y29559*
X30046*
X29827D02*
X29733Y29747D01*
X29483D02*
X29358D01*
X29421D02*
Y29372D01*
X29483Y29434*
X30256Y30625D02*
X29190D01*
Y30032*
X30256*
Y30625*
X31409Y18027D02*
X31440Y18058D01*
X31503Y18089*
X31597*
X31659Y18058*
X31690Y18027*
X31722Y17964*
Y17839*
X31690Y17777*
X31659Y17745*
X31597Y17714*
X31503*
X31440Y17745*
X31409Y17777*
X30909Y18027D02*
X30940Y18058D01*
X31003Y18089*
X31097*
X31159Y18058*
X31190Y18027*
X31222Y17964*
Y17839*
X31190Y17777*
X31159Y17745*
X31097Y17714*
X31003*
X30940Y17745*
X30909Y17777*
X30690Y18058D02*
X30628Y18089D01*
X30565*
X30503Y18058*
X30472Y17995*
X30503Y17933*
X30565Y17902*
X30628*
X30565D02*
X30503Y17870D01*
X30472Y17808*
X30503Y17745*
X30565Y17714*
X30628*
X30690Y17745*
X31750Y29707D02*
Y29332D01*
X31532*
X31469Y29363*
X31438Y29426*
X31469Y29488*
X31532Y29520*
X31750*
X31532D02*
X31438Y29707D01*
X31250Y29613D02*
X31219Y29551D01*
X31157Y29520*
X31094*
X31032Y29551*
X31000Y29613*
X31032Y29676*
X31094Y29707*
X31157*
X31219Y29676*
X31250Y29613*
Y29520*
X31219Y29426*
X31157Y29363*
X31094Y29332*
X31898Y30554D02*
X30831D01*
Y29961*
X31898*
Y30554*
X32083Y29914D02*
X33150D01*
Y30507*
X32083*
Y29914*
X32939Y29770D02*
Y29395D01*
X32721*
X32658Y29426*
X32627Y29489*
X32658Y29551*
X32721Y29583*
X32939*
X32721D02*
X32627Y29770D01*
X32439D02*
X32189Y29395D01*
X32439*
X34392Y29699D02*
Y29324D01*
X34173*
X34111Y29356*
X34080Y29418*
X34111Y29481*
X34173Y29512*
X34392*
X34173D02*
X34080Y29699D01*
X33798Y29512D02*
X33736D01*
X33673Y29481*
X33642Y29418*
X33673Y29356*
X33736Y29324*
X33798*
X33861Y29356*
X33892Y29418*
X33861Y29481*
X33798Y29512*
X33861Y29543*
X33892Y29606*
X33861Y29668*
X33798Y29699*
X33736*
X33673Y29668*
X33642Y29606*
X33673Y29543*
X33736Y29512*
X34528Y30507D02*
X33461D01*
Y29914*
X34528*
Y30507*
X42335Y9298D02*
X42366Y9267D01*
Y9204*
Y9142*
X42335Y9079*
X42272Y9048*
X42179*
X42147Y9079*
X42116Y9142*
Y9204*
X42147Y9267*
X42179Y9298*
X42210*
X42241Y9267*
X42272Y9204*
Y9142*
X42241Y9079*
X42210Y9048*
X42366Y9548D02*
X42116D01*
X42210D02*
X42147Y9579D01*
X42116Y9642*
Y9704*
X42147Y9767*
X42210Y9798*
X42366*
X42147Y10298D02*
X42116Y10235D01*
Y10142*
X42147Y10079*
X42210Y10048*
X42272*
X42335Y10079*
X42366Y10142*
Y10235*
X42335Y10298*
X42272Y10548D02*
X42335Y10579D01*
X42366Y10642*
Y10704*
X42335Y10767*
X42272Y10798*
X42210*
X42147Y10767*
X42116Y10704*
Y10642*
X42147Y10579*
X42210Y10548*
X42272*
X42210Y11298D02*
X42147Y11267D01*
X42116Y11204*
Y11142*
X42147Y11079*
X42210Y11048*
X42272*
X42335Y11079*
X42366Y11142*
Y11204*
X42335Y11267*
X42272Y11298*
X42366D02*
X41991D01*
X42335Y11798D02*
X42366Y11767D01*
Y11704*
Y11642*
X42335Y11579*
X42272Y11548*
X42179*
X42147Y11579*
X42116Y11642*
Y11704*
X42147Y11767*
X42179Y11798*
X42210*
X42241Y11767*
X42272Y11704*
Y11642*
X42241Y11579*
X42210Y11548*
X42366Y12048D02*
X42116D01*
X42210D02*
X42147Y12079D01*
X42116Y12142*
Y12204*
X42147Y12267*
X42366Y12548D02*
X41991D01*
Y12735*
X42022Y12798*
X42054Y12829*
X42116Y12860*
X42241*
X42304Y12829*
X42335Y12798*
X42366Y12735*
Y12548*
X42479Y23529D02*
X42104D01*
X42292Y23686*
X42104Y23842*
X42479*
X42354Y24029D02*
X42229D01*
X42167Y24061*
X42136Y24092*
X42104Y24154*
Y24217*
X42136Y24279*
X42167Y24311*
X42229Y24342*
X42354*
X42417Y24311*
X42448Y24279*
X42479Y24217*
Y24154*
X42448Y24092*
X42417Y24061*
X42354Y24029*
X42479Y24686D02*
X42104D01*
Y24529D02*
Y24842D01*
X42354Y25029D02*
X42229D01*
X42167Y25061*
X42136Y25092*
X42104Y25154*
Y25217*
X42136Y25279*
X42167Y25311*
X42229Y25342*
X42354*
X42417Y25311*
X42448Y25279*
X42479Y25217*
Y25154*
X42448Y25092*
X42417Y25061*
X42354Y25029*
X42479Y25529D02*
X42104D01*
Y25748*
X42136Y25811*
X42198Y25842*
X42261Y25811*
X42292Y25748*
Y25529*
Y25748D02*
X42479Y25842D01*
Y26029D02*
X42104Y26186D01*
X42479Y26342*
X42323Y26092D02*
Y26279D01*
X44715Y33431D02*
X44778Y33463D01*
X44872*
X44934Y33431*
X44965Y33369*
Y33275*
X44934Y33244*
X44872Y33213*
X44809*
X44747Y33244*
X44715Y33275*
Y33306*
X44747Y33338*
X44809Y33369*
X44872*
X44934Y33338*
X44965Y33306*
Y33275D02*
Y33213D01*
X45340D02*
Y33463D01*
Y33556D02*
X45715Y33213*
Y33463D01*
Y33369D02*
X45747Y33431D01*
X45809Y33463*
X45872*
X45934Y33431*
X46465D02*
X46403Y33463D01*
X46309*
X46247Y33431*
X46215Y33369*
Y33306*
X46247Y33244*
X46309Y33213*
X46403*
X46465Y33244*
X46715Y33463D02*
X46747Y33338D01*
X46809Y33275*
X46872*
X46934Y33338*
X46965Y33463*
X46934Y33338D02*
X46903Y33213D01*
X46872Y33150*
X46809Y33119*
X46747Y33150*
X47372Y33213D02*
X47340D01*
Y33588*
X47840Y33213D02*
Y33463D01*
Y33556D02*
X48215Y33213*
Y33463D01*
Y33369D02*
X48247Y33431D01*
X48309Y33463*
X48372*
X48434Y33431*
X48465Y33369*
Y33213*
X48965Y33369D02*
X48934Y33431D01*
X48872Y33463*
X48809*
X48747Y33431*
X48715Y33369*
Y33306*
X48747Y33244*
X48809Y33213*
X48872*
X48934Y33244*
X48965Y33306*
Y33213D02*
Y33588D01*
X49465Y33244D02*
X49434Y33213D01*
X49372*
X49309*
X49247Y33244*
X49215Y33306*
Y33400*
X49247Y33431*
X49309Y33463*
X49372*
X49434Y33431*
X49465Y33400*
Y33369*
X49434Y33338*
X49372Y33306*
X49309*
X49247Y33338*
X49215Y33369*
X49715Y33213D02*
Y33463D01*
Y33369D02*
X49747Y33431D01*
X49809Y33463*
X49872*
X49934Y33431*
X45326Y23590D02*
X44951D01*
X45138Y23747*
X44951Y23903*
X45326*
X45201Y24090D02*
X45076D01*
X45013Y24122*
X44982Y24153*
X44951Y24215*
Y24278*
X44982Y24340*
X45013Y24372*
X45076Y24403*
X45201*
X45263Y24372*
X45295Y24340*
X45326Y24278*
Y24215*
X45295Y24153*
X45263Y24122*
X45201Y24090*
X45326Y24747D02*
X44951D01*
Y24590D02*
Y24903D01*
X45201Y25090D02*
X45076D01*
X45013Y25122*
X44982Y25153*
X44951Y25215*
Y25278*
X44982Y25340*
X45013Y25372*
X45076Y25403*
X45201*
X45263Y25372*
X45295Y25340*
X45326Y25278*
Y25215*
X45295Y25153*
X45263Y25122*
X45201Y25090*
X45326Y25590D02*
X44951D01*
Y25809*
X44982Y25872*
X45045Y25903*
X45107Y25872*
X45138Y25809*
Y25590*
Y25809D02*
X45326Y25903D01*
X45138Y26309D02*
X45170Y26372D01*
X45232Y26403*
X45295Y26372*
X45326Y26309*
Y26090*
X44951*
Y26309*
X44982Y26372*
X45045Y26403*
X45107Y26372*
X45138Y26309*
Y26090*
X45362Y9294D02*
X45393Y9263D01*
Y9200*
Y9138*
X45362Y9075*
X45299Y9044*
X45205*
X45174Y9075*
X45143Y9138*
Y9200*
X45174Y9263*
X45205Y9294*
X45237*
X45268Y9263*
X45299Y9200*
Y9138*
X45268Y9075*
X45237Y9044*
X45393Y9544D02*
X45143D01*
X45237D02*
X45174Y9575D01*
X45143Y9638*
Y9700*
X45174Y9763*
X45237Y9794*
X45393*
X45174Y10294D02*
X45143Y10232D01*
Y10138*
X45174Y10075*
X45237Y10044*
X45299*
X45362Y10075*
X45393Y10138*
Y10232*
X45362Y10294*
X45299Y10544D02*
X45362Y10575D01*
X45393Y10638*
Y10700*
X45362Y10763*
X45299Y10794*
X45237*
X45174Y10763*
X45143Y10700*
Y10638*
X45174Y10575*
X45237Y10544*
X45299*
X45237Y11294D02*
X45174Y11263D01*
X45143Y11200*
Y11138*
X45174Y11075*
X45237Y11044*
X45299*
X45362Y11075*
X45393Y11138*
Y11200*
X45362Y11263*
X45299Y11294*
X45393D02*
X45018D01*
X45362Y11794D02*
X45393Y11763D01*
Y11700*
Y11638*
X45362Y11575*
X45299Y11544*
X45205*
X45174Y11575*
X45143Y11638*
Y11700*
X45174Y11763*
X45205Y11794*
X45237*
X45268Y11763*
X45299Y11700*
Y11638*
X45268Y11575*
X45237Y11544*
X45393Y12044D02*
X45143D01*
X45237D02*
X45174Y12075D01*
X45143Y12138*
Y12200*
X45174Y12263*
X45330Y12857D02*
X45362Y12825D01*
X45393Y12763*
Y12669*
X45362Y12607*
X45330Y12575*
X45268Y12544*
X45143*
X45080Y12575*
X45049Y12607*
X45018Y12669*
Y12763*
X45049Y12825*
X45080Y12857*
X48353Y23553D02*
X47978D01*
X48166Y23709*
X47978Y23865*
X48353*
X48228Y24053D02*
X48103D01*
X48041Y24084*
X48010Y24115*
X47978Y24178*
Y24240*
X48010Y24303*
X48041Y24334*
X48103Y24365*
X48228*
X48291Y24334*
X48322Y24303*
X48353Y24240*
Y24178*
X48322Y24115*
X48291Y24084*
X48228Y24053*
X48353Y24709D02*
X47978D01*
Y24553D02*
Y24865D01*
X48228Y25053D02*
X48103D01*
X48041Y25084*
X48010Y25115*
X47978Y25178*
Y25240*
X48010Y25303*
X48041Y25334*
X48103Y25365*
X48228*
X48291Y25334*
X48322Y25303*
X48353Y25240*
Y25178*
X48322Y25115*
X48291Y25084*
X48228Y25053*
X48353Y25553D02*
X47978D01*
Y25772*
X48010Y25834*
X48072Y25865*
X48135Y25834*
X48166Y25772*
Y25553*
Y25772D02*
X48353Y25865D01*
X48291Y26365D02*
X48322Y26334D01*
X48353Y26272*
Y26178*
X48322Y26115*
X48291Y26084*
X48228Y26053*
X48103*
X48041Y26084*
X48010Y26115*
X47978Y26178*
Y26272*
X48010Y26334*
X48041Y26365*
X48476Y9367D02*
X48507Y9336D01*
Y9273*
Y9211*
X48476Y9148*
X48413Y9117*
X48319*
X48288Y9148*
X48257Y9211*
Y9273*
X48288Y9336*
X48319Y9367*
X48351*
X48382Y9336*
X48413Y9273*
Y9211*
X48382Y9148*
X48351Y9117*
X48507Y9617D02*
X48257D01*
X48351D02*
X48288Y9648D01*
X48257Y9711*
Y9773*
X48288Y9836*
X48351Y9867*
X48507*
X48288Y10367D02*
X48257Y10304D01*
Y10211*
X48288Y10148*
X48351Y10117*
X48413*
X48476Y10148*
X48507Y10211*
Y10304*
X48476Y10367*
X48413Y10617D02*
X48476Y10648D01*
X48507Y10711*
Y10773*
X48476Y10836*
X48413Y10867*
X48351*
X48288Y10836*
X48257Y10773*
Y10711*
X48288Y10648*
X48351Y10617*
X48413*
X48351Y11367D02*
X48288Y11336D01*
X48257Y11273*
Y11211*
X48288Y11148*
X48351Y11117*
X48413*
X48476Y11148*
X48507Y11211*
Y11273*
X48476Y11336*
X48413Y11367*
X48507D02*
X48132D01*
X48476Y11867D02*
X48507Y11836D01*
Y11773*
Y11711*
X48476Y11648*
X48413Y11617*
X48319*
X48288Y11648*
X48257Y11711*
Y11773*
X48288Y11836*
X48319Y11867*
X48351*
X48382Y11836*
X48413Y11773*
Y11711*
X48382Y11648*
X48351Y11617*
X48507Y12117D02*
X48257D01*
X48351D02*
X48288Y12148D01*
X48257Y12211*
Y12273*
X48288Y12336*
X48319Y12836D02*
X48351Y12898D01*
X48413Y12929*
X48476Y12898*
X48507Y12836*
Y12617*
X48132*
Y12836*
X48163Y12898*
X48226Y12929*
X48288Y12898*
X48319Y12836*
Y12617*
X49313Y20612D02*
G75*
G03X49687Y20238I187J-187D01*
G01*
G75*
G03X49313Y20612I-187J187*
G01*
X51413Y23590D02*
X51038D01*
X51225Y23747*
X51038Y23903*
X51413*
X51288Y24090D02*
X51163D01*
X51100Y24122*
X51069Y24153*
X51038Y24215*
Y24278*
X51069Y24340*
X51100Y24372*
X51163Y24403*
X51288*
X51350Y24372*
X51381Y24340*
X51413Y24278*
Y24215*
X51381Y24153*
X51350Y24122*
X51288Y24090*
X51413Y24747D02*
X51038D01*
Y24590D02*
Y24903D01*
X51288Y25090D02*
X51163D01*
X51100Y25122*
X51069Y25153*
X51038Y25215*
Y25278*
X51069Y25340*
X51100Y25372*
X51163Y25403*
X51288*
X51350Y25372*
X51381Y25340*
X51413Y25278*
Y25215*
X51381Y25153*
X51350Y25122*
X51288Y25090*
X51413Y25590D02*
X51038D01*
Y25809*
X51069Y25872*
X51131Y25903*
X51194Y25872*
X51225Y25809*
Y25590*
Y25809D02*
X51413Y25903D01*
Y26090D02*
X51038D01*
Y26278*
X51069Y26340*
X51100Y26372*
X51163Y26403*
X51288*
X51350Y26372*
X51381Y26340*
X51413Y26278*
Y26090*
X51677Y9373D02*
X51708Y9341D01*
Y9279*
Y9216*
X51677Y9154*
X51614Y9123*
X51520*
X51489Y9154*
X51458Y9216*
Y9279*
X51489Y9341*
X51520Y9373*
X51552*
X51583Y9341*
X51614Y9279*
Y9216*
X51583Y9154*
X51552Y9123*
X51708Y9623D02*
X51458D01*
X51552D02*
X51489Y9654D01*
X51458Y9716*
Y9779*
X51489Y9841*
X51552Y9873*
X51708*
X51489Y10373D02*
X51458Y10310D01*
Y10216*
X51489Y10154*
X51552Y10123*
X51614*
X51677Y10154*
X51708Y10216*
Y10310*
X51677Y10373*
X51614Y10623D02*
X51677Y10654D01*
X51708Y10716*
Y10779*
X51677Y10841*
X51614Y10873*
X51552*
X51489Y10841*
X51458Y10779*
Y10716*
X51489Y10654*
X51552Y10623*
X51614*
X51552Y11373D02*
X51489Y11341D01*
X51458Y11279*
Y11216*
X51489Y11154*
X51552Y11123*
X51614*
X51677Y11154*
X51708Y11216*
Y11279*
X51677Y11341*
X51614Y11373*
X51708D02*
X51333D01*
X51677Y11873D02*
X51708Y11841D01*
Y11779*
Y11716*
X51677Y11654*
X51614Y11623*
X51520*
X51489Y11654*
X51458Y11716*
Y11779*
X51489Y11841*
X51520Y11873*
X51552*
X51583Y11841*
X51614Y11779*
Y11716*
X51583Y11654*
X51552Y11623*
X51708Y12123D02*
X51458D01*
X51552D02*
X51489Y12154D01*
X51458Y12216*
Y12279*
X51489Y12341*
X51708Y12623D02*
X51333Y12779D01*
X51708Y12935*
X51552Y12685D02*
Y12873D01*
X53585Y17608D02*
X53616Y17671D01*
Y17796*
X53585Y17858*
X53522*
X53491Y17796*
Y17671*
X53460Y17608*
X53397*
X53366Y17671*
Y17796*
X53397Y17858*
X53585Y18358D02*
X53616Y18327D01*
Y18264*
Y18202*
X53585Y18139*
X53522Y18108*
X53429*
X53397Y18139*
X53366Y18202*
Y18264*
X53397Y18327*
X53429Y18358*
X53460*
X53491Y18327*
X53522Y18264*
Y18202*
X53491Y18139*
X53460Y18108*
X53616Y18608D02*
X53366D01*
X53460D02*
X53397Y18639D01*
X53366Y18702*
Y18764*
X53397Y18827*
X53366Y19108D02*
X53616Y19233D01*
X53366Y19358*
X53522Y19608D02*
X53585Y19639D01*
X53616Y19702*
Y19764*
X53585Y19827*
X53522Y19858*
X53460*
X53397Y19827*
X53366Y19764*
Y19702*
X53397Y19639*
X53460Y19608*
X53522*
X54794Y23553D02*
X54419D01*
X54607Y23709*
X54419Y23865*
X54794*
X54669Y24053D02*
X54544D01*
X54482Y24084*
X54451Y24115*
X54419Y24178*
Y24240*
X54451Y24303*
X54482Y24334*
X54544Y24365*
X54669*
X54732Y24334*
X54763Y24303*
X54794Y24240*
Y24178*
X54763Y24115*
X54732Y24084*
X54669Y24053*
X54794Y24709D02*
X54419D01*
Y24553D02*
Y24865D01*
X54669Y25053D02*
X54544D01*
X54482Y25084*
X54451Y25115*
X54419Y25178*
Y25240*
X54451Y25303*
X54482Y25334*
X54544Y25365*
X54669*
X54732Y25334*
X54763Y25303*
X54794Y25240*
Y25178*
X54763Y25115*
X54732Y25084*
X54669Y25053*
X54794Y25553D02*
X54419D01*
Y25772*
X54451Y25834*
X54513Y25865*
X54576Y25834*
X54607Y25772*
Y25553*
Y25772D02*
X54794Y25865D01*
Y26053D02*
X54419D01*
Y26365*
X54607Y26303D02*
Y26053D01*
X54794D02*
Y26365D01*
X54988Y33199D02*
X55050Y33168D01*
X55175*
X55238Y33199*
Y33261*
X55175Y33293*
X55050*
X54988Y33324*
Y33386*
X55050Y33418*
X55175*
X55238Y33386*
X55738Y33199D02*
X55707Y33168D01*
X55644*
X55582*
X55519Y33199*
X55488Y33261*
Y33355*
X55519Y33386*
X55582Y33418*
X55644*
X55707Y33386*
X55738Y33355*
Y33324*
X55707Y33293*
X55644Y33261*
X55582*
X55519Y33293*
X55488Y33324*
X55988Y33168D02*
Y33418D01*
Y33324D02*
X56019Y33386D01*
X56082Y33418*
X56144*
X56207Y33386*
X56238Y33324*
Y33168*
X56488Y33199D02*
X56550Y33168D01*
X56675*
X56738Y33199*
Y33261*
X56675Y33293*
X56550*
X56488Y33324*
Y33386*
X56550Y33418*
X56675*
X56738Y33386*
X56988Y33261D02*
X57019Y33199D01*
X57082Y33168*
X57144*
X57207Y33199*
X57238Y33261*
Y33324*
X57207Y33386*
X57144Y33418*
X57082*
X57019Y33386*
X56988Y33324*
Y33261*
X57488Y33168D02*
Y33418D01*
Y33324D02*
X57519Y33386D01*
X57582Y33418*
X57644*
X57707Y33386*
X55286Y14041D02*
G75*
G03X55660Y13667I187J-187D01*
G01*
G75*
G03X55286Y14041I-187J187*
G01*
X55219Y12113D02*
X55250Y12082D01*
X55282Y12020*
Y11926*
X55250Y11863*
X55219Y11832*
X55157Y11801*
X55032*
X54969Y11832*
X54938Y11863*
X54907Y11926*
Y12020*
X54938Y12082*
X54969Y12113*
X55250Y12332D02*
X55282Y12395D01*
Y12457*
X55250Y12520*
X55188Y12551*
X55125Y12520*
X55094Y12457*
Y12395*
Y12457D02*
X55063Y12520D01*
X55000Y12551*
X54938Y12520*
X54907Y12457*
Y12395*
X54938Y12332*
X55602Y8555D02*
Y7489D01*
X56196*
Y8555*
X55602*
X55625Y10039D02*
Y8973D01*
X56218*
Y10039*
X55625*
X56052Y11629D02*
Y12695D01*
X55458*
Y11629*
X56052*
X56372Y10139D02*
X56747D01*
Y9920*
X56715Y9857*
X56653Y9826*
X56590Y9857*
X56559Y9920*
Y10139*
Y9920D02*
X56372Y9826D01*
Y9576D02*
Y9451D01*
Y9514D02*
X56747D01*
X56684Y9576*
X56403Y9139D02*
X56372Y9076D01*
Y8982*
X56403Y8920*
X56465Y8889*
X56497*
X56559Y8920*
X56590Y8982*
Y9139*
X56747*
Y8889*
X56472Y8507D02*
X56847D01*
Y8288*
X56816Y8225*
X56753Y8194*
X56691Y8225*
X56660Y8288*
Y8507*
Y8288D02*
X56472Y8194D01*
Y7944D02*
Y7819D01*
Y7882D02*
X56847D01*
X56785Y7944*
X56566Y7507D02*
X56628Y7475D01*
X56660Y7413*
Y7350*
X56628Y7288*
X56566Y7257*
X56503Y7288*
X56472Y7350*
Y7413*
X56503Y7475*
X56566Y7507*
X56660*
X56753Y7475*
X56816Y7413*
X56847Y7350*
X57964Y23518D02*
X57589D01*
X57776Y23675*
X57589Y23831*
X57964*
X57839Y24018D02*
X57714D01*
X57651Y24050*
X57620Y24081*
X57589Y24143*
Y24206*
X57620Y24268*
X57651Y24300*
X57714Y24331*
X57839*
X57901Y24300*
X57932Y24268*
X57964Y24206*
Y24143*
X57932Y24081*
X57901Y24050*
X57839Y24018*
X57964Y24675D02*
X57589D01*
Y24518D02*
Y24831D01*
X57839Y25018D02*
X57714D01*
X57651Y25050*
X57620Y25081*
X57589Y25143*
Y25206*
X57620Y25268*
X57651Y25300*
X57714Y25331*
X57839*
X57901Y25300*
X57932Y25268*
X57964Y25206*
Y25143*
X57932Y25081*
X57901Y25050*
X57839Y25018*
X57964Y25518D02*
X57589D01*
Y25737*
X57620Y25800*
X57682Y25831*
X57745Y25800*
X57776Y25737*
Y25518*
Y25737D02*
X57964Y25831D01*
Y26018D02*
X57589D01*
Y26331*
X57776Y26268D02*
Y26018D01*
X60552Y13039D02*
Y11973D01*
X61146*
Y13039*
X60552*
X61114Y13303D02*
Y14369D01*
X60520*
Y13303*
X61114*
X61254Y12754D02*
X61629D01*
Y12535*
X61597Y12472*
X61535Y12441*
X61472Y12472*
X61441Y12535*
Y12754*
Y12535D02*
X61254Y12441D01*
Y12160D02*
X61285Y12097D01*
X61347Y12035*
X61441Y12004*
X61535*
X61597Y12035*
X61629Y12097*
Y12160*
X61597Y12222*
X61535Y12254*
X61472Y12222*
X61441Y12160*
Y12097*
X61472Y12035*
X61535Y12004*
X61289Y14388D02*
X61664D01*
Y14169*
X61633Y14106*
X61570Y14075*
X61508Y14106*
X61476Y14169*
Y14388*
Y14169D02*
X61289Y14075D01*
Y13825D02*
Y13700D01*
Y13763D02*
X61664D01*
X61601Y13825*
X61289Y13231D02*
X61664D01*
X61414Y13388*
Y13138*
D02*
D16*
X10022Y20163D02*
Y21856D01*
X11715D02*
Y20163D01*
X19687Y21080D02*
Y22773D01*
X21380D02*
Y21080D01*
D02*
D18*
X6457Y13935D02*
Y14870D01*
X5807*
Y13935*
X56498Y14258D02*
X59589D01*
X56991Y10415D02*
X59589D01*
X57089Y18772D02*
Y15772D01*
X60199*
Y19812*
X58861*
D02*
D77*
X49128Y20088D02*
X49876D01*
Y20789*
X49128*
Y20088*
X55105Y13510D02*
X55853D01*
Y14210*
X55105*
Y13510*
D02*
D127*
X13034Y22569D03*
D02*
D128*
X60919Y15906D02*
X60941Y15884D01*
X60963Y15840*
Y15773*
X60941Y15729*
X60919Y15707*
X60875Y15685*
X60786*
X60742Y15707*
X60720Y15729*
X60698Y15773*
Y15840*
X60720Y15884*
X60742Y15906*
X60963Y16039D02*
X60698Y16150D01*
X60963Y16261*
X60853Y16083D02*
Y16216D01*
X60963Y16393D02*
X60698D01*
X60963Y16615*
X60698*
X60963Y16748D02*
Y16969D01*
X60698Y17102D02*
X60963D01*
Y17324*
X60919Y18302D02*
X60941Y18280D01*
X60963Y18235*
Y18169*
X60941Y18125*
X60919Y18103*
X60875Y18080*
X60786*
X60742Y18103*
X60720Y18125*
X60698Y18169*
Y18235*
X60720Y18280*
X60742Y18302*
X60963Y18435D02*
X60698Y18546D01*
X60963Y18656*
X60853Y18479D02*
Y18612D01*
X60963Y18789D02*
X60698D01*
X60963Y19011*
X60698*
X60963Y19143D02*
Y19365D01*
Y19498D02*
X60698D01*
X60831D02*
Y19719D01*
X60963D02*
X60698D01*
X0Y0D02*
M02*
